<svg width="230" height="588" viewBox="0 0 230 588" fill="none" xmlns="http://www.w3.org/2000/svg">
<g clip-path="url(#clip0_663_3273)">
<path d="M104.719 -94.9272C104.719 -94.9272 138.635 -28.4487 110.458 10.4571C82.2817 49.363 10.6185 114.101 67.3315 165.016C124.044 215.932 158.594 191.829 180.784 239.153C202.974 286.477 205.164 341.806 141.268 359.937C77.3725 378.068 70.8792 444.851 92.4186 495.934C113.958 547.017 182.214 638.797 182.214 638.797" stroke="url(#paint0_linear_663_3273)" stroke-width="0.5" stroke-miterlimit="10"/>
<path d="M109.447 -97.2962C109.152 -97.1388 124.227 -58.6113 119.044 -21.9511C117.4 -10.3819 114.244 0.627995 108.651 10.0547C101.905 21.158 93.1033 33.8119 84.7699 47.202C69.1035 72.1598 52.7422 104.92 53.164 132.602C53.3145 144.125 58.2558 155.672 69.476 166.906C79.9289 177.412 90.6147 185.366 101.092 191.081C140.724 212.652 166.266 210.49 181.321 248.27C200.055 295.085 200.678 347.761 138.593 366.443C132.952 368.237 127.617 370.322 122.889 372.69C75.6154 396.825 72.6475 455.282 91.0782 501.956C98.2775 519.731 110.841 542.307 123.543 564.43C147.549 606.767 173.969 644.101 173.969 644.101" stroke="url(#paint1_linear_663_3273)" stroke-width="0.5" stroke-miterlimit="10"/>
<path d="M114.172 -99.8142C113.582 -99.4994 123.7 -61.5912 116.896 -23.9906C114.669 -11.8074 111.674 -0.352676 106.837 9.3537C101.153 21.0282 94.4499 33.777 88.4944 46.5064C77.3002 70.749 63.7173 106.73 59.4783 133.635C57.6763 144.909 61.2791 156.791 71.6096 168.348C81.4758 179.318 92.181 188.02 103.718 194.157C144.097 215.708 169.488 219.238 182 257.084C197.274 303.241 196.182 353.267 136.057 372.497C130.415 374.291 125.384 376.517 120.659 379.036C74.74 403.434 72.351 461.128 89.7345 507.829C96.3393 525.77 108.592 547.905 119.648 570.071C141.587 613.509 165.276 649.417 165.276 649.417" stroke="url(#paint2_linear_663_3273)" stroke-width="0.5" stroke-miterlimit="10"/>
<path d="M118.9 -102.183C118.015 -101.711 123.181 -64.2722 114.9 -25.8846C112.09 -13.0875 109.107 -1.18399 105.18 8.94779C100.405 21.0476 95.9496 33.8877 92.3797 46.2555C85.6538 69.6332 74.7036 108.988 65.9535 135.113C62.2029 146.288 64.6089 158.201 74.0536 170.23C83.1835 181.668 94.2074 191.111 106.653 197.673C147.935 219.351 173.024 228.577 182.985 266.19C194.952 311.834 192.145 359.21 133.681 378.996C128.189 380.785 123.161 383.162 118.587 385.676C74.0177 410.189 72.3572 467.116 88.5439 513.848C94.7039 531.95 106.35 553.801 116.206 575.849C136.082 620.538 157.181 654.718 157.181 654.718" stroke="url(#paint3_linear_663_3273)" stroke-width="0.5" stroke-miterlimit="10"/>
<path d="M123.625 -104.701C122.594 -104.075 122.505 -67.2486 112.752 -27.9245C109.363 -14.3639 106.387 -2.16118 103.365 8.2464C99.6535 20.9173 97.2921 33.7028 96.108 45.7091C93.8503 68.2219 85.5328 110.952 72.2755 136.445C66.5763 147.521 67.6399 159.619 76.3444 171.966C84.738 183.873 95.931 194.06 109.432 200.893C151.461 222.552 176.545 237.317 183.668 275.153C192.171 319.99 187.802 364.862 131.148 385.199C125.81 387.134 120.932 389.507 116.361 392.171C73.2918 416.795 72.2062 472.808 87.3497 519.717C93.0609 537.831 104.105 559.548 112.61 581.481C130.274 627.426 148.932 659.872 148.932 659.872" stroke="url(#paint4_linear_663_3273)" stroke-width="0.5" stroke-miterlimit="10"/>
<path d="M128.354 -107.07C127.027 -106.286 121.833 -70.075 110.607 -29.8145C106.635 -15.6398 103.825 -2.84268 101.558 7.84459C98.7561 20.9409 98.6424 33.8175 99.844 45.4623C101.901 66.9645 96.2201 113.218 78.6012 137.927C70.8039 148.908 70.6747 161.187 78.4894 173.857C86.1468 186.231 97.6584 197.159 112.068 204.418C154.999 226.202 179.779 246.514 184.355 284.267C189.547 328.441 183.466 370.813 128.623 391.702C123.435 393.633 118.71 396.151 114.139 398.815C72.4201 423.554 72.063 478.8 86.0098 525.74C91.2722 543.865 101.714 565.448 108.869 587.267C124.323 634.616 140.392 665.334 140.392 665.334" stroke="url(#paint5_linear_663_3273)" stroke-width="0.5" stroke-miterlimit="10"/>
<path d="M133.078 -109.588C131.456 -108.647 121.157 -73.0512 108.458 -31.8541C103.903 -17.0655 101.105 -3.81959 99.7478 7.29308C98.0081 20.9605 99.9849 33.6329 103.576 45.0658C110.101 65.7031 106.754 115.339 84.9231 139.26C75.1733 149.992 73.7016 162.455 80.7801 175.593C87.7012 188.436 99.3819 200.108 114.851 207.788C158.533 229.703 183.303 255.404 185.191 293.377C187.219 336.735 179.13 376.764 126.248 398.201C121.213 400.278 116.488 402.796 112.07 405.605C71.8514 430.454 72.0732 484.937 84.8272 532.058C89.7943 550.341 99.331 571.648 105.285 593.348C118.531 642.102 132.156 670.938 132.156 670.938" stroke="url(#paint6_linear_663_3273)" stroke-width="0.5" stroke-miterlimit="10"/>
<path d="M137.807 -111.956C135.89 -110.858 120.488 -75.7284 106.313 -33.7444C101.026 -18.3379 98.5387 -4.65103 97.9374 6.74134C97.2604 20.9798 101.331 33.5978 107.304 44.5195C118.145 64.1463 117.43 117.156 91.2413 140.442C79.3933 151.08 76.7288 163.723 82.9175 177.184C89.1062 190.645 101.102 202.907 117.48 211.013C161.914 233.058 186.825 264.144 185.72 302.195C184.579 344.588 174.637 382.42 123.562 404.258C118.526 406.335 114.105 408.995 109.687 411.805C70.8186 436.768 71.7689 490.484 83.4757 537.631C87.994 555.926 96.9324 577.249 101.533 598.685C112.424 648.998 123.754 675.947 123.754 675.947" stroke="url(#paint7_linear_663_3273)" stroke-width="0.5" stroke-miterlimit="10"/>
<path d="M142.531 -114.474C140.323 -113.07 119.812 -78.7047 104.164 -35.7841C98.2984 -19.6141 95.972 -5.48235 96.1264 6.18971C96.5083 20.8497 102.528 33.5665 111.036 44.1228C126.045 62.8925 127.963 119.277 97.5629 141.774C83.6128 152.167 79.7593 165.141 85.204 178.771C90.6564 192.7 102.821 205.706 120.258 214.234C165.444 236.409 190.495 272.88 186.552 311.154C182.246 352.732 170.447 388.217 121.033 410.611C116.151 412.834 111.729 415.494 107.461 418.3C70.0923 443.374 71.6176 496.176 82.1315 543.504C86.205 561.96 94.3875 583.004 97.7871 604.321C106.324 656.192 115.356 681.105 115.356 681.105" stroke="url(#paint8_linear_663_3273)" stroke-width="0.5" stroke-miterlimit="10"/>
<path d="M147.26 -116.843C144.756 -115.281 118.99 -81.5275 102.019 -37.6743C95.5708 -20.8904 93.2562 -6.30982 94.3159 5.63804C95.7606 20.8691 103.725 33.5353 114.768 43.7261C134.096 61.6349 138.643 121.244 103.889 143.256C87.8366 153.405 82.7942 166.709 87.3491 180.661C92.0653 195.059 104.399 208.809 122.891 217.608C168.829 239.913 194.016 281.62 187.235 320.118C179.914 360.876 166.107 394.018 118.5 416.814C113.768 419.033 109.5 421.839 105.235 424.794C69.2168 449.983 71.4706 502.018 80.7917 549.527C84.4163 567.995 91.7014 589.061 94.0459 610.107C100.078 663.54 106.816 686.567 106.816 686.567" stroke="url(#paint9_linear_663_3273)" stroke-width="0.5" stroke-miterlimit="10"/>
<path d="M151.985 -119.362C149.186 -117.642 118.314 -84.504 99.8711 -39.7143C92.69 -22.3125 90.6863 -7.29094 92.5057 5.08621C95.013 20.8884 105.072 33.5 118.501 43.3293C141.998 60.381 149.169 123.065 110.211 144.588C92.0607 154.641 85.8255 168.127 89.6402 182.398C93.6201 197.263 106.272 211.753 125.674 220.978C172.513 243.409 197.841 290.502 187.922 329.231C177.731 369.016 161.772 399.969 115.975 423.317C111.396 425.682 107.128 428.487 103.014 431.439C68.3416 456.592 71.3277 508.009 79.6016 555.546C82.7775 574.025 89.3146 595.111 90.4547 615.889C93.8335 670.888 98.5715 691.871 98.5715 691.871" stroke="url(#paint10_linear_663_3273)" stroke-width="0.5" stroke-miterlimit="10"/>
<path d="M156.713 -121.73C153.618 -119.853 117.491 -87.3265 97.7254 -41.6042C89.9616 -23.5885 88.123 -7.97246 90.8477 4.68049C94.4139 20.9042 106.425 33.7643 122.385 43.0786C150.205 59.4189 160.002 125.178 116.686 146.066C96.4332 155.875 89.0051 169.541 91.934 184.284C95.0319 199.772 107.999 214.852 128.459 224.498C176.05 247.06 201.668 299.534 188.757 338.341C175.701 377.302 157.589 406.066 113.599 429.816C109.17 432.177 105.055 435.128 100.945 438.229C67.6225 463.497 71.3371 514.146 78.4144 561.714C81.1454 580.355 86.781 601.315 87.0157 621.816C87.5912 678.385 90.4796 697.321 90.4796 697.321" stroke="url(#paint11_linear_663_3273)" stroke-width="0.5" stroke-miterlimit="10"/>
<path d="M161.438 -124.248C158.197 -122.218 116.666 -90.2987 95.5766 -43.6438C87.0805 -25.0102 85.4032 -8.9493 89.0332 3.97945C93.6622 20.7742 107.618 33.5837 126.11 42.3829C158.248 57.8623 170.524 126.85 123 147.1C100.795 156.66 91.8787 170.664 94.217 185.722C96.5786 201.678 109.715 217.502 131.234 227.57C179.577 250.261 205.638 308.262 189.582 347.002C173.813 385.285 153.242 411.568 111.208 435.716C106.783 438.227 102.818 441.174 99.0064 444.267C66.5896 469.811 71.0326 519.693 76.917 567.442C79.1993 586.094 83.7839 606.931 83.1171 627.307C80.8894 685.446 81.932 702.484 81.932 702.484" stroke="url(#paint12_linear_663_3273)" stroke-width="0.5" stroke-miterlimit="10"/>
<path d="M166.166 -126.617C162.63 -124.429 115.993 -93.1257 93.4312 -45.5342C84.3522 -26.2866 82.8362 -9.78086 87.2259 3.57719C92.9176 20.943 108.968 33.6979 129.696 42.1395C166.007 56.9114 181.053 128.821 129.175 148.585C104.868 157.901 94.7632 172.235 96.2118 187.616C97.8372 204.04 111.292 220.604 133.72 231.097C182.815 253.919 209.315 317.297 189.972 356.273C171.339 393.732 148.61 417.676 108.238 442.38C103.962 444.886 100.15 447.979 96.3429 451.222C65.7134 476.42 70.7353 525.538 75.5765 573.464C77.4138 592.277 81.097 612.989 79.3714 632.943C74.1908 692.656 73.3838 707.646 73.3838 707.646" stroke="url(#paint13_linear_663_3273)" stroke-width="0.5" stroke-miterlimit="10"/>
<path d="M170.891 -129.135C167.06 -126.79 115.164 -96.2476 91.2833 -47.5739C81.472 -27.7085 80.2707 -10.6121 85.4162 3.02563C92.1667 20.813 110.169 33.8164 133.429 41.7429C174.062 55.8034 191.734 130.789 135.502 150.067C109.093 159.138 97.7989 173.803 98.5073 189.502C99.2508 206.548 113.02 223.703 136.354 234.472C186.201 257.424 213.144 326.329 190.656 365.236C169.31 402.018 144.275 423.628 105.706 448.583C101.583 451.235 97.772 454.329 94.1141 457.567C64.9844 482.876 70.7387 531.376 74.3832 579.333C75.7717 598.158 78.4038 618.747 75.7768 638.575C67.4937 699.866 65.1401 712.951 65.1401 712.951" stroke="url(#paint14_linear_663_3273)" stroke-width="0.5" stroke-miterlimit="10"/>
<path d="M175.619 -131.503C171.493 -129.001 114.341 -99.0702 89.1381 -49.4639C78.5983 -28.831 77.704 -11.4433 83.6052 2.47414C91.4185 20.8326 111.515 33.7814 137.16 41.3465C182.113 54.546 202.259 132.61 141.824 151.399C113.312 160.225 100.68 175.225 100.648 191.243C100.655 208.756 114.598 226.806 138.986 237.846C189.585 260.928 217.125 335.506 191.342 374.35C167.284 410.454 140.093 429.724 103.18 455.086C99.2116 457.884 95.5497 460.973 91.8918 464.212C63.9589 489.489 70.5951 537.368 73.0428 585.356C73.9865 604.342 75.7172 624.805 72.0352 644.361C60.4962 707.084 56.7456 718.259 56.7456 718.259" stroke="url(#paint15_linear_663_3273)" stroke-width="0.5" stroke-miterlimit="10"/>
<path d="M180.195 -134.018C175.773 -131.358 113.366 -102.039 86.8398 -51.4998C75.7173 -30.2529 74.8347 -12.4165 81.6451 1.92637C90.5172 20.7063 112.712 33.7502 140.743 40.9537C190.018 53.4418 212.789 134.581 147.996 152.735C117.532 161.313 103.561 176.646 102.789 192.983C101.911 210.969 116.322 229.755 141.619 241.221C192.97 264.433 220.957 344.688 191.875 383.318C165.109 418.893 135.608 435.679 100.502 461.443C96.6828 464.237 93.0249 467.476 89.5204 470.86C62.9338 496.103 70.2985 543.214 71.7069 591.528C72.2018 610.526 72.8814 630.867 68.298 650.297C53.4992 714.302 48.3594 723.866 48.3594 723.866" stroke="url(#paint16_linear_663_3273)" stroke-width="0.5" stroke-miterlimit="10"/>
<path d="M184.923 -136.386C180.206 -133.569 112.544 -104.861 84.6947 -53.3898C72.8398 -31.5252 72.2681 -13.2477 79.8343 1.37486C89.7691 20.7259 113.913 33.8687 144.471 40.4076C198.068 52.1843 223.461 136.249 154.314 153.918C121.748 162.251 106.435 177.769 104.922 194.424C103.158 212.883 117.887 232.408 144.244 244.296C196.35 267.788 224.931 353.566 192.554 392.132C163.079 427.18 131.268 441.481 97.9651 467.497C94.2994 470.436 90.791 473.671 87.2866 477.056C62.0463 502.263 70.1434 548.757 70.355 597.102C70.4012 616.112 70.0297 636.33 64.5449 655.634C46.3366 720.925 39.8037 728.73 39.8037 728.73" stroke="url(#paint17_linear_663_3273)" stroke-width="0.5" stroke-miterlimit="10"/>
<path d="M189.647 -138.905C184.635 -135.93 111.714 -107.983 82.5456 -55.4296C69.9583 -32.9471 69.6975 -14.2286 78.0233 0.823183C89.017 20.5957 115.259 33.8335 148.203 40.0109C206.119 50.9266 234.136 138.067 160.635 155.25C125.968 163.339 109.465 179.187 107.213 196.161C104.712 215.088 119.611 235.357 147.026 247.666C199.884 271.288 229.066 362.889 193.386 401.092C161.203 435.611 127.231 447.424 95.4359 473.85C91.9197 476.786 88.4153 480.17 85.0643 483.7C61.0207 508.876 69.8502 554.752 69.0147 603.125C68.616 622.296 67.1896 642.242 60.8033 661.42C39.1817 727.848 31.4131 734.188 31.4131 734.188" stroke="url(#paint18_linear_663_3273)" stroke-width="0.5" stroke-miterlimit="10"/>
<path d="M194.376 -141.273C189.068 -138.141 111.042 -110.81 80.4009 -57.3197C49.76 -3.82944 89.6998 29.5595 151.939 39.7638C214.174 49.8186 244.82 140.184 166.965 156.882C89.1067 173.43 96.0562 227.588 149.663 251.19C203.269 274.792 232.905 372.369 193.927 410.359C154.948 448.348 114.415 455.392 82.6929 490.349C50.9704 525.305 82.2467 599.636 57.0661 667.355C31.8854 735.074 23.0229 739.646 23.0229 739.646" stroke="url(#paint19_linear_663_3273)" stroke-width="0.5" stroke-miterlimit="10"/>
</g>
<defs>
<linearGradient id="paint0_linear_663_3273" x1="279.028" y1="188.891" x2="3.47832" y2="357.696" gradientUnits="userSpaceOnUse">
<stop stop-color="#001C93"/>
<stop offset="0.0891892" stop-color="#004FCE"/>
<stop offset="0.2351" stop-color="#06B6ED"/>
<stop offset="0.3919" stop-color="#21C152"/>
<stop offset="0.5919" stop-color="#EDD107"/>
<stop offset="0.7162" stop-color="#EA0AEA"/>
<stop offset="0.8838" stop-color="#8111D1"/>
<stop offset="1" stop-color="#390F7C"/>
</linearGradient>
<linearGradient id="paint1_linear_663_3273" x1="288.935" y1="203.329" x2="7.56682" y2="371.257" gradientUnits="userSpaceOnUse">
<stop stop-color="#001C93"/>
<stop offset="0.0891892" stop-color="#004FCE"/>
<stop offset="0.2351" stop-color="#06B6ED"/>
<stop offset="0.3919" stop-color="#21C152"/>
<stop offset="0.5919" stop-color="#EDD107"/>
<stop offset="0.7162" stop-color="#EA0AEA"/>
<stop offset="0.8838" stop-color="#8111D1"/>
<stop offset="1" stop-color="#390F7C"/>
</linearGradient>
<linearGradient id="paint2_linear_663_3273" x1="299.527" y1="217.733" x2="10.502" y2="386.393" gradientUnits="userSpaceOnUse">
<stop stop-color="#001C93"/>
<stop offset="0.0891892" stop-color="#004FCE"/>
<stop offset="0.2351" stop-color="#06B6ED"/>
<stop offset="0.3919" stop-color="#21C152"/>
<stop offset="0.5919" stop-color="#EDD107"/>
<stop offset="0.7162" stop-color="#EA0AEA"/>
<stop offset="0.8838" stop-color="#8111D1"/>
<stop offset="1" stop-color="#390F7C"/>
</linearGradient>
<linearGradient id="paint3_linear_663_3273" x1="310.306" y1="231.873" x2="12.1835" y2="402.555" gradientUnits="userSpaceOnUse">
<stop stop-color="#001C93"/>
<stop offset="0.0891892" stop-color="#004FCE"/>
<stop offset="0.2351" stop-color="#06B6ED"/>
<stop offset="0.3919" stop-color="#21C152"/>
<stop offset="0.5919" stop-color="#EDD107"/>
<stop offset="0.7162" stop-color="#EA0AEA"/>
<stop offset="0.8838" stop-color="#8111D1"/>
<stop offset="1" stop-color="#390F7C"/>
</linearGradient>
<linearGradient id="paint4_linear_663_3273" x1="321.021" y1="245.384" x2="12.6487" y2="419.095" gradientUnits="userSpaceOnUse">
<stop stop-color="#001C93"/>
<stop offset="0.0891892" stop-color="#004FCE"/>
<stop offset="0.2351" stop-color="#06B6ED"/>
<stop offset="0.3919" stop-color="#21C152"/>
<stop offset="0.5919" stop-color="#EDD107"/>
<stop offset="0.7162" stop-color="#EA0AEA"/>
<stop offset="0.8838" stop-color="#8111D1"/>
<stop offset="1" stop-color="#390F7C"/>
</linearGradient>
<linearGradient id="paint5_linear_663_3273" x1="331.56" y1="257.977" x2="12.2346" y2="435.509" gradientUnits="userSpaceOnUse">
<stop stop-color="#001C93"/>
<stop offset="0.0891892" stop-color="#004FCE"/>
<stop offset="0.2351" stop-color="#06B6ED"/>
<stop offset="0.3919" stop-color="#21C152"/>
<stop offset="0.5919" stop-color="#EDD107"/>
<stop offset="0.7162" stop-color="#EA0AEA"/>
<stop offset="0.8838" stop-color="#8111D1"/>
<stop offset="1" stop-color="#390F7C"/>
</linearGradient>
<linearGradient id="paint6_linear_663_3273" x1="341.744" y1="269.208" x2="10.923" y2="451.238" gradientUnits="userSpaceOnUse">
<stop stop-color="#001C93"/>
<stop offset="0.0891892" stop-color="#004FCE"/>
<stop offset="0.2351" stop-color="#06B6ED"/>
<stop offset="0.3919" stop-color="#21C152"/>
<stop offset="0.5919" stop-color="#EDD107"/>
<stop offset="0.7162" stop-color="#EA0AEA"/>
<stop offset="0.8838" stop-color="#8111D1"/>
<stop offset="1" stop-color="#390F7C"/>
</linearGradient>
<linearGradient id="paint7_linear_663_3273" x1="351.444" y1="278.657" x2="8.59855" y2="465.878" gradientUnits="userSpaceOnUse">
<stop stop-color="#001C93"/>
<stop offset="0.0891892" stop-color="#004FCE"/>
<stop offset="0.2351" stop-color="#06B6ED"/>
<stop offset="0.3919" stop-color="#21C152"/>
<stop offset="0.5919" stop-color="#EDD107"/>
<stop offset="0.7162" stop-color="#EA0AEA"/>
<stop offset="0.8838" stop-color="#8111D1"/>
<stop offset="1" stop-color="#390F7C"/>
</linearGradient>
<linearGradient id="paint8_linear_663_3273" x1="360.365" y1="285.905" x2="5.04679" y2="478.965" gradientUnits="userSpaceOnUse">
<stop stop-color="#001C93"/>
<stop offset="0.0891892" stop-color="#004FCE"/>
<stop offset="0.2351" stop-color="#06B6ED"/>
<stop offset="0.3919" stop-color="#21C152"/>
<stop offset="0.5919" stop-color="#EDD107"/>
<stop offset="0.7162" stop-color="#EA0AEA"/>
<stop offset="0.8838" stop-color="#8111D1"/>
<stop offset="1" stop-color="#390F7C"/>
</linearGradient>
<linearGradient id="paint9_linear_663_3273" x1="368.375" y1="290.533" x2="0.118269" y2="490.108" gradientUnits="userSpaceOnUse">
<stop stop-color="#001C93"/>
<stop offset="0.0891892" stop-color="#004FCE"/>
<stop offset="0.2351" stop-color="#06B6ED"/>
<stop offset="0.3919" stop-color="#21C152"/>
<stop offset="0.5919" stop-color="#EDD107"/>
<stop offset="0.7162" stop-color="#EA0AEA"/>
<stop offset="0.8838" stop-color="#8111D1"/>
<stop offset="1" stop-color="#390F7C"/>
</linearGradient>
<linearGradient id="paint10_linear_663_3273" x1="375.293" y1="292.172" x2="-6.32912" y2="498.969" gradientUnits="userSpaceOnUse">
<stop stop-color="#001C93"/>
<stop offset="0.0891892" stop-color="#004FCE"/>
<stop offset="0.2351" stop-color="#06B6ED"/>
<stop offset="0.3919" stop-color="#21C152"/>
<stop offset="0.5919" stop-color="#EDD107"/>
<stop offset="0.7162" stop-color="#EA0AEA"/>
<stop offset="0.8838" stop-color="#8111D1"/>
<stop offset="1" stop-color="#390F7C"/>
</linearGradient>
<linearGradient id="paint11_linear_663_3273" x1="381.013" y1="290.466" x2="-14.3151" y2="505.33" gradientUnits="userSpaceOnUse">
<stop stop-color="#001C93"/>
<stop offset="0.0891892" stop-color="#004FCE"/>
<stop offset="0.2351" stop-color="#06B6ED"/>
<stop offset="0.3919" stop-color="#21C152"/>
<stop offset="0.5919" stop-color="#EDD107"/>
<stop offset="0.7162" stop-color="#EA0AEA"/>
<stop offset="0.8838" stop-color="#8111D1"/>
<stop offset="1" stop-color="#390F7C"/>
</linearGradient>
<linearGradient id="paint12_linear_663_3273" x1="385.271" y1="285.175" x2="-24.2265" y2="508.825" gradientUnits="userSpaceOnUse">
<stop stop-color="#001C93"/>
<stop offset="0.0891892" stop-color="#004FCE"/>
<stop offset="0.2351" stop-color="#06B6ED"/>
<stop offset="0.3919" stop-color="#21C152"/>
<stop offset="0.5919" stop-color="#EDD107"/>
<stop offset="0.7162" stop-color="#EA0AEA"/>
<stop offset="0.8838" stop-color="#8111D1"/>
<stop offset="1" stop-color="#390F7C"/>
</linearGradient>
<linearGradient id="paint13_linear_663_3273" x1="387.99" y1="276.069" x2="-36.0197" y2="509.405" gradientUnits="userSpaceOnUse">
<stop stop-color="#001C93"/>
<stop offset="0.0891892" stop-color="#004FCE"/>
<stop offset="0.2351" stop-color="#06B6ED"/>
<stop offset="0.3919" stop-color="#21C152"/>
<stop offset="0.5919" stop-color="#EDD107"/>
<stop offset="0.7162" stop-color="#EA0AEA"/>
<stop offset="0.8838" stop-color="#8111D1"/>
<stop offset="1" stop-color="#390F7C"/>
</linearGradient>
<linearGradient id="paint14_linear_663_3273" x1="389.06" y1="263.022" x2="-49.7954" y2="507.023" gradientUnits="userSpaceOnUse">
<stop stop-color="#001C93"/>
<stop offset="0.0891892" stop-color="#004FCE"/>
<stop offset="0.2351" stop-color="#06B6ED"/>
<stop offset="0.3919" stop-color="#21C152"/>
<stop offset="0.5919" stop-color="#EDD107"/>
<stop offset="0.7162" stop-color="#EA0AEA"/>
<stop offset="0.8838" stop-color="#8111D1"/>
<stop offset="1" stop-color="#390F7C"/>
</linearGradient>
<linearGradient id="paint15_linear_663_3273" x1="388.385" y1="245.998" x2="-65.6229" y2="501.748" gradientUnits="userSpaceOnUse">
<stop stop-color="#001C93"/>
<stop offset="0.0891892" stop-color="#004FCE"/>
<stop offset="0.2351" stop-color="#06B6ED"/>
<stop offset="0.3919" stop-color="#21C152"/>
<stop offset="0.5919" stop-color="#EDD107"/>
<stop offset="0.7162" stop-color="#EA0AEA"/>
<stop offset="0.8838" stop-color="#8111D1"/>
<stop offset="1" stop-color="#390F7C"/>
</linearGradient>
<linearGradient id="paint16_linear_663_3273" x1="385.954" y1="225.055" x2="-83.4955" y2="493.806" gradientUnits="userSpaceOnUse">
<stop stop-color="#001C93"/>
<stop offset="0.0891892" stop-color="#004FCE"/>
<stop offset="0.2351" stop-color="#06B6ED"/>
<stop offset="0.3919" stop-color="#21C152"/>
<stop offset="0.5919" stop-color="#EDD107"/>
<stop offset="0.7162" stop-color="#EA0AEA"/>
<stop offset="0.8838" stop-color="#8111D1"/>
<stop offset="1" stop-color="#390F7C"/>
</linearGradient>
<linearGradient id="paint17_linear_663_3273" x1="381.602" y1="200.358" x2="-103.488" y2="483.425" gradientUnits="userSpaceOnUse">
<stop stop-color="#001C93"/>
<stop offset="0.0891892" stop-color="#004FCE"/>
<stop offset="0.2351" stop-color="#06B6ED"/>
<stop offset="0.3919" stop-color="#21C152"/>
<stop offset="0.5919" stop-color="#EDD107"/>
<stop offset="0.7162" stop-color="#EA0AEA"/>
<stop offset="0.8838" stop-color="#8111D1"/>
<stop offset="1" stop-color="#390F7C"/>
</linearGradient>
<linearGradient id="paint18_linear_663_3273" x1="375.344" y1="172.134" x2="-125.547" y2="471.061" gradientUnits="userSpaceOnUse">
<stop stop-color="#001C93"/>
<stop offset="0.0891892" stop-color="#004FCE"/>
<stop offset="0.2351" stop-color="#06B6ED"/>
<stop offset="0.3919" stop-color="#21C152"/>
<stop offset="0.5919" stop-color="#EDD107"/>
<stop offset="0.7162" stop-color="#EA0AEA"/>
<stop offset="0.8838" stop-color="#8111D1"/>
<stop offset="1" stop-color="#390F7C"/>
</linearGradient>
<linearGradient id="paint19_linear_663_3273" x1="365.897" y1="138.599" x2="-150.901" y2="455.218" gradientUnits="userSpaceOnUse">
<stop stop-color="#001C93"/>
<stop offset="0.0891892" stop-color="#004FCE"/>
<stop offset="0.2351" stop-color="#06B6ED"/>
<stop offset="0.3919" stop-color="#21C152"/>
<stop offset="0.5919" stop-color="#EDD107"/>
<stop offset="0.7162" stop-color="#EA0AEA"/>
<stop offset="0.8838" stop-color="#8111D1"/>
<stop offset="1" stop-color="#390F7C"/>
</linearGradient>
<clipPath id="clip0_663_3273">
<rect width="230" height="588" fill="white"/>
</clipPath>
</defs>
</svg>
