<svg width="243" height="588" viewBox="0 0 243 588" fill="none" xmlns="http://www.w3.org/2000/svg">
<g clip-path="url(#clip0_663_2997)">
<path d="M148.838 -64.4088C148.838 -64.4088 177.149 9.21765 143.234 47.0037C109.319 84.7898 26.8391 144.929 80.833 204.713C134.827 264.496 173.807 242.975 191.907 295.172C210.007 347.368 206.2 405.772 137.031 417.775C67.8624 429.779 53.6624 499.263 70.6636 555.339C87.6649 611.416 149.28 715.431 149.28 715.431" stroke="url(#paint0_linear_663_2997)" stroke-width="0.5" stroke-miterlimit="10"/>
<path d="M147.932 716.435C147.629 716.253 85.2551 615.827 67.9137 560.041C52.2121 509.62 64.0031 450.576 116.955 430.949C123 428.728 129.493 426.86 136.568 425.672C204.948 413.606 210.855 354.733 189.282 304.326C173.06 266.556 150.122 265.701 121.699 245.851C111.474 238.699 99.9327 228.112 87.1042 211.712C71.5405 191.764 69.0184 171.416 72.5837 152.34C77.5709 125.285 96.7827 100.937 115.48 79.0875C124.392 68.6835 133.568 58.935 140.779 49.9835C155.709 31.6447 158.825 6.1876 156.332 -16.5383C153.423 -44.0567 145.042 -64.5492 145.042 -64.5492" stroke="url(#paint1_linear_663_2997)" stroke-width="0.5" stroke-miterlimit="10"/>
<path d="M146.414 717.585C145.808 717.22 82.5171 620.371 64.8479 564.718C48.6733 514.26 62.5227 457.282 116.03 438.65C122.063 436.587 128.544 434.877 135.631 433.531C203.368 421.573 211.072 362.049 186.184 313.443C166.929 275.91 145.414 273.105 122.207 253.507C113.874 246.504 104.274 235.435 93.0472 218.844C79.2677 198.402 77.6085 177.17 79.7547 157.982C82.7293 130.293 98.24 106.605 114.464 83.9261C122.127 73.265 130.88 62.8485 137.97 53.4116C152.162 34.38 155.958 8.34185 153.041 -15.052C149.493 -44.5247 141.05 -64.2288 141.05 -64.2288" stroke="url(#paint2_linear_663_2997)" stroke-width="0.5" stroke-miterlimit="10"/>
<path d="M144.907 718.577C144.156 718.042 79.9493 624.77 61.9399 569.407C45.2923 518.912 61.0425 463.988 115.422 446.377C121.442 444.471 127.923 442.76 135.01 441.415C201.959 429.395 211.604 369.389 183.401 322.584C161.1 285.447 141.021 280.533 122.872 261.175C116.431 254.321 108.761 242.928 99.1604 225.83C87.3227 204.907 86.3812 182.62 86.9506 163.309C87.9126 134.985 99.7346 111.8 113.461 88.6067C119.874 77.6885 128.192 66.7618 135.186 56.524C148.809 36.6543 153.116 10.1804 149.788 -14.0392C145.455 -45.6362 137.095 -64.3818 137.095 -64.3818" stroke="url(#paint3_linear_663_2997)" stroke-width="0.5" stroke-miterlimit="10"/>
<path d="M143.401 719.569C142.347 718.851 77.3815 629.168 58.8741 574.084C41.7535 523.551 59.5621 470.693 114.655 454.09C120.833 452.197 127.302 450.644 134.219 449.444C200.524 437.532 211.651 376.849 180.606 331.883C154.957 294.958 136.47 287.948 123.537 268.843C118.988 262.138 113.26 250.263 105.419 232.986C95.523 211.581 95.2867 188.399 94.4494 168.818C93.2536 139.689 101.52 117.335 112.773 93.3119C118.095 82.1491 125.819 70.6996 132.718 59.661C145.602 39.0985 150.589 12.0435 146.838 -12.844C141.866 -46.3953 133.286 -64.3649 133.286 -64.3649" stroke="url(#paint4_linear_663_2997)" stroke-width="0.5" stroke-miterlimit="10"/>
<path d="M141.895 720.561C140.538 719.661 74.8138 633.567 55.9787 578.616C38.3974 527.888 58.1069 477.084 113.901 461.647C120.067 459.911 126.536 458.358 133.295 457.145C198.812 445.172 211.565 383.982 177.521 340.843C148.668 304.299 131.786 295.037 124.057 276.341C121.413 269.627 117.614 257.429 111.387 239.803C103.433 217.916 103.744 193.825 101.645 174.144C98.4371 144.381 103.002 122.687 111.782 97.8352C115.855 86.4153 123.156 74.2978 129.946 62.6161C142.25 41.3732 147.747 13.8824 143.598 -11.9884C137.986 -47.494 129.344 -64.6752 129.344 -64.6752" stroke="url(#paint5_linear_663_2997)" stroke-width="0.5" stroke-miterlimit="10"/>
<path d="M140.547 721.565C138.887 720.483 72.2463 637.966 53.071 583.305C35.0167 532.54 56.6269 483.789 113.293 469.373C119.446 467.795 125.915 466.242 132.674 465.03C197.403 452.994 211.613 391.443 174.738 349.984C142.524 313.811 127.273 301.979 124.88 284.021C123.983 277.287 122.271 264.777 117.646 246.96C111.634 224.591 112.492 199.591 108.987 179.641C103.621 149.074 104.63 128.21 111.094 102.541C113.918 90.8639 120.783 78.2361 127.466 65.9112C139.188 43.9879 145.051 15.8913 140.636 -10.6351C134.227 -48.1073 125.668 -64.3301 125.668 -64.3301" stroke="url(#paint6_linear_663_2997)" stroke-width="0.5" stroke-miterlimit="10"/>
<path d="M139.041 722.557C137.236 721.304 69.6782 642.365 50.1627 587.994C31.6354 537.192 55.3164 490.349 112.684 477.099C118.825 475.679 125.293 474.126 132.053 472.913C196.138 460.985 211.659 398.903 171.955 359.126C136.368 323.48 119.656 308.043 125.703 291.701C127.959 285.215 127.085 272.137 123.916 253.959C119.858 230.951 121.265 205.042 116.498 184.992C108.974 153.62 106.585 133.6 110.406 107.246C112.138 95.3245 118.41 82.174 124.997 69.0483C136.139 46.4446 142.524 17.7545 137.698 -9.59761C130.65 -49.0241 122.029 -64.4584 122.029 -64.4584" stroke="url(#paint7_linear_663_2997)" stroke-width="0.5" stroke-miterlimit="10"/>
<path d="M137.535 723.549C135.427 722.114 67.111 646.764 47.11 592.514C28.1096 541.674 53.6915 496.885 111.773 484.643C118.059 483.393 124.515 481.998 131.129 480.615C194.426 468.625 211.233 406.327 168.87 368.085C129.764 332.797 118.757 315.429 126.065 299.187C129.147 292.29 131.282 279.29 129.715 260.921C127.599 237.431 129.553 210.613 123.524 190.465C113.672 158.433 107.897 139.098 109.245 111.915C109.729 99.7361 115.722 86.0877 122.056 72.1488C132.617 48.8647 139.525 19.5811 134.275 -8.43898C126.43 -49.8322 117.747 -64.4781 117.747 -64.4781" stroke="url(#paint8_linear_663_2997)" stroke-width="0.5" stroke-miterlimit="10"/>
<path d="M136.029 724.541C133.618 722.923 64.5427 651.163 44.2015 597.203C24.8858 546.339 52.2231 503.433 111.164 492.369C117.45 491.119 123.894 489.882 130.495 488.656C193.149 476.774 211.11 413.933 166.074 377.384C123.425 342.769 114.849 322.737 126.888 306.867C132.032 299.974 135.938 286.637 135.985 267.919C135.981 243.803 138.312 216.222 130.877 195.804C118.868 162.967 109.694 144.475 108.412 116.45C107.804 104.027 113.204 89.8556 119.43 75.2735C129.409 51.309 136.84 21.432 131.022 -7.42614C122.55 -50.9313 113.792 -64.6312 113.792 -64.6312" stroke="url(#paint9_linear_663_2997)" stroke-width="0.5" stroke-miterlimit="10"/>
<path d="M134.68 725.545C131.979 723.587 61.975 655.561 41.2936 601.892C21.5172 550.833 50.7429 510.139 110.555 500.096C116.829 499.003 123.273 497.766 129.874 496.54C191.74 484.596 210.974 421.696 163.291 386.526C116.953 352.413 111.111 329.899 127.553 314.535C134.747 307.804 139.807 293.923 142.086 275.064C144.97 250.54 146.903 221.975 138.206 201.458C123.869 167.962 111.467 150.167 107.553 121.301C105.854 108.633 110.819 93.9514 116.791 78.5561C126.347 53.9236 133.973 23.586 127.901 -6.08537C118.632 -51.5572 109.97 -64.4562 109.97 -64.4562" stroke="url(#paint10_linear_663_2997)" stroke-width="0.5" stroke-miterlimit="10"/>
<path d="M133.174 726.537C130.328 724.409 59.4075 659.96 38.3859 606.582C18.1365 555.485 49.4331 516.699 109.789 507.809C116.208 506.887 122.652 505.65 129.096 504.412C190.33 492.418 210.681 429.447 160.509 395.667C110.627 362.227 107.204 337.207 128.376 322.216C137.778 315.658 145.252 301.333 148.357 282.063C152.407 256.838 155.676 227.426 145.718 206.809C129.21 172.667 113.423 155.557 106.878 125.849C104.075 113.094 108.458 97.7319 114.335 81.5358C123.311 56.2229 131.459 25.2918 124.964 -5.04755C114.898 -52.486 106.161 -64.439 106.161 -64.439" stroke="url(#paint11_linear_663_2997)" stroke-width="0.5" stroke-miterlimit="10"/>
<path d="M131.656 727.687C128.506 725.376 56.8274 664.517 35.478 611.271C14.7555 560.137 47.9653 523.247 109.18 515.536C115.587 514.771 122.031 513.534 128.474 512.296C188.909 500.398 210.388 437.199 157.726 404.809C104.301 372.042 103.297 344.515 129.041 329.884C140.493 323.488 149.752 308.668 154.458 289.207C160.449 263.5 164.266 233.18 152.901 212.294C134.078 177.334 115.05 161.08 105.862 130.687C101.968 117.687 105.916 101.815 111.527 84.9636C120.066 59.1404 128.592 27.4458 121.686 -3.71923C110.823 -53.1244 102.182 -64.2765 102.182 -64.2765" stroke="url(#paint12_linear_663_2997)" stroke-width="0.5" stroke-miterlimit="10"/>
<path d="M130.15 728.679C126.697 726.186 54.2599 668.915 32.4126 615.948C11.2296 564.619 46.4978 529.795 108.414 523.249C114.808 522.643 121.252 521.405 127.696 520.167C187.342 508.207 210.095 444.95 154.774 414.096C97.6352 382.146 99.0493 352.113 129.694 337.709C143.038 331.462 154.396 316.174 160.559 296.351C168.663 270.018 172.856 238.934 160.23 217.948C139.079 182.329 116.981 166.785 105.005 135.538C99.8612 122.281 103.531 105.911 108.889 88.2461C116.847 61.7425 125.738 29.442 118.567 -2.3786C107.064 -53.738 98.361 -64.1018 98.361 -64.1018" stroke="url(#paint13_linear_663_2997)" stroke-width="0.5" stroke-miterlimit="10"/>
<path d="M128.802 729.684C125.046 727.008 51.6922 673.314 29.6624 620.65C7.99388 569.441 45.0177 536.501 107.793 531.134C114.187 530.527 120.606 529.605 127.063 528.209C186.065 516.357 209.934 453.029 151.979 423.395C91.2842 392.277 94.9717 359.566 130.36 345.378C145.765 339.134 159.053 323.522 166.66 303.496C176.705 276.68 181.289 244.675 167.572 223.445C143.947 186.997 118.633 171.992 104.014 140.061C97.7914 126.402 101.013 109.68 106.117 91.2014C113.652 64.0298 122.896 31.2811 115.326 -1.52286C103.026 -54.849 94.2613 -64.4244 94.2613 -64.4244" stroke="url(#paint14_linear_663_2997)" stroke-width="0.5" stroke-miterlimit="10"/>
<path d="M127.296 730.675C123.237 727.817 49.1246 677.713 26.6093 625.169C4.46778 573.923 43.5624 542.891 107.039 538.69C113.579 538.253 119.998 537.331 126.284 536.081C184.498 524.166 209.629 460.938 149.038 432.524C84.6179 402.381 90.7365 367.007 131.025 353.045C148.48 346.964 163.553 330.857 172.773 310.482C184.918 283.198 189.879 250.429 174.768 228.772C149.106 192.004 120.419 177.527 103.326 144.766C96.0122 130.863 98.6524 113.46 103.649 94.3386C110.761 66.4991 120.212 33.1321 112.376 -0.327451C99.2796 -55.6203 90.61 -64.3948 90.61 -64.3948" stroke="url(#paint15_linear_663_2997)" stroke-width="0.5" stroke-miterlimit="10"/>
<path d="M125.789 731.667C121.585 728.639 46.5561 682.112 23.7007 629.858C1.09853 578.418 42.094 549.439 106.43 546.416C112.957 546.137 119.376 545.215 125.662 543.965C183.246 532.001 209.48 468.859 146.255 441.666C78.2786 412.354 86.6706 374.302 131.847 360.726C151.352 354.806 168.354 338.375 179.031 317.639C193.275 289.885 198.627 256.195 182.254 234.438C154.264 197.011 122.518 183.087 102.612 149.787C94.2073 135.639 96.4118 117.726 101.143 97.949C107.831 69.4414 117.647 35.4686 109.401 1.18338C95.507 -56.0761 86.933 -64.0498 86.933 -64.0498" stroke="url(#paint16_linear_663_2997)" stroke-width="0.5" stroke-miterlimit="10"/>
<path d="M124.284 732.659C119.777 729.448 43.9889 686.511 20.6356 634.535C-2.4396 583.057 40.469 555.975 105.507 554.118C112.021 553.996 118.44 553.074 124.569 551.811C181.351 539.943 208.859 476.743 143 450.77C71.2974 422.434 82.1329 381.56 132.04 368.357C153.437 362.585 172.538 345.686 184.672 324.588C201.016 296.365 206.599 261.742 189.135 239.74C158.817 201.654 123.844 188.427 101.306 154.285C91.8102 139.893 93.5789 121.469 98.0568 100.879C104.322 71.7035 114.333 37.27 105.833 2.17155C91.1422 -57.0546 82.6514 -64.0699 82.6514 -64.0699" stroke="url(#paint17_linear_663_2997)" stroke-width="0.5" stroke-miterlimit="10"/>
<path d="M122.777 733.651C117.967 730.258 41.2631 690.897 17.7397 639.067C-5.80858 587.552 39.0257 562.208 104.91 561.686C111.424 561.565 117.831 560.8 123.959 559.538C179.954 547.607 208.723 484.506 140.387 459.767C65.1161 432.418 78.2126 389.026 133.032 375.892C156.48 370.282 177.365 352.888 191.1 331.6C209.386 302.895 215.517 267.363 196.646 245.092C164 206.346 125.823 193.502 100.643 158.676C90.0553 144.038 91.3882 125.104 95.6129 103.701C101.297 73.8451 111.83 38.8182 102.907 3.05177C87.4196 -58.1411 78.8666 -64.3679 78.8666 -64.3679" stroke="url(#paint18_linear_663_2997)" stroke-width="0.5" stroke-miterlimit="10"/>
<path d="M121.429 734.656C116.474 731.092 38.8533 695.308 14.832 643.756C-9.18926 592.204 37.7034 568.926 104.302 569.412C170.9 569.899 216.443 495.269 137.604 468.908C58.7653 442.548 74.0024 396.151 133.71 383.402C193.418 370.653 238.986 289.678 204 250.431C169.014 211.183 127.621 198.879 99.7975 163.369C71.9739 127.859 115.769 67.3695 99.6421 4.22236C83.5152 -58.9248 74.9001 -64.3632 74.9001 -64.3632" stroke="url(#paint19_linear_663_2997)" stroke-width="0.5" stroke-miterlimit="10"/>
</g>
<defs>
<linearGradient id="paint0_linear_663_2997" x1="300.778" y1="253.241" x2="-7.51639" y2="400.262" gradientUnits="userSpaceOnUse">
<stop stop-color="#390F7C"/>
<stop offset="0.1919" stop-color="#8111D1"/>
<stop offset="0.3324" stop-color="#EA0AEA"/>
<stop offset="0.5216" stop-color="#EDD107"/>
<stop offset="0.6243" stop-color="#21C152"/>
<stop offset="0.7649" stop-color="#06B6ED"/>
<stop offset="0.9108" stop-color="#004FCE"/>
<stop offset="1" stop-color="#001C93"/>
</linearGradient>
<linearGradient id="paint1_linear_663_2997" x1="266.773" y1="284.321" x2="3.22104" y2="375.996" gradientUnits="userSpaceOnUse">
<stop stop-color="#390F7C"/>
<stop offset="0.1919" stop-color="#8111D1"/>
<stop offset="0.3324" stop-color="#EA0AEA"/>
<stop offset="0.5216" stop-color="#EDD107"/>
<stop offset="0.6243" stop-color="#21C152"/>
<stop offset="0.7649" stop-color="#06B6ED"/>
<stop offset="0.9108" stop-color="#004FCE"/>
<stop offset="1" stop-color="#001C93"/>
</linearGradient>
<linearGradient id="paint2_linear_663_2997" x1="228.367" y1="307.351" x2="16.2019" y2="355.803" gradientUnits="userSpaceOnUse">
<stop stop-color="#390F7C"/>
<stop offset="0.1919" stop-color="#8111D1"/>
<stop offset="0.3324" stop-color="#EA0AEA"/>
<stop offset="0.5216" stop-color="#EDD107"/>
<stop offset="0.6243" stop-color="#21C152"/>
<stop offset="0.7649" stop-color="#06B6ED"/>
<stop offset="0.9108" stop-color="#004FCE"/>
<stop offset="1" stop-color="#001C93"/>
</linearGradient>
<linearGradient id="paint3_linear_663_2997" x1="193.194" y1="321.186" x2="32.4531" y2="339.638" gradientUnits="userSpaceOnUse">
<stop stop-color="#390F7C"/>
<stop offset="0.1919" stop-color="#8111D1"/>
<stop offset="0.3324" stop-color="#EA0AEA"/>
<stop offset="0.5216" stop-color="#EDD107"/>
<stop offset="0.6243" stop-color="#21C152"/>
<stop offset="0.7649" stop-color="#06B6ED"/>
<stop offset="0.9108" stop-color="#004FCE"/>
<stop offset="1" stop-color="#001C93"/>
</linearGradient>
<linearGradient id="paint4_linear_663_2997" x1="197.276" y1="327.426" x2="51.4474" y2="328.018" gradientUnits="userSpaceOnUse">
<stop stop-color="#390F7C"/>
<stop offset="0.1919" stop-color="#8111D1"/>
<stop offset="0.3324" stop-color="#EA0AEA"/>
<stop offset="0.5216" stop-color="#EDD107"/>
<stop offset="0.6243" stop-color="#21C152"/>
<stop offset="0.7649" stop-color="#06B6ED"/>
<stop offset="0.9108" stop-color="#004FCE"/>
<stop offset="1" stop-color="#001C93"/>
</linearGradient>
<linearGradient id="paint5_linear_663_2997" x1="202.672" y1="335.299" x2="72.4875" y2="321.425" gradientUnits="userSpaceOnUse">
<stop stop-color="#390F7C"/>
<stop offset="0.1919" stop-color="#8111D1"/>
<stop offset="0.3324" stop-color="#EA0AEA"/>
<stop offset="0.5216" stop-color="#EDD107"/>
<stop offset="0.6243" stop-color="#21C152"/>
<stop offset="0.7649" stop-color="#06B6ED"/>
<stop offset="0.9108" stop-color="#004FCE"/>
<stop offset="1" stop-color="#001C93"/>
</linearGradient>
<linearGradient id="paint6_linear_663_2997" x1="222.702" y1="348.375" x2="43.138" y2="308.898" gradientUnits="userSpaceOnUse">
<stop stop-color="#390F7C"/>
<stop offset="0.1919" stop-color="#8111D1"/>
<stop offset="0.3324" stop-color="#EA0AEA"/>
<stop offset="0.5216" stop-color="#EDD107"/>
<stop offset="0.6243" stop-color="#21C152"/>
<stop offset="0.7649" stop-color="#06B6ED"/>
<stop offset="0.9108" stop-color="#004FCE"/>
<stop offset="1" stop-color="#001C93"/>
</linearGradient>
<linearGradient id="paint7_linear_663_2997" x1="257.797" y1="372.335" x2="2.67031" y2="285.906" gradientUnits="userSpaceOnUse">
<stop stop-color="#390F7C"/>
<stop offset="0.1919" stop-color="#8111D1"/>
<stop offset="0.3324" stop-color="#EA0AEA"/>
<stop offset="0.5216" stop-color="#EDD107"/>
<stop offset="0.6243" stop-color="#21C152"/>
<stop offset="0.7649" stop-color="#06B6ED"/>
<stop offset="0.9108" stop-color="#004FCE"/>
<stop offset="1" stop-color="#001C93"/>
</linearGradient>
<linearGradient id="paint8_linear_663_2997" x1="286.868" y1="403.999" x2="-31.7601" y2="255.213" gradientUnits="userSpaceOnUse">
<stop stop-color="#390F7C"/>
<stop offset="0.1919" stop-color="#8111D1"/>
<stop offset="0.3324" stop-color="#EA0AEA"/>
<stop offset="0.5216" stop-color="#EDD107"/>
<stop offset="0.6243" stop-color="#21C152"/>
<stop offset="0.7649" stop-color="#06B6ED"/>
<stop offset="0.9108" stop-color="#004FCE"/>
<stop offset="1" stop-color="#001C93"/>
</linearGradient>
<linearGradient id="paint9_linear_663_2997" x1="308.344" y1="441.847" x2="-58.5891" y2="218.341" gradientUnits="userSpaceOnUse">
<stop stop-color="#390F7C"/>
<stop offset="0.1919" stop-color="#8111D1"/>
<stop offset="0.3324" stop-color="#EA0AEA"/>
<stop offset="0.5216" stop-color="#EDD107"/>
<stop offset="0.6243" stop-color="#21C152"/>
<stop offset="0.7649" stop-color="#06B6ED"/>
<stop offset="0.9108" stop-color="#004FCE"/>
<stop offset="1" stop-color="#001C93"/>
</linearGradient>
<linearGradient id="paint10_linear_663_2997" x1="321.058" y1="484.068" x2="-76.6244" y2="177.123" gradientUnits="userSpaceOnUse">
<stop stop-color="#390F7C"/>
<stop offset="0.1919" stop-color="#8111D1"/>
<stop offset="0.3324" stop-color="#EA0AEA"/>
<stop offset="0.5216" stop-color="#EDD107"/>
<stop offset="0.6243" stop-color="#21C152"/>
<stop offset="0.7649" stop-color="#06B6ED"/>
<stop offset="0.9108" stop-color="#004FCE"/>
<stop offset="1" stop-color="#001C93"/>
</linearGradient>
<linearGradient id="paint11_linear_663_2997" x1="324.133" y1="528.77" x2="-85.2392" y2="133.747" gradientUnits="userSpaceOnUse">
<stop stop-color="#390F7C"/>
<stop offset="0.1919" stop-color="#8111D1"/>
<stop offset="0.3324" stop-color="#EA0AEA"/>
<stop offset="0.5216" stop-color="#EDD107"/>
<stop offset="0.6243" stop-color="#21C152"/>
<stop offset="0.7649" stop-color="#06B6ED"/>
<stop offset="0.9108" stop-color="#004FCE"/>
<stop offset="1" stop-color="#001C93"/>
</linearGradient>
<linearGradient id="paint12_linear_663_2997" x1="314.615" y1="575.841" x2="-86.7689" y2="92.4778" gradientUnits="userSpaceOnUse">
<stop stop-color="#390F7C"/>
<stop offset="0.1919" stop-color="#8111D1"/>
<stop offset="0.3324" stop-color="#EA0AEA"/>
<stop offset="0.5216" stop-color="#EDD107"/>
<stop offset="0.6243" stop-color="#21C152"/>
<stop offset="0.7649" stop-color="#06B6ED"/>
<stop offset="0.9108" stop-color="#004FCE"/>
<stop offset="1" stop-color="#001C93"/>
</linearGradient>
<linearGradient id="paint13_linear_663_2997" x1="292.143" y1="622.064" x2="-82.0273" y2="54.397" gradientUnits="userSpaceOnUse">
<stop stop-color="#390F7C"/>
<stop offset="0.1919" stop-color="#8111D1"/>
<stop offset="0.3324" stop-color="#EA0AEA"/>
<stop offset="0.5216" stop-color="#EDD107"/>
<stop offset="0.6243" stop-color="#21C152"/>
<stop offset="0.7649" stop-color="#06B6ED"/>
<stop offset="0.9108" stop-color="#004FCE"/>
<stop offset="1" stop-color="#001C93"/>
</linearGradient>
<linearGradient id="paint14_linear_663_2997" x1="258.886" y1="663.321" x2="-70.1606" y2="19.6039" gradientUnits="userSpaceOnUse">
<stop stop-color="#390F7C"/>
<stop offset="0.1919" stop-color="#8111D1"/>
<stop offset="0.3324" stop-color="#EA0AEA"/>
<stop offset="0.5216" stop-color="#EDD107"/>
<stop offset="0.6243" stop-color="#21C152"/>
<stop offset="0.7649" stop-color="#06B6ED"/>
<stop offset="0.9108" stop-color="#004FCE"/>
<stop offset="1" stop-color="#001C93"/>
</linearGradient>
<linearGradient id="paint15_linear_663_2997" x1="217.182" y1="696.809" x2="-51.0693" y2="-10.9" gradientUnits="userSpaceOnUse">
<stop stop-color="#390F7C"/>
<stop offset="0.1919" stop-color="#8111D1"/>
<stop offset="0.3324" stop-color="#EA0AEA"/>
<stop offset="0.5216" stop-color="#EDD107"/>
<stop offset="0.6243" stop-color="#21C152"/>
<stop offset="0.7649" stop-color="#06B6ED"/>
<stop offset="0.9108" stop-color="#004FCE"/>
<stop offset="1" stop-color="#001C93"/>
</linearGradient>
<linearGradient id="paint16_linear_663_2997" x1="177.901" y1="718.51" x2="-16.9275" y2="-37.9397" gradientUnits="userSpaceOnUse">
<stop stop-color="#390F7C"/>
<stop offset="0.1919" stop-color="#8111D1"/>
<stop offset="0.3324" stop-color="#EA0AEA"/>
<stop offset="0.5216" stop-color="#EDD107"/>
<stop offset="0.6243" stop-color="#21C152"/>
<stop offset="0.7649" stop-color="#06B6ED"/>
<stop offset="0.9108" stop-color="#004FCE"/>
<stop offset="1" stop-color="#001C93"/>
</linearGradient>
<linearGradient id="paint17_linear_663_2997" x1="148.594" y1="729.503" x2="36.135" y2="-57.9919" gradientUnits="userSpaceOnUse">
<stop stop-color="#390F7C"/>
<stop offset="0.1919" stop-color="#8111D1"/>
<stop offset="0.3324" stop-color="#EA0AEA"/>
<stop offset="0.5216" stop-color="#EDD107"/>
<stop offset="0.6243" stop-color="#21C152"/>
<stop offset="0.7649" stop-color="#06B6ED"/>
<stop offset="0.9108" stop-color="#004FCE"/>
<stop offset="1" stop-color="#001C93"/>
</linearGradient>
<linearGradient id="paint18_linear_663_2997" x1="118.897" y1="734.132" x2="93.6186" y2="-65.1483" gradientUnits="userSpaceOnUse">
<stop stop-color="#390F7C"/>
<stop offset="0.1919" stop-color="#8111D1"/>
<stop offset="0.3324" stop-color="#EA0AEA"/>
<stop offset="0.5216" stop-color="#EDD107"/>
<stop offset="0.6243" stop-color="#21C152"/>
<stop offset="0.7649" stop-color="#06B6ED"/>
<stop offset="0.9108" stop-color="#004FCE"/>
<stop offset="1" stop-color="#001C93"/>
</linearGradient>
<linearGradient id="paint19_linear_663_2997" x1="90.2064" y1="732.589" x2="152.535" y2="-58.5978" gradientUnits="userSpaceOnUse">
<stop stop-color="#390F7C"/>
<stop offset="0.1919" stop-color="#8111D1"/>
<stop offset="0.3324" stop-color="#EA0AEA"/>
<stop offset="0.5216" stop-color="#EDD107"/>
<stop offset="0.6243" stop-color="#21C152"/>
<stop offset="0.7649" stop-color="#06B6ED"/>
<stop offset="0.9108" stop-color="#004FCE"/>
<stop offset="1" stop-color="#001C93"/>
</linearGradient>
<clipPath id="clip0_663_2997">
<rect width="243" height="588" fill="white"/>
</clipPath>
</defs>
</svg>
