<?xml version="1.0" encoding="utf-8"?>
<!-- Generator: Adobe Illustrator 22.1.0, SVG Export Plug-In . SVG Version: 6.00 Build 0)  -->
<svg version="1.1" id="Слой_1" xmlns="http://www.w3.org/2000/svg" xmlns:xlink="http://www.w3.org/1999/xlink" x="0px" y="0px"
	 viewBox="0 0 156.6 554" style="enable-background:new 0 0 156.6 554;" xml:space="preserve">
<style type="text/css">
	.st0{fill:none;stroke:url(#SVGID_1_);stroke-width:0.5;stroke-miterlimit:10;}
	.st1{fill:none;stroke:url(#SVGID_2_);stroke-width:0.5;stroke-miterlimit:10;}
	.st2{fill:none;stroke:url(#SVGID_3_);stroke-width:0.5;stroke-miterlimit:10;}
	.st3{fill:none;stroke:url(#SVGID_4_);stroke-width:0.5;stroke-miterlimit:10;}
	.st4{fill:none;stroke:url(#SVGID_5_);stroke-width:0.5;stroke-miterlimit:10;}
	.st5{fill:none;stroke:url(#SVGID_6_);stroke-width:0.5;stroke-miterlimit:10;}
	.st6{fill:none;stroke:url(#SVGID_7_);stroke-width:0.5;stroke-miterlimit:10;}
	.st7{fill:none;stroke:url(#SVGID_8_);stroke-width:0.5;stroke-miterlimit:10;}
	.st8{fill:none;stroke:url(#SVGID_9_);stroke-width:0.5;stroke-miterlimit:10;}
	.st9{fill:none;stroke:url(#SVGID_10_);stroke-width:0.5;stroke-miterlimit:10;}
	.st10{fill:none;stroke:url(#SVGID_11_);stroke-width:0.5;stroke-miterlimit:10;}
	.st11{fill:none;stroke:url(#SVGID_12_);stroke-width:0.5;stroke-miterlimit:10;}
	.st12{fill:none;stroke:url(#SVGID_13_);stroke-width:0.5;stroke-miterlimit:10;}
	.st13{fill:none;stroke:url(#SVGID_14_);stroke-width:0.5;stroke-miterlimit:10;}
	.st14{fill:none;stroke:url(#SVGID_15_);stroke-width:0.5;stroke-miterlimit:10;}
	.st15{fill:none;stroke:url(#SVGID_16_);stroke-width:0.5;stroke-miterlimit:10;}
	.st16{fill:none;stroke:url(#SVGID_17_);stroke-width:0.5;stroke-miterlimit:10;}
	.st17{fill:none;stroke:url(#SVGID_18_);stroke-width:0.5;stroke-miterlimit:10;}
	.st18{fill:none;stroke:url(#SVGID_19_);stroke-width:0.5;stroke-miterlimit:10;}
	.st19{fill:none;stroke:url(#SVGID_20_);stroke-width:0.5;stroke-miterlimit:10;}
</style>
<g>
	<g>
		
			<linearGradient id="SVGID_1_" gradientUnits="userSpaceOnUse" x1="219.8626" y1="339.8856" x2="-11.747" y2="229.4347" gradientTransform="matrix(1 0 0 -1 0 555.3804)">
			<stop  offset="0" style="stop-color:#390F7C"/>
			<stop  offset="0.1919" style="stop-color:#8111D1"/>
			<stop  offset="0.3324" style="stop-color:#EA0AEA"/>
			<stop  offset="0.5216" style="stop-color:#EDD107"/>
			<stop  offset="0.6243" style="stop-color:#21C152"/>
			<stop  offset="0.7649" style="stop-color:#06B6ED"/>
			<stop  offset="0.9108" style="stop-color:#004FCE"/>
			<stop  offset="1" style="stop-color:#001C93"/>
		</linearGradient>
		<path class="st0" d="M105.8-23.2c0,0,21.3,55.3-4.2,83.7C76.1,88.9,14.1,134.1,54.6,179c40.6,44.9,69.9,28.8,83.5,68
			c13.6,39.2,10.7,83.1-41.2,92.1c-52,9-62.7,61.2-49.9,103.4c12.8,42.1,59.1,120.3,59.1,120.3"/>
		
			<linearGradient id="SVGID_2_" gradientUnits="userSpaceOnUse" x1="194.4035" y1="316.5987" x2="-3.5686" y2="247.7351" gradientTransform="matrix(1 0 0 -1 0 555.3804)">
			<stop  offset="0" style="stop-color:#390F7C"/>
			<stop  offset="0.1919" style="stop-color:#8111D1"/>
			<stop  offset="0.3324" style="stop-color:#EA0AEA"/>
			<stop  offset="0.5216" style="stop-color:#EDD107"/>
			<stop  offset="0.6243" style="stop-color:#21C152"/>
			<stop  offset="0.7649" style="stop-color:#06B6ED"/>
			<stop  offset="0.9108" style="stop-color:#004FCE"/>
			<stop  offset="1" style="stop-color:#001C93"/>
		</linearGradient>
		<path class="st1" d="M105.1,563.6c-0.2-0.1-47.1-75.6-60.1-117.5c-11.8-37.9-2.9-82.3,36.9-97c4.5-1.7,9.4-3.1,14.7-4
			c51.4-9.1,55.8-53.3,39.6-91.2c-12.2-28.4-29.4-29-50.8-43.9c-7.7-5.4-16.4-13.3-26-25.7c-11.7-15-13.6-30.3-10.9-44.6
			c3.7-20.3,18.2-38.6,32.2-55.1c6.7-7.8,13.6-15.1,19-21.9c11.2-13.8,13.6-32.9,11.7-50c-2.2-20.7-8.5-36.1-8.5-36.1"/>
		
			<linearGradient id="SVGID_3_" gradientUnits="userSpaceOnUse" x1="165.4528" y1="299.113" x2="6.145" y2="262.7324" gradientTransform="matrix(1 0 0 -1 0 555.3804)">
			<stop  offset="0" style="stop-color:#390F7C"/>
			<stop  offset="0.1919" style="stop-color:#8111D1"/>
			<stop  offset="0.3324" style="stop-color:#EA0AEA"/>
			<stop  offset="0.5216" style="stop-color:#EDD107"/>
			<stop  offset="0.6243" style="stop-color:#21C152"/>
			<stop  offset="0.7649" style="stop-color:#06B6ED"/>
			<stop  offset="0.9108" style="stop-color:#004FCE"/>
			<stop  offset="1" style="stop-color:#001C93"/>
		</linearGradient>
		<path class="st2" d="M103.9,564.5c-0.5-0.3-48-73.1-61.3-114.9c-12.2-37.9-1.7-80.7,38.5-94.7c4.5-1.6,9.4-2.8,14.7-3.8
			c50.9-9,56.7-53.7,38-90.3c-14.5-28.2-30.6-30.3-48.1-45c-6.3-5.3-13.5-13.6-21.9-26.1c-10.4-15.4-11.6-31.3-10-45.7
			c2.2-20.8,13.9-38.6,26.1-55.7c5.8-8,12.3-15.8,17.7-22.9c10.7-14.3,13.5-33.9,11.3-51.5c-2.7-22.1-9-37-9-37"/>
		
			<linearGradient id="SVGID_4_" gradientUnits="userSpaceOnUse" x1="139.1089" y1="288.8071" x2="18.3588" y2="274.9461" gradientTransform="matrix(1 0 0 -1 0 555.3804)">
			<stop  offset="0" style="stop-color:#390F7C"/>
			<stop  offset="0.1919" style="stop-color:#8111D1"/>
			<stop  offset="0.3324" style="stop-color:#EA0AEA"/>
			<stop  offset="0.5216" style="stop-color:#EDD107"/>
			<stop  offset="0.6243" style="stop-color:#21C152"/>
			<stop  offset="0.7649" style="stop-color:#06B6ED"/>
			<stop  offset="0.9108" style="stop-color:#004FCE"/>
			<stop  offset="1" style="stop-color:#001C93"/>
		</linearGradient>
		<path class="st3" d="M102.8,565.2c-0.6-0.4-48.8-70.5-62.4-112.1c-12.5-37.9-0.7-79.2,40.2-92.5c4.5-1.4,9.4-2.7,14.7-3.7
			c50.3-9,57.6-54.1,36.4-89.3C115,239.7,99.9,236,86.2,221.5c-4.8-5.2-10.6-13.7-17.8-26.6c-8.9-15.7-9.6-32.5-9.2-47
			c0.7-21.3,9.6-38.7,19.9-56.1c4.8-8.2,11.1-16.4,16.3-24.1c10.2-14.9,13.5-34.8,11-53c-3.3-23.7-9.5-37.8-9.5-37.8"/>
		
			<linearGradient id="SVGID_5_" gradientUnits="userSpaceOnUse" x1="142.1437" y1="284.1083" x2="32.5484" y2="283.6633" gradientTransform="matrix(1 0 0 -1 0 555.3804)">
			<stop  offset="0" style="stop-color:#390F7C"/>
			<stop  offset="0.1919" style="stop-color:#8111D1"/>
			<stop  offset="0.3324" style="stop-color:#EA0AEA"/>
			<stop  offset="0.5216" style="stop-color:#EDD107"/>
			<stop  offset="0.6243" style="stop-color:#21C152"/>
			<stop  offset="0.7649" style="stop-color:#06B6ED"/>
			<stop  offset="0.9108" style="stop-color:#004FCE"/>
			<stop  offset="1" style="stop-color:#001C93"/>
		</linearGradient>
		<path class="st4" d="M101.7,566c-0.8-0.5-49.6-67.9-63.5-109.3c-12.9-38,0.5-77.7,41.9-90.2c4.6-1.4,9.5-2.6,14.7-3.5
			c49.8-9,58.2-54.6,34.9-88.4c-19.3-27.8-33.2-33-42.9-47.4c-3.4-5-7.7-14-13.6-26.9c-7.4-16.1-7.6-33.5-8.2-48.2
			c-0.9-21.9,5.3-38.7,13.8-56.7c4-8.4,9.8-17,15-25.3c9.7-15.5,13.4-35.8,10.6-54.5c-3.7-25.2-10.2-38.7-10.2-38.7"/>
		
			<linearGradient id="SVGID_6_" gradientUnits="userSpaceOnUse" x1="146.2241" y1="278.3065" x2="48.3851" y2="288.7334" gradientTransform="matrix(1 0 0 -1 0 555.3804)">
			<stop  offset="0" style="stop-color:#390F7C"/>
			<stop  offset="0.1919" style="stop-color:#8111D1"/>
			<stop  offset="0.3324" style="stop-color:#EA0AEA"/>
			<stop  offset="0.5216" style="stop-color:#EDD107"/>
			<stop  offset="0.6243" style="stop-color:#21C152"/>
			<stop  offset="0.7649" style="stop-color:#06B6ED"/>
			<stop  offset="0.9108" style="stop-color:#004FCE"/>
			<stop  offset="1" style="stop-color:#001C93"/>
		</linearGradient>
		<path class="st5" d="M100.5,566.7C99.5,566,50.1,501.3,36,460c-13.2-38.1,1.6-76.3,43.5-87.9c4.6-1.3,9.5-2.5,14.6-3.4
			c49.2-9,58.8-55,33.2-87.4c-21.7-27.5-34.4-34.4-40.2-48.5c-2-5-4.8-14.2-9.5-27.5c-6-16.4-5.7-34.6-7.3-49.3
			c-2.4-22.4,1-38.7,7.6-57.3C81,90.1,86.5,81,91.6,72.3c9.2-16,13.4-36.6,10.3-56.1c-4.2-26.7-10.7-39.6-10.7-39.6"/>
		
			<linearGradient id="SVGID_7_" gradientUnits="userSpaceOnUse" x1="161.2733" y1="268.3732" x2="26.3241" y2="298.0412" gradientTransform="matrix(1 0 0 -1 0 555.3804)">
			<stop  offset="0" style="stop-color:#390F7C"/>
			<stop  offset="0.1919" style="stop-color:#8111D1"/>
			<stop  offset="0.3324" style="stop-color:#EA0AEA"/>
			<stop  offset="0.5216" style="stop-color:#EDD107"/>
			<stop  offset="0.6243" style="stop-color:#21C152"/>
			<stop  offset="0.7649" style="stop-color:#06B6ED"/>
			<stop  offset="0.9108" style="stop-color:#004FCE"/>
			<stop  offset="1" style="stop-color:#001C93"/>
		</linearGradient>
		<path class="st6" d="M99.5,567.5c-1.2-0.8-51.3-62.8-65.7-103.9c-13.6-38.2,2.7-74.8,45.3-85.6c4.6-1.2,9.5-2.4,14.6-3.3
			c48.6-9,59.3-55.3,31.6-86.5C101,261,89.5,252.1,87.7,238.6c-0.7-5.1-2-14.5-5.4-27.9c-4.5-16.8-3.9-35.6-6.5-50.6
			c-4-23-3.3-38.7,1.6-57.9c2.1-8.8,7.3-18.3,12.3-27.5c8.8-16.5,13.2-37.6,9.9-57.5C94.8-11,88.3-23.1,88.3-23.1"/>
		
			<linearGradient id="SVGID_8_" gradientUnits="userSpaceOnUse" x1="187.6608" y1="250.4532" x2="-4.0761" y2="315.4082" gradientTransform="matrix(1 0 0 -1 0 555.3804)">
			<stop  offset="0" style="stop-color:#390F7C"/>
			<stop  offset="0.1919" style="stop-color:#8111D1"/>
			<stop  offset="0.3324" style="stop-color:#EA0AEA"/>
			<stop  offset="0.5216" style="stop-color:#EDD107"/>
			<stop  offset="0.6243" style="stop-color:#21C152"/>
			<stop  offset="0.7649" style="stop-color:#06B6ED"/>
			<stop  offset="0.9108" style="stop-color:#004FCE"/>
			<stop  offset="1" style="stop-color:#001C93"/>
		</linearGradient>
		<path class="st7" d="M98.4,568.2C97,567.3,46.3,508,31.6,467.1c-13.9-38.2,3.9-73.4,47-83.3c4.6-1.1,9.5-2.2,14.6-3.1
			c48.2-9,59.8-55.6,30-85.5c-26.7-26.8-39.3-38.4-34.8-50.7c1.7-4.9,1-14.7-1.3-28.4c-3-17.3-2-36.8-5.6-51.8
			c-5.7-23.6-7.5-38.6-4.6-58.4c1.3-9,6-18.8,11-28.7c8.4-17,13.2-38.5,9.5-59.1c-5.3-29.6-11.8-41.2-11.8-41.2"/>
		
			<linearGradient id="SVGID_9_" gradientUnits="userSpaceOnUse" x1="209.4763" y1="226.6299" x2="-29.9385" y2="338.4269" gradientTransform="matrix(1 0 0 -1 0 555.3804)">
			<stop  offset="0" style="stop-color:#390F7C"/>
			<stop  offset="0.1919" style="stop-color:#8111D1"/>
			<stop  offset="0.3324" style="stop-color:#EA0AEA"/>
			<stop  offset="0.5216" style="stop-color:#EDD107"/>
			<stop  offset="0.6243" style="stop-color:#21C152"/>
			<stop  offset="0.7649" style="stop-color:#06B6ED"/>
			<stop  offset="0.9108" style="stop-color:#004FCE"/>
			<stop  offset="1" style="stop-color:#001C93"/>
		</linearGradient>
		<path class="st8" d="M97.3,569c-1.6-1.1-52.9-57.7-68-98.5c-14.3-38.2,4.9-71.9,48.6-81.1c4.7-0.9,9.6-2,14.5-3
			c47.6-9,60.2-55.8,28.4-84.6c-29.4-26.5-37.7-39.6-32.2-51.8c2.3-5.2,3.9-15,2.7-28.8c-1.6-17.7-0.1-37.8-4.7-53
			c-7.4-24.1-11.7-38.6-10.7-59c0.4-9.2,4.9-19.4,9.6-29.9c7.9-17.5,13.1-39.5,9.2-60.6c-5.9-31.1-12.4-42.1-12.4-42.1"/>
		
			<linearGradient id="SVGID_10_" gradientUnits="userSpaceOnUse" x1="225.6178" y1="198.2305" x2="-50.1732" y2="366.2203" gradientTransform="matrix(1 0 0 -1 0 555.3804)">
			<stop  offset="0" style="stop-color:#390F7C"/>
			<stop  offset="0.1919" style="stop-color:#8111D1"/>
			<stop  offset="0.3324" style="stop-color:#EA0AEA"/>
			<stop  offset="0.5216" style="stop-color:#EDD107"/>
			<stop  offset="0.6243" style="stop-color:#21C152"/>
			<stop  offset="0.7649" style="stop-color:#06B6ED"/>
			<stop  offset="0.9108" style="stop-color:#004FCE"/>
			<stop  offset="1" style="stop-color:#001C93"/>
		</linearGradient>
		<path class="st9" d="M96.1,569.7c-1.8-1.2-53.7-55.1-69-95.7c-14.5-38.2,6-70.5,50.3-78.8c4.7-0.9,9.6-1.9,14.5-2.8
			c47.1-8.9,60.6-56.2,26.7-83.6c-32.1-26-38.5-41.1-29.5-53c3.9-5.2,6.8-15.2,6.8-29.3c0-18.1,1.7-38.9-3.8-54.2
			c-9-24.7-15.9-38.6-16.9-59.6c-0.5-9.3,3.6-20,8.3-30.9c7.5-18,13.1-40.5,8.7-62.2c-6.4-32.7-12.9-43-12.9-43"/>
		
			<linearGradient id="SVGID_11_" gradientUnits="userSpaceOnUse" x1="235.2348" y1="166.4407" x2="-63.6435" y2="397.1252" gradientTransform="matrix(1 0 0 -1 0 555.3804)">
			<stop  offset="0" style="stop-color:#390F7C"/>
			<stop  offset="0.1919" style="stop-color:#8111D1"/>
			<stop  offset="0.3324" style="stop-color:#EA0AEA"/>
			<stop  offset="0.5216" style="stop-color:#EDD107"/>
			<stop  offset="0.6243" style="stop-color:#21C152"/>
			<stop  offset="0.7649" style="stop-color:#06B6ED"/>
			<stop  offset="0.9108" style="stop-color:#004FCE"/>
			<stop  offset="1" style="stop-color:#001C93"/>
		</linearGradient>
		<path class="st10" d="M95.1,570.5c-2-1.5-54.6-52.6-70.2-92.9C10.1,439.2,32,408.6,77,401c4.7-0.8,9.6-1.8,14.5-2.7
			c46.5-9,61-56.2,25.1-82.7c-34.8-25.6-39.2-42.6-26.9-54.1c5.4-5.1,9.2-15.5,10.9-29.7c2.2-18.4,3.6-39.9-2.9-55.3
			c-10.8-25.2-20.1-38.5-23-60.2c-1.3-9.5,2.5-20.6,6.9-32.1c7.2-18.5,12.9-41.3,8.4-63.6c-7-34.2-13.5-43.9-13.5-43.9"/>
		
			<linearGradient id="SVGID_12_" gradientUnits="userSpaceOnUse" x1="237.5373" y1="132.8902" x2="-70.063" y2="429.7083" gradientTransform="matrix(1 0 0 -1 0 555.3804)">
			<stop  offset="0" style="stop-color:#390F7C"/>
			<stop  offset="0.1919" style="stop-color:#8111D1"/>
			<stop  offset="0.3324" style="stop-color:#EA0AEA"/>
			<stop  offset="0.5216" style="stop-color:#EDD107"/>
			<stop  offset="0.6243" style="stop-color:#21C152"/>
			<stop  offset="0.7649" style="stop-color:#06B6ED"/>
			<stop  offset="0.9108" style="stop-color:#004FCE"/>
			<stop  offset="1" style="stop-color:#001C93"/>
		</linearGradient>
		<path class="st11" d="M94,571.2c-2.1-1.6-55.4-50-71.2-90.2c-15.2-38.4,8.3-67.5,53.7-74.2c4.8-0.7,9.7-1.6,14.5-2.6
			c46-9,61.3-56.3,23.6-81.7c-37.5-25.1-40.1-43.9-24.1-55.2c7.1-4.9,12.7-15.7,15-30.2c3-19,5.5-41.1-2-56.6
			C91,155,79.1,142.1,74.2,119.8c-2.1-9.6,1.2-21.1,5.6-33.3c6.7-19,12.9-42.3,8-65.1c-7.6-35.7-14.1-44.6-14.1-44.6"/>
		
			<linearGradient id="SVGID_13_" gradientUnits="userSpaceOnUse" x1="230.345" y1="97.4052" x2="-71.2668" y2="460.6187" gradientTransform="matrix(1 0 0 -1 0 555.3804)">
			<stop  offset="0" style="stop-color:#390F7C"/>
			<stop  offset="0.1919" style="stop-color:#8111D1"/>
			<stop  offset="0.3324" style="stop-color:#EA0AEA"/>
			<stop  offset="0.5216" style="stop-color:#EDD107"/>
			<stop  offset="0.6243" style="stop-color:#21C152"/>
			<stop  offset="0.7649" style="stop-color:#06B6ED"/>
			<stop  offset="0.9108" style="stop-color:#004FCE"/>
			<stop  offset="1" style="stop-color:#001C93"/>
		</linearGradient>
		<path class="st12" d="M92.8,572.1c-2.4-1.7-56.2-47.5-72.3-87.5c-15.6-38.4,9.4-66.2,55.4-71.9c4.8-0.6,9.7-1.5,14.5-2.4
			c45.4-8.9,61.6-56.4,22-80.8c-40.2-24.6-40.9-45.3-21.6-56.3c8.6-4.8,15.6-15.9,19.1-30.6c4.5-19.3,7.4-42.1-1.2-57.8
			c-14.1-26.3-28.4-38.5-35.4-61.3c-2.9-9.8,0-21.7,4.3-34.4c6.4-19.4,12.8-43.2,7.6-66.6c-8.2-37.1-14.7-45.5-14.7-45.5"/>
		
			<linearGradient id="SVGID_14_" gradientUnits="userSpaceOnUse" x1="213.4193" y1="62.6718" x2="-67.6536" y2="489.0968" gradientTransform="matrix(1 0 0 -1 0 555.3804)">
			<stop  offset="0" style="stop-color:#390F7C"/>
			<stop  offset="0.1919" style="stop-color:#8111D1"/>
			<stop  offset="0.3324" style="stop-color:#EA0AEA"/>
			<stop  offset="0.5216" style="stop-color:#EDD107"/>
			<stop  offset="0.6243" style="stop-color:#21C152"/>
			<stop  offset="0.7649" style="stop-color:#06B6ED"/>
			<stop  offset="0.9108" style="stop-color:#004FCE"/>
			<stop  offset="1" style="stop-color:#001C93"/>
		</linearGradient>
		<path class="st13" d="M91.7,572.8c-2.6-1.9-57-44.9-73.5-84.7c-15.9-38.6,10.6-64.7,57.1-69.7c4.8-0.5,9.6-1.4,14.5-2.3
			c44.8-9,61.9-56.5,20.3-79.7c-42.9-24-41.9-46.6-18.8-57.4c10-4.7,18.6-16.2,23.2-31.1c6.1-19.8,9.2-43.2-0.2-58.9
			c-15.9-26.8-32.5-38.5-41.5-61.9c-3.9-10-1.1-22.3,2.9-35.5c6-19.9,12.7-44.2,7.3-68.1C74.4-15.2,67.8-23,67.8-23"/>
		
			<linearGradient id="SVGID_15_" gradientUnits="userSpaceOnUse" x1="188.4847" y1="31.6575" x2="-58.842" y2="515.5049" gradientTransform="matrix(1 0 0 -1 0 555.3804)">
			<stop  offset="0" style="stop-color:#390F7C"/>
			<stop  offset="0.1919" style="stop-color:#8111D1"/>
			<stop  offset="0.3324" style="stop-color:#EA0AEA"/>
			<stop  offset="0.5216" style="stop-color:#EDD107"/>
			<stop  offset="0.6243" style="stop-color:#21C152"/>
			<stop  offset="0.7649" style="stop-color:#06B6ED"/>
			<stop  offset="0.9108" style="stop-color:#004FCE"/>
			<stop  offset="1" style="stop-color:#001C93"/>
		</linearGradient>
		<path class="st14" d="M90.7,573.6c-2.8-2-57.9-42.4-74.5-81.9c-16.3-38.5,11.5-63.2,58.7-67.3c4.8-0.5,9.6-1.1,14.5-2.2
			c44.3-8.9,62.3-56.5,18.7-78.8c-45.6-23.4-42.8-48-16.2-58.6c11.6-4.7,21.6-16.4,27.3-31.5c7.5-20.2,11-44.2,0.7-60.2
			c-17.8-27.4-36.8-38.7-47.8-62.7c-4.7-10.3-2.3-22.8,1.6-36.7c5.7-20.4,12.6-45,6.9-69.7C71.3-16,64.7-23.2,64.7-23.2"/>
		
			<linearGradient id="SVGID_16_" gradientUnits="userSpaceOnUse" x1="157.1832" y1="6.5352" x2="-44.4001" y2="538.3583" gradientTransform="matrix(1 0 0 -1 0 555.3804)">
			<stop  offset="0" style="stop-color:#390F7C"/>
			<stop  offset="0.1919" style="stop-color:#8111D1"/>
			<stop  offset="0.3324" style="stop-color:#EA0AEA"/>
			<stop  offset="0.5216" style="stop-color:#EDD107"/>
			<stop  offset="0.6243" style="stop-color:#21C152"/>
			<stop  offset="0.7649" style="stop-color:#06B6ED"/>
			<stop  offset="0.9108" style="stop-color:#004FCE"/>
			<stop  offset="1" style="stop-color:#001C93"/>
		</linearGradient>
		<path class="st15" d="M89.6,574.3c-3-2.1-58.7-39.8-75.7-79.3c-16.6-38.5,12.7-61.8,60.4-65c4.9-0.3,9.7-1,14.5-2
			c43.8-9,62.6-56.5,17.1-77.8c-48.4-22.7-43.8-49.2-13.5-59.7c13.1-4.6,24.4-16.7,31.4-32c9.1-20.5,12.9-45.1,1.5-61.4
			C106,169.5,84.4,158.6,71.5,134c-5.5-10.4-3.5-23.5,0.2-37.9c5.3-20.9,12.4-46,6.6-71.1C68.5-16.6,62-23.2,62-23.2"/>
		
			<linearGradient id="SVGID_17_" gradientUnits="userSpaceOnUse" x1="127.6622" y1="-9.7528" x2="-18.6675" y2="558.3945" gradientTransform="matrix(1 0 0 -1 0 555.3804)">
			<stop  offset="0" style="stop-color:#390F7C"/>
			<stop  offset="0.1919" style="stop-color:#8111D1"/>
			<stop  offset="0.3324" style="stop-color:#EA0AEA"/>
			<stop  offset="0.5216" style="stop-color:#EDD107"/>
			<stop  offset="0.6243" style="stop-color:#21C152"/>
			<stop  offset="0.7649" style="stop-color:#06B6ED"/>
			<stop  offset="0.9108" style="stop-color:#004FCE"/>
			<stop  offset="1" style="stop-color:#001C93"/>
		</linearGradient>
		<path class="st16" d="M88.4,575.1c-3.2-2.3-59.5-37.2-76.7-76.5c-17-38.7,13.8-60.4,62.2-62.7c4.9-0.2,9.7-0.9,14.5-1.8
			c43.3-9,63-56.4,15.5-76.9c-51.1-22-44.8-50.6-10.8-60.8c14.7-4.4,27.4-16.8,35.5-32.4c10.7-20.9,14.7-46.2,2.4-62.5
			c-21-28.1-44.9-38.6-59.9-63.6c-6.3-10.6-4.7-24.1-1.1-39c5-21.4,12.4-47,6.2-72.7c-10.4-43-16.9-49-16.9-49"/>
		
			<linearGradient id="SVGID_18_" gradientUnits="userSpaceOnUse" x1="105.4268" y1="-18.0311" x2="20.9529" y2="573.4969" gradientTransform="matrix(1 0 0 -1 0 555.3804)">
			<stop  offset="0" style="stop-color:#390F7C"/>
			<stop  offset="0.1919" style="stop-color:#8111D1"/>
			<stop  offset="0.3324" style="stop-color:#EA0AEA"/>
			<stop  offset="0.5216" style="stop-color:#EDD107"/>
			<stop  offset="0.6243" style="stop-color:#21C152"/>
			<stop  offset="0.7649" style="stop-color:#06B6ED"/>
			<stop  offset="0.9108" style="stop-color:#004FCE"/>
			<stop  offset="1" style="stop-color:#001C93"/>
		</linearGradient>
		<path class="st17" d="M87.3,575.8c-3.4-2.4-60.3-34.7-77.9-73.7c-17.3-38.7,14.9-59,63.8-60.4c4.9-0.1,9.7-0.8,14.3-1.7
			c42.7-8.9,63.3-56.4,13.9-75.9c-53.9-21.3-45.7-52-8.2-61.9c16.1-4.3,30.4-17,39.6-32.9c12.3-21.2,16.5-47.2,3.4-63.8
			c-22.8-28.6-49.1-38.6-66-64.2c-7.1-10.8-5.8-24.7-2.4-40.1c4.7-21.9,12.2-47.8,5.8-74.2C62.4-17.7,56-23,56-23"/>
		
			<linearGradient id="SVGID_19_" gradientUnits="userSpaceOnUse" x1="83.2381" y1="-21.4742" x2="64.2445" y2="579.1055" gradientTransform="matrix(1 0 0 -1 0 555.3804)">
			<stop  offset="0" style="stop-color:#390F7C"/>
			<stop  offset="0.1919" style="stop-color:#8111D1"/>
			<stop  offset="0.3324" style="stop-color:#EA0AEA"/>
			<stop  offset="0.5216" style="stop-color:#EDD107"/>
			<stop  offset="0.6243" style="stop-color:#21C152"/>
			<stop  offset="0.7649" style="stop-color:#06B6ED"/>
			<stop  offset="0.9108" style="stop-color:#004FCE"/>
			<stop  offset="1" style="stop-color:#001C93"/>
		</linearGradient>
		<path class="st18" d="M86.2,576.6c-3.6-2.5-61.3-32.1-78.9-71.1c-17.7-38.7,16-57.8,65.5-58.2c4.9-0.1,9.7-0.7,14.3-1.6
			c42.1-9,63.7-56.4,12.3-75c-56.6-20.6-46.7-53.2-5.5-63c17.6-4.2,33.3-17.3,43.6-33.3c13.7-21.6,18.3-48.3,4.2-65
			c-24.5-29.1-53.2-38.8-72.2-64.9c-8-11-7-25.2-3.8-41.3c4.3-22.4,12.2-48.8,5.5-75.6c-11.6-46-18.1-50.7-18.1-50.7"/>
		
			<linearGradient id="SVGID_20_" gradientUnits="userSpaceOnUse" x1="61.7063" y1="-20.3041" x2="108.5387" y2="574.1786" gradientTransform="matrix(1 0 0 -1 0 555.3804)">
			<stop  offset="0" style="stop-color:#390F7C"/>
			<stop  offset="0.1919" style="stop-color:#8111D1"/>
			<stop  offset="0.3324" style="stop-color:#EA0AEA"/>
			<stop  offset="0.5216" style="stop-color:#EDD107"/>
			<stop  offset="0.6243" style="stop-color:#21C152"/>
			<stop  offset="0.7649" style="stop-color:#06B6ED"/>
			<stop  offset="0.9108" style="stop-color:#004FCE"/>
			<stop  offset="1" style="stop-color:#001C93"/>
		</linearGradient>
		<path class="st19" d="M85.2,577.3C81.4,574.6,23.1,547.7,5,509c-18.1-38.7,17.2-56.2,67.2-55.9c50.1,0.4,84.3-55.7,25-75.5
			c-59.3-19.8-47.8-54.7-2.9-64.3c44.9-9.6,79.1-70.4,52.8-99.9S89.8,174.7,68.9,148c-20.9-26.7,12-72.1-0.1-119.6
			C56.7-19.1,50.2-23.2,50.2-23.2"/>
	</g>
</g>
</svg>
