<svg width="156" height="1012" viewBox="0 0 156 1012" fill="none" xmlns="http://www.w3.org/2000/svg">
<path d="M77.035 1047.07C77.035 1047.07 50.2534 949.804 75.6096 894.988C100.966 840.172 164.327 750.047 117.555 674.201C70.7836 598.356 40.4709 631.564 23.075 562.408C5.67913 493.253 5.6342 413.441 60.821 390.125C116.008 366.808 123.759 270.877 107.043 196.333C90.3271 121.79 35.0425 -13.4382 35.0425 -13.4382" stroke="url(#paint0_linear_709_17053)" stroke-width="0.5" stroke-miterlimit="10"/>
<path d="M36.0775 -14.94C36.3318 -14.7224 92.0372 115.548 109.012 189.662C124.377 256.645 118.013 338.135 76.3225 370.18C71.5617 373.811 66.4204 377.009 60.7738 379.339C6.22668 402.661 4.60209 483.323 24.7054 549.694C39.8152 599.419 58.3748 598.263 82.3751 622.386C91.0101 631.078 100.891 644.31 112.12 665.317C125.747 690.872 128.869 718.29 127.01 744.592C124.429 781.89 110.223 816.945 96.2981 848.55C89.6612 863.6 82.7748 877.785 77.4332 890.687C66.3614 917.137 65.2055 952.073 68.4314 982.727C72.2487 1019.86 80.1074 1046.88 80.1074 1046.88" stroke="url(#paint1_linear_709_17053)" stroke-width="0.5" stroke-miterlimit="10"/>
<path d="M37.2411 -16.6578C37.7496 -16.2226 94.0037 109.091 111.236 182.991C126.985 249.977 118.849 328.865 76.6564 359.612C71.8972 363.028 66.7575 366.009 61.1093 368.556C7.07553 391.665 4.03567 473.395 26.7185 536.982C44.2638 586.078 61.779 587.718 81.5561 612.025C88.6559 620.706 96.9948 634.789 106.942 656.218C119.155 682.625 121.628 711.333 120.92 737.644C119.998 775.601 108.743 809.383 96.8589 841.866C91.2438 857.139 84.7348 872.19 79.5163 885.741C69.0778 913.058 67.4037 948.853 71.007 980.373C75.4446 1020.1 83.3113 1046.04 83.3113 1046.04" stroke="url(#paint2_linear_709_17053)" stroke-width="0.5" stroke-miterlimit="10"/>
<path d="M38.4038 -18.1577C39.0386 -17.5058 95.8414 102.85 113.333 176.321C129.466 243.31 119.686 319.597 76.7353 349.044C71.9777 352.245 66.838 355.226 61.1898 357.772C7.79566 380.887 3.21421 463.468 28.4765 524.27C48.459 572.521 64.9282 577.174 80.6099 601.665C86.1745 610.335 92.9735 625.054 101.635 647.336C112.307 674.595 114.256 704.808 114.828 731.128C115.564 769.745 107.26 802.471 97.419 835.401C92.8257 850.897 86.6957 866.598 81.5971 881.228C71.6622 909.627 69.5995 946.066 73.5785 978.668C78.7629 1021.2 86.5113 1045.85 86.5113 1045.85" stroke="url(#paint3_linear_709_17053)" stroke-width="0.5" stroke-miterlimit="10"/>
<path d="M39.5667 -19.66C40.4558 -18.7906 97.6794 96.6073 115.558 169.649C132.074 236.641 120.523 310.327 76.9423 338.475C72.0568 341.674 66.9187 344.44 61.4 346.772C8.51921 369.674 2.77834 453.325 30.2363 511.339C52.9102 558.964 68.2055 566.627 79.6639 591.303C83.6934 599.962 88.9507 615.532 96.2019 638.235C105.332 666.345 106.76 697.848 108.482 724.393C111.002 763.886 105.524 795.123 97.7234 828.931C94.024 844.65 88.4009 861.001 83.4222 876.711C74.1205 905.978 71.5397 943.276 75.8961 976.742C81.7008 1021.87 89.5852 1045.44 89.5852 1045.44" stroke="url(#paint4_linear_709_17053)" stroke-width="0.5" stroke-miterlimit="10"/>
<path d="M40.7292 -21.161C41.8725 -20.0739 99.5169 90.3659 117.653 163.194C134.552 230.405 121.356 301.489 77.1472 328.123C72.2634 331.107 67.1253 333.873 61.7345 336.205C9.49333 359.112 2.46674 443.617 32.2484 498.844C57.4872 545.624 71.6071 556.515 78.8438 581.159C81.3365 590.022 85.0539 606.228 91.0209 629.568C98.6093 658.529 99.6443 691.325 102.389 717.877C106.568 758.029 104.041 787.994 98.2816 822.68C95.604 838.622 90.3583 855.839 85.5011 872.412C76.7047 902.546 73.7353 940.488 78.4658 975.252C84.8909 1022.97 92.7833 1045.46 92.7833 1045.46" stroke="url(#paint5_linear_709_17053)" stroke-width="0.5" stroke-miterlimit="10"/>
<path d="M41.7634 -22.6632C43.161 -21.3586 101.354 84.1241 119.749 156.523C137.032 223.736 122.192 292.22 77.2255 317.554C72.3432 320.322 67.2051 323.088 61.8144 325.42C10.2128 348.332 2.03005 433.475 34.0058 486.13C61.9376 532.068 74.8788 546.617 77.7691 570.797C78.8529 579.865 80.9024 596.706 85.5869 620.468C91.6337 650.281 92.2752 684.367 96.1697 711.144C102.133 752.172 102.432 780.648 98.5852 816.211C96.9294 832.376 92.0626 850.244 87.3269 867.681C79.0359 898.68 75.8041 937.484 80.7841 973.112C87.9574 1023.43 95.7316 1044.62 95.7316 1044.62" stroke="url(#paint6_linear_709_17053)" stroke-width="0.5" stroke-miterlimit="10"/>
<path d="M42.9264 -24.1652C44.4503 -22.6439 103.192 77.8816 121.846 149.851C139.512 217.067 122.9 283.165 77.3046 306.984C72.4239 309.537 67.2858 312.302 61.8951 314.635C10.8069 337.335 1.59422 423.333 35.7641 473.416C66.3904 518.295 80.7035 537.6 76.6952 560.435C75.2205 569.483 76.6238 587.182 80.1522 611.583C84.6557 642.462 84.9038 677.84 89.8217 704.624C97.5695 746.529 100.567 773.515 98.8896 809.741C98.1278 826.129 93.7678 844.647 89.1521 863.164C81.3663 895.03 77.7443 934.693 83.1 971.403C90.8938 1024.31 98.6759 1044.43 98.6759 1044.43" stroke="url(#paint7_linear_709_17053)" stroke-width="0.5" stroke-miterlimit="10"/>
<path d="M44.0884 -25.6655C45.8666 -23.9265 105.029 71.6408 124.069 143.397C142.119 210.616 123.862 274.114 77.637 296.634C72.6301 298.97 67.4936 301.52 62.2291 304.069C11.7806 326.774 1.54128 413.196 37.7757 460.921C71.223 504.959 81.0344 527.465 76.0026 550.293C73.8834 559.984 72.8545 577.88 75.1003 602.703C78.0623 634.433 77.917 671.102 83.8583 697.894C93.5202 740.46 99.2137 766.172 99.5769 803.276C99.8369 819.887 95.728 839.055 91.3601 858.651C84.0796 891.384 80.0674 931.907 85.8005 969.483C94.3425 1024.98 102.133 1044.02 102.133 1044.02" stroke="url(#paint8_linear_709_17053)" stroke-width="0.5" stroke-miterlimit="10"/>
<path d="M45.2515 -27.1664C47.2839 -25.2099 106.867 65.3994 126.166 136.726C144.472 203.947 124.698 265.061 77.7162 286.065C72.7093 288.401 67.5744 290.735 62.3116 293.069C12.3764 315.562 1.23511 402.84 39.5357 447.992C75.8071 490.756 83.7985 517.132 74.9289 539.931C71.1449 549.825 68.704 568.358 69.6657 593.818C70.9565 626.615 70.5473 664.361 77.6384 691.377C89.0849 734.819 97.4762 759.041 100.008 797.024C101.162 813.858 97.5597 833.676 93.3132 854.136C86.538 887.736 82.1357 929.119 88.3724 967.777C97.5332 1026.09 105.333 1043.83 105.333 1043.83" stroke="url(#paint9_linear_709_17053)" stroke-width="0.5" stroke-miterlimit="10"/>
<path d="M46.2864 -28.6704C48.5714 -26.2806 108.705 59.1558 128.263 130.053C146.951 197.493 125.535 255.79 77.7952 275.495C72.7898 277.614 67.6549 279.949 62.3921 282.282C13.0966 304.78 0.930248 392.266 41.2938 435.277C80.5156 476.985 86.4328 507.012 73.9828 529.568C68.5357 539.45 65.1928 558.839 64.3603 584.717C63.342 618.36 63.3069 657.402 71.4214 684.426C84.7821 728.53 95.7416 751.476 100.442 790.339C102.489 807.395 99.2664 827.863 95.2677 849.404C88.8699 883.869 84.3348 925.898 90.8193 965.636C100.728 1026.54 108.408 1043.21 108.408 1043.21" stroke="url(#paint10_linear_709_17053)" stroke-width="0.5" stroke-miterlimit="10"/>
<path d="M47.4488 -30.1696C49.8602 -27.5631 110.542 52.9161 130.359 123.384C149.431 190.827 126.242 246.737 78.0017 264.929C72.87 266.832 67.7351 269.166 62.6002 271.501C13.8164 294.002 0.75297 381.697 43.0515 422.565C85.0974 463 89.1963 496.681 72.9083 519.208C65.6703 529.077 60.402 549.314 58.925 575.835C57.0031 610.549 55.935 650.879 65.0729 677.91C80.2198 722.674 93.8755 744.346 100.744 784.088C103.687 801.15 100.969 822.485 97.0907 845.105C91.1982 880.437 86.2728 923.326 93.1347 963.93C103.792 1027.43 111.482 1042.8 111.482 1042.8" stroke="url(#paint11_linear_709_17053)" stroke-width="0.5" stroke-miterlimit="10"/>
<path d="M48.6132 -31.8881C51.2788 -29.0641 112.382 46.4571 132.456 116.711C151.912 184.157 127.077 237.682 78.0806 254.358C72.9505 256.045 67.8156 258.38 62.6807 260.714C14.5381 283.005 0.576002 371.125 44.8096 409.85C89.6796 449.012 91.9601 486.346 71.9622 508.846C63.0611 518.702 56.3791 539.792 53.6196 566.734C50.1561 602.3 48.6945 643.92 58.9823 671.176C76.0416 716.817 92.2672 736.999 101.306 777.403C105.143 794.688 102.804 816.673 99.1747 840.158C93.6611 876.14 88.4719 920.105 95.7095 961.79C107.115 1027.88 114.685 1042.17 114.685 1042.17" stroke="url(#paint12_linear_709_17053)" stroke-width="0.5" stroke-miterlimit="10"/>
<path d="M49.7755 -33.3898C52.6954 -30.3481 114.219 40.2149 134.68 110.041C154.518 177.704 127.912 228.629 78.2869 243.79C73.1585 245.261 68.0236 247.596 62.8887 249.93C15.3858 272.226 0.398564 360.553 46.6967 396.921C94.5204 434.595 94.9826 475.583 71.0172 498.269C60.5809 508.114 52.2294 530.053 48.3137 557.635C43.1791 594.266 41.4536 636.963 52.7648 664.227C71.7383 710.529 90.4042 729.435 101.739 770.719C106.598 788.228 104.51 810.861 101.129 835.427C96.1204 872.275 90.6689 917.101 98.1559 959.651C110.182 1028.34 117.76 1041.55 117.76 1041.55" stroke="url(#paint13_linear_709_17053)" stroke-width="0.5" stroke-miterlimit="10"/>
<path d="M50.81 -34.891C53.9842 -31.6318 116.057 33.9741 136.649 103.369C156.872 170.82 128.748 219.36 78.3671 233.006C73.2387 234.478 68.107 236.381 62.9705 238.931C15.9809 261.014 0.0965929 349.551 48.4561 383.993C99.1055 420.178 97.8756 465.036 70.0707 487.909C57.9697 497.957 48.0783 520.532 43.008 548.536C36.3318 586.02 34.3408 630.009 46.5459 657.494C67.5598 704.675 88.7924 722.521 102.297 764.469C108.048 782.415 106.341 805.483 103.208 831.129C98.5766 868.843 92.8644 914.314 100.726 958.161C113.5 1029.44 121.086 1041.58 121.086 1041.58" stroke="url(#paint14_linear_709_17053)" stroke-width="0.5" stroke-miterlimit="10"/>
<path d="M51.9729 -36.3928C55.4013 -32.916 117.894 27.7318 138.872 96.9142C159.479 164.368 129.582 210.522 78.5725 222.653C73.3177 223.908 68.186 225.811 63.1791 228.147C16.8291 250.235 -0.0786498 338.764 50.3422 371.28C103.947 405.761 100.897 454.488 69.1247 477.547C55.3606 487.583 44.0555 511.011 37.7011 539.652C29.3554 577.986 27.1005 623.052 40.4537 650.977C63.1291 698.386 87.0562 715.174 102.601 757.999C109.247 776.168 108.045 800.103 105.033 826.612C100.779 865.192 94.9324 911.525 103.043 956.237C116.566 1030.11 124.032 1041.17 124.032 1041.17" stroke="url(#paint15_linear_709_17053)" stroke-width="0.5" stroke-miterlimit="10"/>
<path d="M53.136 -37.8947C56.6907 -34.2012 119.733 21.4894 140.97 90.2422C161.959 157.915 130.417 201.468 78.6517 212.083C73.3985 213.123 68.2669 215.026 63.2599 217.361C17.4217 239.453 -0.381584 327.976 52.1006 358.566C108.531 391.558 103.789 444.155 68.051 467.185C52.6238 477.208 39.7787 501.272 32.2681 530.552C22.2528 569.736 19.7324 616.094 34.1091 644.027C58.6987 692.097 85.0645 707.824 102.909 751.099C110.448 769.49 109.625 794.074 106.863 821.448C102.986 860.894 96.8776 908.088 105.364 953.881C119.635 1030.35 126.981 1040.32 126.981 1040.32" stroke="url(#paint16_linear_709_17053)" stroke-width="0.5" stroke-miterlimit="10"/>
<path d="M54.2982 -39.3955C58.1072 -35.4844 121.57 15.2481 143.194 83.5725C164.567 151.248 131.38 192.416 78.9859 201.517C73.7344 202.34 68.6027 204.244 63.7237 206.58C18.5267 228.461 -0.301617 317.192 54.2419 345.856C113.628 377.144 107.064 433.826 67.4881 456.827C50.5257 466.839 36.0111 491.753 27.3443 521.672C15.6595 561.706 13.0016 609.357 28.2722 637.513C54.7758 686.244 83.7099 700.696 103.723 744.85C112.156 763.463 111.712 788.698 109.197 817.152C105.698 857.463 99.4567 905.303 108.191 952.177C123.21 1031.24 130.438 1039.92 130.438 1039.92" stroke="url(#paint17_linear_709_17053)" stroke-width="0.5" stroke-miterlimit="10"/>
<path d="M55.4611 -40.896C59.5243 -36.7673 123.536 9.00803 145.289 77.1176C167.046 144.796 132.212 183.795 79.0633 191.164C73.8118 191.988 68.6817 193.675 63.8027 196.012C19.2453 217.897 -0.60643 306.62 55.8705 333.358C118.083 362.941 109.83 423.278 66.2845 446.681C47.6591 456.68 31.7308 482.446 21.7815 512.787C8.55514 553.672 5.50373 602.615 21.9241 630.995C50.3419 680.388 81.841 693.996 104.024 738.813C113.351 757.649 113.286 783.533 111.019 813.068C108.025 854.246 101.394 902.946 110.505 950.685C126.273 1032.34 133.508 1039.94 133.508 1039.94" stroke="url(#paint18_linear_709_17053)" stroke-width="0.5" stroke-miterlimit="10"/>
<path d="M56.4956 -42.3989C60.6851 -38.0535 125.245 2.76464 147.386 70.4457C169.526 138.127 132.921 174.524 79.1419 180.595C25.363 186.665 -7.41199 292.764 57.6283 320.643C122.669 348.523 112.847 413.161 65.3364 436.535C17.8255 459.909 -14.63 574.638 15.7035 624.477C46.0371 674.315 80.1028 686.864 104.456 732.344C128.809 777.824 96.6902 864.514 113.078 948.762C129.466 1033.01 136.71 1039.53 136.71 1039.53" stroke="url(#paint19_linear_709_17053)" stroke-width="0.5" stroke-miterlimit="10"/>
<defs>
<linearGradient id="paint0_linear_709_17053" x1="-62.5586" y1="630.438" x2="223.686" y2="534.796" gradientUnits="userSpaceOnUse">
<stop stop-color="#390F7C"/>
<stop offset="0.1919" stop-color="#8111D1"/>
<stop offset="0.3324" stop-color="#EA0AEA"/>
<stop offset="0.5216" stop-color="#EDD107"/>
<stop offset="0.6243" stop-color="#21C152"/>
<stop offset="0.7649" stop-color="#06B6ED"/>
<stop offset="0.9108" stop-color="#004FCE"/>
<stop offset="1" stop-color="#001C93"/>
</linearGradient>
<linearGradient id="paint1_linear_709_17053" x1="-36.7709" y1="584.733" x2="194.506" y2="526.401" gradientUnits="userSpaceOnUse">
<stop stop-color="#390F7C"/>
<stop offset="0.1919" stop-color="#8111D1"/>
<stop offset="0.3324" stop-color="#EA0AEA"/>
<stop offset="0.5216" stop-color="#EDD107"/>
<stop offset="0.6243" stop-color="#21C152"/>
<stop offset="0.7649" stop-color="#06B6ED"/>
<stop offset="0.9108" stop-color="#004FCE"/>
<stop offset="1" stop-color="#001C93"/>
</linearGradient>
<linearGradient id="paint2_linear_709_17053" x1="-7.00271" y1="549.531" x2="171.539" y2="517.784" gradientUnits="userSpaceOnUse">
<stop stop-color="#390F7C"/>
<stop offset="0.1919" stop-color="#8111D1"/>
<stop offset="0.3324" stop-color="#EA0AEA"/>
<stop offset="0.5216" stop-color="#EDD107"/>
<stop offset="0.6243" stop-color="#21C152"/>
<stop offset="0.7649" stop-color="#06B6ED"/>
<stop offset="0.9108" stop-color="#004FCE"/>
<stop offset="1" stop-color="#001C93"/>
</linearGradient>
<linearGradient id="paint3_linear_709_17053" x1="20.6473" y1="527.161" x2="152.333" y2="512.898" gradientUnits="userSpaceOnUse">
<stop stop-color="#390F7C"/>
<stop offset="0.1919" stop-color="#8111D1"/>
<stop offset="0.3324" stop-color="#EA0AEA"/>
<stop offset="0.5216" stop-color="#EDD107"/>
<stop offset="0.6243" stop-color="#21C152"/>
<stop offset="0.7649" stop-color="#06B6ED"/>
<stop offset="0.9108" stop-color="#004FCE"/>
<stop offset="1" stop-color="#001C93"/>
</linearGradient>
<linearGradient id="paint4_linear_709_17053" x1="17.02" y1="519.086" x2="135.133" y2="514.163" gradientUnits="userSpaceOnUse">
<stop stop-color="#390F7C"/>
<stop offset="0.1919" stop-color="#8111D1"/>
<stop offset="0.3324" stop-color="#EA0AEA"/>
<stop offset="0.5216" stop-color="#EDD107"/>
<stop offset="0.6243" stop-color="#21C152"/>
<stop offset="0.7649" stop-color="#06B6ED"/>
<stop offset="0.9108" stop-color="#004FCE"/>
<stop offset="1" stop-color="#001C93"/>
</linearGradient>
<linearGradient id="paint5_linear_709_17053" x1="12.2437" y1="508.925" x2="118.136" y2="511.446" gradientUnits="userSpaceOnUse">
<stop stop-color="#390F7C"/>
<stop offset="0.1919" stop-color="#8111D1"/>
<stop offset="0.3324" stop-color="#EA0AEA"/>
<stop offset="0.5216" stop-color="#EDD107"/>
<stop offset="0.6243" stop-color="#21C152"/>
<stop offset="0.7649" stop-color="#06B6ED"/>
<stop offset="0.9108" stop-color="#004FCE"/>
<stop offset="1" stop-color="#001C93"/>
</linearGradient>
<linearGradient id="paint6_linear_709_17053" x1="-4.62127" y1="493.167" x2="144.406" y2="506.543" gradientUnits="userSpaceOnUse">
<stop stop-color="#390F7C"/>
<stop offset="0.1919" stop-color="#8111D1"/>
<stop offset="0.3324" stop-color="#EA0AEA"/>
<stop offset="0.5216" stop-color="#EDD107"/>
<stop offset="0.6243" stop-color="#21C152"/>
<stop offset="0.7649" stop-color="#06B6ED"/>
<stop offset="0.9108" stop-color="#004FCE"/>
<stop offset="1" stop-color="#001C93"/>
</linearGradient>
<linearGradient id="paint7_linear_709_17053" x1="-34.2267" y1="464.129" x2="185.319" y2="498.778" gradientUnits="userSpaceOnUse">
<stop stop-color="#390F7C"/>
<stop offset="0.1919" stop-color="#8111D1"/>
<stop offset="0.3324" stop-color="#EA0AEA"/>
<stop offset="0.5216" stop-color="#EDD107"/>
<stop offset="0.6243" stop-color="#21C152"/>
<stop offset="0.7649" stop-color="#06B6ED"/>
<stop offset="0.9108" stop-color="#004FCE"/>
<stop offset="1" stop-color="#001C93"/>
</linearGradient>
<linearGradient id="paint8_linear_709_17053" x1="-59.3806" y1="424.007" x2="229.576" y2="490.437" gradientUnits="userSpaceOnUse">
<stop stop-color="#390F7C"/>
<stop offset="0.1919" stop-color="#8111D1"/>
<stop offset="0.3324" stop-color="#EA0AEA"/>
<stop offset="0.5216" stop-color="#EDD107"/>
<stop offset="0.6243" stop-color="#21C152"/>
<stop offset="0.7649" stop-color="#06B6ED"/>
<stop offset="0.9108" stop-color="#004FCE"/>
<stop offset="1" stop-color="#001C93"/>
</linearGradient>
<linearGradient id="paint9_linear_709_17053" x1="-78.7352" y1="374.706" x2="277.749" y2="484.607" gradientUnits="userSpaceOnUse">
<stop stop-color="#390F7C"/>
<stop offset="0.1919" stop-color="#8111D1"/>
<stop offset="0.3324" stop-color="#EA0AEA"/>
<stop offset="0.5216" stop-color="#EDD107"/>
<stop offset="0.6243" stop-color="#21C152"/>
<stop offset="0.7649" stop-color="#06B6ED"/>
<stop offset="0.9108" stop-color="#004FCE"/>
<stop offset="1" stop-color="#001C93"/>
</linearGradient>
<linearGradient id="paint10_linear_709_17053" x1="-91.2509" y1="318.571" x2="329.52" y2="485.235" gradientUnits="userSpaceOnUse">
<stop stop-color="#390F7C"/>
<stop offset="0.1919" stop-color="#8111D1"/>
<stop offset="0.3324" stop-color="#EA0AEA"/>
<stop offset="0.5216" stop-color="#EDD107"/>
<stop offset="0.6243" stop-color="#21C152"/>
<stop offset="0.7649" stop-color="#06B6ED"/>
<stop offset="0.9108" stop-color="#004FCE"/>
<stop offset="1" stop-color="#001C93"/>
</linearGradient>
<linearGradient id="paint11_linear_709_17053" x1="-96.1197" y1="258.092" x2="383.386" y2="496.754" gradientUnits="userSpaceOnUse">
<stop stop-color="#390F7C"/>
<stop offset="0.1919" stop-color="#8111D1"/>
<stop offset="0.3324" stop-color="#EA0AEA"/>
<stop offset="0.5216" stop-color="#EDD107"/>
<stop offset="0.6243" stop-color="#21C152"/>
<stop offset="0.7649" stop-color="#06B6ED"/>
<stop offset="0.9108" stop-color="#004FCE"/>
<stop offset="1" stop-color="#001C93"/>
</linearGradient>
<linearGradient id="paint12_linear_709_17053" x1="-90.9501" y1="193.113" x2="437.928" y2="520.991" gradientUnits="userSpaceOnUse">
<stop stop-color="#390F7C"/>
<stop offset="0.1919" stop-color="#8111D1"/>
<stop offset="0.3324" stop-color="#EA0AEA"/>
<stop offset="0.5216" stop-color="#EDD107"/>
<stop offset="0.6243" stop-color="#21C152"/>
<stop offset="0.7649" stop-color="#06B6ED"/>
<stop offset="0.9108" stop-color="#004FCE"/>
<stop offset="1" stop-color="#001C93"/>
</linearGradient>
<linearGradient id="paint13_linear_709_17053" x1="-75.2809" y1="127.979" x2="487.909" y2="563.816" gradientUnits="userSpaceOnUse">
<stop stop-color="#390F7C"/>
<stop offset="0.1919" stop-color="#8111D1"/>
<stop offset="0.3324" stop-color="#EA0AEA"/>
<stop offset="0.5216" stop-color="#EDD107"/>
<stop offset="0.6243" stop-color="#21C152"/>
<stop offset="0.7649" stop-color="#06B6ED"/>
<stop offset="0.9108" stop-color="#004FCE"/>
<stop offset="1" stop-color="#001C93"/>
</linearGradient>
<linearGradient id="paint14_linear_709_17053" x1="-50.6408" y1="68.5104" x2="523.452" y2="630.761" gradientUnits="userSpaceOnUse">
<stop stop-color="#390F7C"/>
<stop offset="0.1919" stop-color="#8111D1"/>
<stop offset="0.3324" stop-color="#EA0AEA"/>
<stop offset="0.5216" stop-color="#EDD107"/>
<stop offset="0.6243" stop-color="#21C152"/>
<stop offset="0.7649" stop-color="#06B6ED"/>
<stop offset="0.9108" stop-color="#004FCE"/>
<stop offset="1" stop-color="#001C93"/>
</linearGradient>
<linearGradient id="paint15_linear_709_17053" x1="-18.7681" y1="18.7512" x2="532.064" y2="721.739" gradientUnits="userSpaceOnUse">
<stop stop-color="#390F7C"/>
<stop offset="0.1919" stop-color="#8111D1"/>
<stop offset="0.3324" stop-color="#EA0AEA"/>
<stop offset="0.5216" stop-color="#EDD107"/>
<stop offset="0.6243" stop-color="#21C152"/>
<stop offset="0.7649" stop-color="#06B6ED"/>
<stop offset="0.9108" stop-color="#004FCE"/>
<stop offset="1" stop-color="#001C93"/>
</linearGradient>
<linearGradient id="paint16_linear_709_17053" x1="11.7774" y1="-14.7334" x2="493.794" y2="832.53" gradientUnits="userSpaceOnUse">
<stop stop-color="#390F7C"/>
<stop offset="0.1919" stop-color="#8111D1"/>
<stop offset="0.3324" stop-color="#EA0AEA"/>
<stop offset="0.5216" stop-color="#EDD107"/>
<stop offset="0.6243" stop-color="#21C152"/>
<stop offset="0.7649" stop-color="#06B6ED"/>
<stop offset="0.9108" stop-color="#004FCE"/>
<stop offset="1" stop-color="#001C93"/>
</linearGradient>
<linearGradient id="paint17_linear_709_17053" x1="34.8451" y1="-32.646" x2="395.176" y2="942.916" gradientUnits="userSpaceOnUse">
<stop stop-color="#390F7C"/>
<stop offset="0.1919" stop-color="#8111D1"/>
<stop offset="0.3324" stop-color="#EA0AEA"/>
<stop offset="0.5216" stop-color="#EDD107"/>
<stop offset="0.6243" stop-color="#21C152"/>
<stop offset="0.7649" stop-color="#06B6ED"/>
<stop offset="0.9108" stop-color="#004FCE"/>
<stop offset="1" stop-color="#001C93"/>
</linearGradient>
<linearGradient id="paint18_linear_709_17053" x1="58.5674" y1="-41.9425" x2="248.522" y2="1019.8" gradientUnits="userSpaceOnUse">
<stop stop-color="#390F7C"/>
<stop offset="0.1919" stop-color="#8111D1"/>
<stop offset="0.3324" stop-color="#EA0AEA"/>
<stop offset="0.5216" stop-color="#EDD107"/>
<stop offset="0.6243" stop-color="#21C152"/>
<stop offset="0.7649" stop-color="#06B6ED"/>
<stop offset="0.9108" stop-color="#004FCE"/>
<stop offset="1" stop-color="#001C93"/>
</linearGradient>
<linearGradient id="paint19_linear_709_17053" x1="81.8064" y1="-42.7446" x2="73.7412" y2="1039.54" gradientUnits="userSpaceOnUse">
<stop stop-color="#390F7C"/>
<stop offset="0.1919" stop-color="#8111D1"/>
<stop offset="0.3324" stop-color="#EA0AEA"/>
<stop offset="0.5216" stop-color="#EDD107"/>
<stop offset="0.6243" stop-color="#21C152"/>
<stop offset="0.7649" stop-color="#06B6ED"/>
<stop offset="0.9108" stop-color="#004FCE"/>
<stop offset="1" stop-color="#001C93"/>
</linearGradient>
</defs>
</svg>
