<svg width="312" height="79" viewBox="0 0 312 79" fill="none" xmlns="http://www.w3.org/2000/svg">
<path d="M321 38.0896C321 38.0896 290.614 52.6074 273.395 39.4401C256.176 26.2727 227.816 -6.81439 204.182 18.1698C180.548 43.1539 191.015 59.0222 169.407 68.4757C147.799 77.9292 122.815 78.2668 115.387 49.2311C107.959 20.1955 77.9108 16.4816 54.6147 25.5975C31.3187 34.7133 -10.8843 64.4242 -10.8843 64.4242" stroke="url(#paint0_linear_709_17496)" stroke-width="0.5" stroke-miterlimit="10"/>
<path d="M-11.3564 63.8841C-11.2889 63.749 29.361 33.8356 52.522 24.5847C73.4546 16.2116 98.979 19.2502 109.108 41.1282C110.256 43.6267 111.268 46.3277 112.011 49.2987C119.439 77.9968 144.693 78.537 165.423 67.6655C180.954 59.495 180.549 49.7039 188.044 36.9417C190.745 32.35 194.864 27.0831 201.414 21.0734C209.382 13.7807 217.958 12.0251 226.196 12.9029C237.877 14.1183 248.884 21.4785 258.81 28.7037C263.537 32.1475 267.993 35.7263 272.045 38.4948C280.35 44.2344 291.289 44.7071 300.878 42.8839C312.492 40.7231 320.933 36.469 320.933 36.469" stroke="url(#paint1_linear_709_17496)" stroke-width="0.5" stroke-miterlimit="10"/>
<path d="M-11.897 63.2765C-11.7619 63.0064 27.3349 32.8228 50.4284 23.4369C71.3611 14.8613 96.0751 18.8452 105.799 40.9933C106.879 43.4918 107.824 46.1927 108.635 49.1638C115.995 77.5918 141.587 78.8747 161.439 66.6527C176.767 57.1993 177.24 47.9484 184.803 37.4145C187.504 33.6331 191.893 29.1765 198.578 23.8421C206.816 17.2922 215.796 15.8741 224.035 16.1442C235.919 16.4819 246.52 22.289 256.716 28.4337C261.511 31.3373 266.237 34.7135 270.492 37.4145C279.067 42.8165 290.276 43.5593 300.135 41.5335C312.559 39.0351 320.662 34.7811 320.662 34.7811" stroke="url(#paint2_linear_709_17496)" stroke-width="0.5" stroke-miterlimit="10"/>
<path d="M-12.3696 62.6686C-12.1671 62.331 25.3767 31.8773 48.3351 22.3563C69.2678 13.5781 93.1716 18.4399 102.49 40.9932C103.503 43.4916 104.448 46.1926 105.258 49.1637C112.619 77.254 138.481 79.3472 157.455 65.7748C172.513 55.0383 173.931 46.3276 181.561 37.9546C184.262 34.9835 188.854 31.3371 195.809 26.6779C204.317 20.9383 213.771 19.7904 222.009 19.3853C234.096 18.8451 244.359 23.0991 254.691 28.1635C259.553 30.5268 264.482 33.7005 269.074 36.334C277.987 41.4659 289.398 42.4112 299.595 40.1829C312.897 37.2793 320.595 33.0928 320.595 33.0928" stroke="url(#paint3_linear_709_17496)" stroke-width="0.5" stroke-miterlimit="10"/>
<path d="M-12.8423 62.061C-12.5722 61.5883 23.4185 30.9321 46.2419 21.2085C67.1745 12.2277 90.268 18.0348 99.1813 40.9257C100.194 43.4917 101.072 46.1927 101.815 49.0962C109.107 76.9164 135.307 79.6174 153.404 64.897C168.259 52.7426 170.622 44.6396 178.32 38.4948C181.021 36.3341 185.883 33.498 192.973 29.5816C201.751 24.6523 211.61 23.7745 219.916 22.7616C232.273 21.276 242.064 24.0446 252.665 28.0285C257.594 29.9192 262.726 32.8228 267.656 35.3887C276.839 40.183 288.521 41.3984 298.987 38.9675C313.1 35.7263 320.46 31.4723 320.46 31.4723" stroke="url(#paint4_linear_709_17496)" stroke-width="0.5" stroke-miterlimit="10"/>
<path d="M-13.3149 61.4531C-12.9773 60.8454 21.4603 29.9866 44.2161 20.128C65.2163 10.9446 87.4995 17.6295 95.9401 40.8581C96.8855 43.424 97.7633 46.125 98.506 48.961C105.799 76.4436 132.268 79.8198 149.487 63.884C164.073 50.3791 167.449 42.8838 175.147 38.9674C177.915 37.6169 182.98 35.5911 190.272 32.3499C199.321 28.2309 209.584 27.5557 217.89 26.0026C230.449 23.6393 239.835 24.8547 250.707 27.7583C255.704 29.1088 261.106 31.8097 266.305 34.3082C275.759 38.8323 287.643 40.2503 298.514 37.6169C313.437 34.0381 320.46 29.784 320.46 29.784" stroke="url(#paint5_linear_709_17496)" stroke-width="0.5" stroke-miterlimit="10"/>
<path d="M-13.7876 60.913C-13.3824 60.1702 19.5021 29.0413 42.1229 19.0477C63.1231 9.66174 84.596 17.2245 92.6314 40.8582C93.5092 43.4241 94.3871 46.1251 95.1298 48.9611C102.422 76.1061 129.095 80.09 145.503 63.0063C159.819 48.0833 164.343 41.1958 171.905 39.5752C174.742 38.9675 180.008 37.8196 187.436 35.2536C196.755 31.9449 207.423 31.4722 215.797 29.3114C228.626 26.0027 237.54 25.7326 248.681 27.6233C253.745 28.4336 259.35 30.932 264.82 33.3629C274.543 37.617 286.698 39.1701 297.839 36.4015C313.572 32.4176 320.19 28.231 320.19 28.231" stroke="url(#paint6_linear_709_17496)" stroke-width="0.5" stroke-miterlimit="10"/>
<path d="M-14.2603 60.3054C-13.7876 59.4951 17.5439 28.0961 40.0296 17.9674C61.0298 8.37885 81.7599 16.887 89.3227 40.8583C90.133 43.4242 91.0108 46.1252 91.7536 48.9612C98.9788 75.8361 125.921 80.3602 141.519 62.1286C155.497 45.7876 161.507 38.1573 168.664 40.183C171.5 40.9258 177.037 40.1155 184.668 38.1573C194.324 35.6589 205.398 35.3888 213.771 32.6878C226.871 28.4337 235.311 26.7456 246.655 27.4884C251.787 27.826 257.594 30.0543 263.402 32.4177C273.395 36.4016 285.82 38.1573 297.299 35.1862C313.842 30.8646 320.122 26.6781 320.122 26.6781" stroke="url(#paint7_linear_709_17496)" stroke-width="0.5" stroke-miterlimit="10"/>
<path d="M-14.7329 59.6977C-14.1927 58.7524 15.5857 27.1508 38.0039 16.8195C59.0041 7.02844 78.9239 16.4144 86.0816 40.7233C86.8243 43.3568 87.6346 46.0577 88.4449 48.8263C95.6701 75.3635 122.747 80.4278 137.603 61.1158C151.31 43.2892 158.333 38.0223 165.491 40.5882C168.529 41.6686 174.134 42.1413 181.899 40.8583C191.825 39.1702 203.305 39.1027 211.678 35.8615C224.98 30.5946 233.015 27.4884 244.63 27.1508C249.829 26.9482 255.839 29.0415 261.984 31.2698C272.247 34.9837 284.942 36.9419 296.691 33.7682C314.045 29.0415 319.987 24.855 319.987 24.855" stroke="url(#paint8_linear_709_17496)" stroke-width="0.5" stroke-miterlimit="10"/>
<path d="M-15.2056 59.09C-14.5978 58.0096 13.6275 26.2054 35.9107 15.7391C56.9109 5.81298 76.0879 16.0092 82.7728 40.7233C83.5156 43.3567 84.2584 46.0577 85.0012 48.8262C92.1588 75.0934 119.506 80.6304 133.551 60.2379C146.854 40.9258 155.092 36.6043 162.249 41.1959C165.356 43.1542 171.163 44.3696 179.131 43.7619C189.394 42.9516 201.211 43.0191 209.652 39.1702C223.224 32.9579 230.787 28.4338 242.671 26.9482C247.938 26.273 254.151 28.0961 260.566 30.2569C271.099 33.7007 284.064 35.8615 296.151 32.4177C314.383 27.3534 319.92 23.1668 319.92 23.1668" stroke="url(#paint9_linear_709_17496)" stroke-width="0.5" stroke-miterlimit="10"/>
<path d="M-15.6787 58.5496C-14.9359 57.3342 11.6688 25.2599 33.8169 14.6585C54.8847 4.52982 73.1839 15.6039 79.4637 40.7231C80.1389 43.3566 80.8817 46.0575 81.6244 48.8261C88.7821 74.7556 116.197 80.8328 129.567 59.3599C142.532 38.4948 151.918 35.2536 159.008 41.736C162.114 44.572 168.191 46.2601 176.294 46.5977C186.828 47.0029 199.05 46.8678 207.491 42.4787C221.266 35.2536 228.423 29.3789 240.578 26.7455C245.912 25.5975 252.327 27.2181 259.079 29.2439C269.883 32.4851 283.051 34.7134 295.475 31.1346C314.517 25.6651 319.717 21.5461 319.717 21.5461" stroke="url(#paint10_linear_709_17496)" stroke-width="0.5" stroke-miterlimit="10"/>
<path d="M-16.1509 57.9418C-15.3406 56.6589 9.7111 24.3145 31.7242 13.5781C52.7919 3.2468 70.3483 15.2662 76.1555 40.6555C76.7632 43.3565 77.506 46.0575 78.2487 48.7585C85.4064 74.4179 112.889 80.9678 125.584 58.482C138.143 36.1314 148.677 33.8355 155.767 42.3436C158.873 46.125 165.221 48.826 173.526 49.5013C184.398 50.3791 197.025 50.7842 205.465 45.8549C219.443 37.6844 226.195 30.3918 238.62 26.6104C243.954 24.9898 250.639 26.3403 257.73 28.2985C268.804 31.2696 282.241 33.7005 294.936 29.9191C314.788 24.0444 319.582 19.9254 319.582 19.9254" stroke="url(#paint11_linear_709_17496)" stroke-width="0.5" stroke-miterlimit="10"/>
<path d="M-16.6914 57.3344C-15.8136 55.9163 7.68503 23.3694 29.6306 12.4979C50.6983 1.96406 67.512 14.8613 72.8464 40.6557C73.3866 43.3567 74.1294 46.0577 74.8722 48.7587C81.9623 74.0805 109.58 81.1031 121.599 57.6044C133.754 33.7682 145.436 32.4177 152.526 42.8841C155.632 47.5433 162.249 50.987 170.69 52.3375C181.831 54.0256 194.864 54.6334 203.372 49.0963C217.619 39.913 223.899 31.2698 236.526 26.3405C241.928 24.2472 248.816 25.3951 256.176 27.2183C267.453 29.9868 281.228 32.5528 294.26 28.5688C314.923 22.289 319.379 18.2375 319.379 18.2375" stroke="url(#paint12_linear_709_17496)" stroke-width="0.5" stroke-miterlimit="10"/>
<path d="M-17.1641 56.7266C-16.2187 55.1735 5.72683 22.424 27.5373 11.3499C48.6726 0.613514 64.6759 14.4561 69.5377 40.5882C70.0104 43.2892 70.7532 45.9901 71.4959 48.6911C78.586 73.6753 106.271 81.2381 117.548 56.6591C129.23 31.2698 142.059 30.8646 149.217 43.4242C152.323 48.8937 159.211 53.2153 167.854 55.1735C179.333 57.7394 192.703 58.4822 201.211 52.405C215.661 42.2088 221.536 32.2826 234.433 26.1379C239.903 23.5044 246.993 24.5173 254.691 26.2054C266.237 28.7038 280.282 31.4048 293.585 27.2858C315.058 20.6684 319.177 16.6169 319.177 16.6169" stroke="url(#paint13_linear_709_17496)" stroke-width="0.5" stroke-miterlimit="10"/>
<path d="M-17.6367 56.1866C-16.6238 54.4984 3.76863 21.4788 25.4441 10.3372C46.5118 -0.601761 61.7724 14.0511 66.1615 40.5883C66.6342 43.2893 67.2419 45.9903 68.0522 48.6913C75.0748 73.4054 102.827 81.4408 113.496 55.7814C124.705 28.9066 138.751 29.3792 145.976 43.9646C149.149 50.3119 156.24 55.4438 165.018 58.0097C176.767 61.386 190.542 62.2638 199.118 55.7139C213.838 44.4373 219.375 33.1606 232.475 25.8679C238.08 22.7618 245.305 23.5721 253.34 25.1252C265.157 27.421 279.405 30.2571 293.112 25.9355C315.395 18.9129 319.177 14.8614 319.177 14.8614" stroke="url(#paint14_linear_709_17496)" stroke-width="0.5" stroke-miterlimit="10"/>
<path d="M-18.1094 55.5788C-17.029 53.7557 1.81043 20.5335 23.4183 9.18932C44.4861 -1.95226 59.0039 13.646 62.9203 40.5208C63.3255 43.2893 63.9332 45.9903 64.676 48.6238C71.6985 73.0002 99.4512 81.5759 109.512 54.8361C120.181 26.4081 135.442 27.8262 142.735 44.5048C145.908 51.7299 153.268 57.6046 162.249 60.8458C174.269 65.0998 188.381 66.1127 197.092 58.9551C211.88 46.8006 217.079 34.106 230.449 25.7329C236.121 22.1541 243.617 22.6943 251.922 24.1798C264.009 26.2731 278.527 29.1766 292.504 24.72C315.598 17.2923 319.042 13.3083 319.042 13.3083" stroke="url(#paint15_linear_709_17496)" stroke-width="0.5" stroke-miterlimit="10"/>
<path d="M-18.582 54.9709C-17.4341 53.0802 -0.147774 19.588 21.3251 8.10874C42.4603 -3.23541 56.1679 13.2406 59.6116 40.5206C59.9493 43.2891 60.557 45.9901 61.2998 48.6236C68.3223 72.7299 96.075 81.7782 105.528 53.958C115.725 24.0446 132.201 26.3404 139.493 45.1123C142.667 53.2153 150.23 59.9002 159.413 63.7491C171.703 68.881 186.221 70.0289 194.931 62.3311C209.922 49.1638 214.784 35.1862 228.288 25.5977C234.028 21.5462 241.726 21.8838 250.302 23.2343C262.659 25.125 277.446 28.1636 291.762 23.5044C315.666 15.6715 318.772 11.7551 318.772 11.7551" stroke="url(#paint16_linear_709_17496)" stroke-width="0.5" stroke-miterlimit="10"/>
<path d="M-19.0547 54.3633C-17.8392 52.3375 -2.10598 18.6427 19.2318 6.9609C40.3671 -4.58583 53.3318 12.768 56.3029 40.3856C56.573 43.1542 57.1808 45.8552 57.9235 48.4211C64.8786 72.1898 92.6988 81.7783 101.545 52.8777C111.201 21.4112 128.96 24.6524 136.252 45.45C139.426 54.3633 147.259 61.926 156.645 66.3827C169.204 72.3924 184.127 73.6078 192.905 65.4373C208.099 51.2571 212.555 35.929 226.33 25.1926C232.137 20.6684 240.038 20.8035 248.951 22.0189C261.578 23.707 276.569 26.8132 291.222 22.0189C315.936 13.7809 318.637 9.93199 318.637 9.93199" stroke="url(#paint17_linear_709_17496)" stroke-width="0.5" stroke-miterlimit="10"/>
<path d="M-19.5273 53.7555C-18.2444 51.5947 -4.06418 17.6297 17.2061 5.88044C38.3414 -5.86887 50.6309 12.3628 53.0618 40.3856C53.3319 43.1541 53.872 45.8551 54.6148 48.421C61.5699 71.8521 89.3901 81.9808 97.6281 52.0674C106.744 19.1153 125.651 23.2343 133.079 46.1252C136.252 55.9163 144.355 64.2218 153.876 69.3537C166.706 76.1737 182.034 77.5917 190.88 68.8135C206.275 53.6204 210.462 36.9418 224.44 25.0575C230.314 20.0606 238.417 19.9931 247.668 21.0735C260.565 22.4915 275.826 25.8002 290.749 20.8034C316.273 12.1602 318.637 8.31133 318.637 8.31133" stroke="url(#paint18_linear_709_17496)" stroke-width="0.5" stroke-miterlimit="10"/>
<path d="M-20 53.2153C-18.6495 50.987 -6.02238 16.7519 15.1129 4.80006C36.2481 -7.15183 47.7273 12.0252 49.7531 40.3856C51.7788 68.746 85.0685 85.6272 93.6442 51.1896C102.22 16.7519 122.477 21.6812 129.905 46.6654C137.333 71.6496 173.323 88.3282 188.854 72.1222C204.385 55.9163 208.234 37.8872 222.414 24.8549C236.594 11.8226 263.807 28.4337 290.141 19.4529C316.476 10.4721 318.502 6.62323 318.502 6.62323" stroke="url(#paint19_linear_709_17496)" stroke-width="0.5" stroke-miterlimit="10"/>
<defs>
<linearGradient id="paint0_linear_709_17496" x1="190.903" y1="113.405" x2="117.994" y2="-12.8753" gradientUnits="userSpaceOnUse">
<stop stop-color="#390F7C"/>
<stop offset="0.1919" stop-color="#8111D1"/>
<stop offset="0.3324" stop-color="#EA0AEA"/>
<stop offset="0.5216" stop-color="#EDD107"/>
<stop offset="0.6243" stop-color="#21C152"/>
<stop offset="0.7649" stop-color="#06B6ED"/>
<stop offset="0.9108" stop-color="#004FCE"/>
<stop offset="1" stop-color="#001C93"/>
</linearGradient>
<linearGradient id="paint1_linear_709_17496" x1="176.535" y1="99.9746" x2="128.682" y2="-9.11908" gradientUnits="userSpaceOnUse">
<stop stop-color="#390F7C"/>
<stop offset="0.1919" stop-color="#8111D1"/>
<stop offset="0.3324" stop-color="#EA0AEA"/>
<stop offset="0.5216" stop-color="#EDD107"/>
<stop offset="0.6243" stop-color="#21C152"/>
<stop offset="0.7649" stop-color="#06B6ED"/>
<stop offset="0.9108" stop-color="#004FCE"/>
<stop offset="1" stop-color="#001C93"/>
</linearGradient>
<linearGradient id="paint2_linear_709_17496" x1="165.446" y1="84.4013" x2="137.711" y2="-4.27127" gradientUnits="userSpaceOnUse">
<stop stop-color="#390F7C"/>
<stop offset="0.1919" stop-color="#8111D1"/>
<stop offset="0.3324" stop-color="#EA0AEA"/>
<stop offset="0.5216" stop-color="#EDD107"/>
<stop offset="0.6243" stop-color="#21C152"/>
<stop offset="0.7649" stop-color="#06B6ED"/>
<stop offset="0.9108" stop-color="#004FCE"/>
<stop offset="1" stop-color="#001C93"/>
</linearGradient>
<linearGradient id="paint3_linear_709_17496" x1="158.378" y1="69.8956" x2="145.136" y2="2.10311" gradientUnits="userSpaceOnUse">
<stop stop-color="#390F7C"/>
<stop offset="0.1919" stop-color="#8111D1"/>
<stop offset="0.3324" stop-color="#EA0AEA"/>
<stop offset="0.5216" stop-color="#EDD107"/>
<stop offset="0.6243" stop-color="#21C152"/>
<stop offset="0.7649" stop-color="#06B6ED"/>
<stop offset="0.9108" stop-color="#004FCE"/>
<stop offset="1" stop-color="#001C93"/>
</linearGradient>
<linearGradient id="paint4_linear_709_17496" x1="155.859" y1="71.8421" x2="150.718" y2="9.79764" gradientUnits="userSpaceOnUse">
<stop stop-color="#390F7C"/>
<stop offset="0.1919" stop-color="#8111D1"/>
<stop offset="0.3324" stop-color="#EA0AEA"/>
<stop offset="0.5216" stop-color="#EDD107"/>
<stop offset="0.6243" stop-color="#21C152"/>
<stop offset="0.7649" stop-color="#06B6ED"/>
<stop offset="0.9108" stop-color="#004FCE"/>
<stop offset="1" stop-color="#001C93"/>
</linearGradient>
<linearGradient id="paint5_linear_709_17496" x1="152.69" y1="74.4027" x2="154.23" y2="18.531" gradientUnits="userSpaceOnUse">
<stop stop-color="#390F7C"/>
<stop offset="0.1919" stop-color="#8111D1"/>
<stop offset="0.3324" stop-color="#EA0AEA"/>
<stop offset="0.5216" stop-color="#EDD107"/>
<stop offset="0.6243" stop-color="#21C152"/>
<stop offset="0.7649" stop-color="#06B6ED"/>
<stop offset="0.9108" stop-color="#004FCE"/>
<stop offset="1" stop-color="#001C93"/>
</linearGradient>
<linearGradient id="paint6_linear_709_17496" x1="147.796" y1="83.3658" x2="158.577" y2="5.61991" gradientUnits="userSpaceOnUse">
<stop stop-color="#390F7C"/>
<stop offset="0.1919" stop-color="#8111D1"/>
<stop offset="0.3324" stop-color="#EA0AEA"/>
<stop offset="0.5216" stop-color="#EDD107"/>
<stop offset="0.6243" stop-color="#21C152"/>
<stop offset="0.7649" stop-color="#06B6ED"/>
<stop offset="0.9108" stop-color="#004FCE"/>
<stop offset="1" stop-color="#001C93"/>
</linearGradient>
<linearGradient id="paint7_linear_709_17496" x1="138.775" y1="99.1059" x2="167.006" y2="-12.3737" gradientUnits="userSpaceOnUse">
<stop stop-color="#390F7C"/>
<stop offset="0.1919" stop-color="#8111D1"/>
<stop offset="0.3324" stop-color="#EA0AEA"/>
<stop offset="0.5216" stop-color="#EDD107"/>
<stop offset="0.6243" stop-color="#21C152"/>
<stop offset="0.7649" stop-color="#06B6ED"/>
<stop offset="0.9108" stop-color="#004FCE"/>
<stop offset="1" stop-color="#001C93"/>
</linearGradient>
<linearGradient id="paint8_linear_709_17496" x1="126.274" y1="112.54" x2="178.914" y2="-28.0565" gradientUnits="userSpaceOnUse">
<stop stop-color="#390F7C"/>
<stop offset="0.1919" stop-color="#8111D1"/>
<stop offset="0.3324" stop-color="#EA0AEA"/>
<stop offset="0.5216" stop-color="#EDD107"/>
<stop offset="0.6243" stop-color="#21C152"/>
<stop offset="0.7649" stop-color="#06B6ED"/>
<stop offset="0.9108" stop-color="#004FCE"/>
<stop offset="1" stop-color="#001C93"/>
</linearGradient>
<linearGradient id="paint9_linear_709_17496" x1="110.886" y1="122.949" x2="193.708" y2="-40.7109" gradientUnits="userSpaceOnUse">
<stop stop-color="#390F7C"/>
<stop offset="0.1919" stop-color="#8111D1"/>
<stop offset="0.3324" stop-color="#EA0AEA"/>
<stop offset="0.5216" stop-color="#EDD107"/>
<stop offset="0.6243" stop-color="#21C152"/>
<stop offset="0.7649" stop-color="#06B6ED"/>
<stop offset="0.9108" stop-color="#004FCE"/>
<stop offset="1" stop-color="#001C93"/>
</linearGradient>
<linearGradient id="paint10_linear_709_17496" x1="93.3426" y1="129.775" x2="210.645" y2="-49.7688" gradientUnits="userSpaceOnUse">
<stop stop-color="#390F7C"/>
<stop offset="0.1919" stop-color="#8111D1"/>
<stop offset="0.3324" stop-color="#EA0AEA"/>
<stop offset="0.5216" stop-color="#EDD107"/>
<stop offset="0.6243" stop-color="#21C152"/>
<stop offset="0.7649" stop-color="#06B6ED"/>
<stop offset="0.9108" stop-color="#004FCE"/>
<stop offset="1" stop-color="#001C93"/>
</linearGradient>
<linearGradient id="paint11_linear_709_17496" x1="74.4214" y1="132.583" x2="228.817" y2="-54.8898" gradientUnits="userSpaceOnUse">
<stop stop-color="#390F7C"/>
<stop offset="0.1919" stop-color="#8111D1"/>
<stop offset="0.3324" stop-color="#EA0AEA"/>
<stop offset="0.5216" stop-color="#EDD107"/>
<stop offset="0.6243" stop-color="#21C152"/>
<stop offset="0.7649" stop-color="#06B6ED"/>
<stop offset="0.9108" stop-color="#004FCE"/>
<stop offset="1" stop-color="#001C93"/>
</linearGradient>
<linearGradient id="paint12_linear_709_17496" x1="54.0685" y1="130.11" x2="246.33" y2="-56.9243" gradientUnits="userSpaceOnUse">
<stop stop-color="#390F7C"/>
<stop offset="0.1919" stop-color="#8111D1"/>
<stop offset="0.3324" stop-color="#EA0AEA"/>
<stop offset="0.5216" stop-color="#EDD107"/>
<stop offset="0.6243" stop-color="#21C152"/>
<stop offset="0.7649" stop-color="#06B6ED"/>
<stop offset="0.9108" stop-color="#004FCE"/>
<stop offset="1" stop-color="#001C93"/>
</linearGradient>
<linearGradient id="paint13_linear_709_17496" x1="33.6424" y1="122.096" x2="262.696" y2="-56.1832" gradientUnits="userSpaceOnUse">
<stop stop-color="#390F7C"/>
<stop offset="0.1919" stop-color="#8111D1"/>
<stop offset="0.3324" stop-color="#EA0AEA"/>
<stop offset="0.5216" stop-color="#EDD107"/>
<stop offset="0.6243" stop-color="#21C152"/>
<stop offset="0.7649" stop-color="#06B6ED"/>
<stop offset="0.9108" stop-color="#004FCE"/>
<stop offset="1" stop-color="#001C93"/>
</linearGradient>
<linearGradient id="paint14_linear_709_17496" x1="14.9688" y1="109.325" x2="277.902" y2="-52.2991" gradientUnits="userSpaceOnUse">
<stop stop-color="#390F7C"/>
<stop offset="0.1919" stop-color="#8111D1"/>
<stop offset="0.3324" stop-color="#EA0AEA"/>
<stop offset="0.5216" stop-color="#EDD107"/>
<stop offset="0.6243" stop-color="#21C152"/>
<stop offset="0.7649" stop-color="#06B6ED"/>
<stop offset="0.9108" stop-color="#004FCE"/>
<stop offset="1" stop-color="#001C93"/>
</linearGradient>
<linearGradient id="paint15_linear_709_17496" x1="-0.682047" y1="92.6987" x2="291.524" y2="-45.1966" gradientUnits="userSpaceOnUse">
<stop stop-color="#390F7C"/>
<stop offset="0.1919" stop-color="#8111D1"/>
<stop offset="0.3324" stop-color="#EA0AEA"/>
<stop offset="0.5216" stop-color="#EDD107"/>
<stop offset="0.6243" stop-color="#21C152"/>
<stop offset="0.7649" stop-color="#06B6ED"/>
<stop offset="0.9108" stop-color="#004FCE"/>
<stop offset="1" stop-color="#001C93"/>
</linearGradient>
<linearGradient id="paint16_linear_709_17496" x1="-11.2351" y1="76.7087" x2="304.177" y2="-31.5725" gradientUnits="userSpaceOnUse">
<stop stop-color="#390F7C"/>
<stop offset="0.1919" stop-color="#8111D1"/>
<stop offset="0.3324" stop-color="#EA0AEA"/>
<stop offset="0.5216" stop-color="#EDD107"/>
<stop offset="0.6243" stop-color="#21C152"/>
<stop offset="0.7649" stop-color="#06B6ED"/>
<stop offset="0.9108" stop-color="#004FCE"/>
<stop offset="1" stop-color="#001C93"/>
</linearGradient>
<linearGradient id="paint17_linear_709_17496" x1="-16.8965" y1="64.604" x2="314.49" y2="-9.66154" gradientUnits="userSpaceOnUse">
<stop stop-color="#390F7C"/>
<stop offset="0.1919" stop-color="#8111D1"/>
<stop offset="0.3324" stop-color="#EA0AEA"/>
<stop offset="0.5216" stop-color="#EDD107"/>
<stop offset="0.6243" stop-color="#21C152"/>
<stop offset="0.7649" stop-color="#06B6ED"/>
<stop offset="0.9108" stop-color="#004FCE"/>
<stop offset="1" stop-color="#001C93"/>
</linearGradient>
<linearGradient id="paint18_linear_709_17496" x1="-19.8622" y1="52.1201" x2="319.463" y2="14.5636" gradientUnits="userSpaceOnUse">
<stop stop-color="#390F7C"/>
<stop offset="0.1919" stop-color="#8111D1"/>
<stop offset="0.3324" stop-color="#EA0AEA"/>
<stop offset="0.5216" stop-color="#EDD107"/>
<stop offset="0.6243" stop-color="#21C152"/>
<stop offset="0.7649" stop-color="#06B6ED"/>
<stop offset="0.9108" stop-color="#004FCE"/>
<stop offset="1" stop-color="#001C93"/>
</linearGradient>
<linearGradient id="paint19_linear_709_17496" x1="-20.1673" y1="39.8577" x2="318.651" y2="39.8577" gradientUnits="userSpaceOnUse">
<stop stop-color="#390F7C"/>
<stop offset="0.1919" stop-color="#8111D1"/>
<stop offset="0.3324" stop-color="#EA0AEA"/>
<stop offset="0.5216" stop-color="#EDD107"/>
<stop offset="0.6243" stop-color="#21C152"/>
<stop offset="0.7649" stop-color="#06B6ED"/>
<stop offset="0.9108" stop-color="#004FCE"/>
<stop offset="1" stop-color="#001C93"/>
</linearGradient>
</defs>
</svg>
