<?xml version="1.0" encoding="utf-8"?>
<!-- Generator: Adobe Illustrator 22.1.0, SVG Export Plug-In . SVG Version: 6.00 Build 0)  -->
<svg version="1.1" id="Слой_1" xmlns="http://www.w3.org/2000/svg" xmlns:xlink="http://www.w3.org/1999/xlink" x="0px" y="0px"
	 viewBox="0 0 20 16" style="enable-background:new 0 0 20 16;" xml:space="preserve">
<style type="text/css">
	.st0{fill:#1C1C1C;}
</style>
<path class="st0" d="M17,14H3c-0.6,0-1-0.4-1-1V3.3l7.4,5.6C9.6,8.9,9.8,9,10,9s0.4-0.1,0.6-0.2L18,3.3V13C18,13.6,17.6,14,17,14z
	 M16.3,2L10,6.8L3.7,2H16.3z M17,0H3C1.3,0,0,1.3,0,3v10c0,1.7,1.3,3,3,3h14c1.7,0,3-1.3,3-3V3C20,1.3,18.7,0,17,0z"/>
</svg>
