<?xml version="1.0" encoding="utf-8"?>
<!-- Generator: Adobe Illustrator 22.1.0, SVG Export Plug-In . SVG Version: 6.00 Build 0)  -->
<svg version="1.1" id="Слой_1" xmlns="http://www.w3.org/2000/svg" xmlns:xlink="http://www.w3.org/1999/xlink" x="0px" y="0px"
	 viewBox="0 0 25 23.8" style="enable-background:new 0 0 25 23.8;" xml:space="preserve">
<style type="text/css">
	.st0{fill:url(#SVGID_1_);}
</style>
<linearGradient id="SVGID_1_" gradientUnits="userSpaceOnUse" x1="12.5" y1="27" x2="12.5" y2="3.25" gradientTransform="matrix(1 0 0 -1 0 27)">
	<stop  offset="0" style="stop-color:#1FDBCB"/>
	<stop  offset="1" style="stop-color:#09AFE9"/>
</linearGradient>
<path class="st0" d="M12.5,0C5.6,0,0,5.8,0,13v5.8c0,2.8,2.2,5,5,5s5-2.2,5-5s-2.2-5-5-5c-0.9,0-1.8,0.3-2.5,0.7V13
	c0-5.8,4.5-10.5,10-10.5c5.5,0,10,4.7,10,10.5v1.5c-0.7-0.4-1.6-0.7-2.5-0.7c-2.8,0-5,2.2-5,5s2.2,5,5,5s5-2.2,5-5V13
	C25,5.8,19.4,0,12.5,0z"/>
</svg>
