<?xml version="1.0" encoding="utf-8"?>
<!-- Generator: Adobe Illustrator 22.1.0, SVG Export Plug-In . SVG Version: 6.00 Build 0)  -->
<svg version="1.1" id="Слой_1" xmlns="http://www.w3.org/2000/svg" xmlns:xlink="http://www.w3.org/1999/xlink" x="0px" y="0px"
	 viewBox="0 0 20 20" style="enable-background:new 0 0 20 20;" xml:space="preserve">
<style type="text/css">
	.st0{fill:#1C1C1C;}
</style>
<path class="st0" d="M4.6,2C3.2,2,2,3.2,2,4.6C2,12,8,18,15.4,18c1.4,0,2.6-1.2,2.6-2.6c0-0.1,0-0.2,0-0.3L13.4,14
	c-0.1,0.2-0.2,0.4-0.3,0.5c-0.5,0.9-0.8,1.5-1.6,1.2c-3.3-1.2-6-3.9-7.2-7.2C3.9,7.7,4.6,7.4,5.5,6.9C5.6,6.8,5.8,6.7,6,6.6L4.9,2
	C4.8,2,4.7,2,4.6,2z M15.4,20C6.9,20,0,13.1,0,4.6C0,2.1,2.1,0,4.6,0c0.3,0,0.5,0,0.8,0.1c0.2,0,0.5,0.1,0.7,0.2
	C6.4,0.4,6.7,0.6,6.7,1l1.4,6c0.1,0.3,0,0.7-0.3,0.9C7.7,8,7.7,8,6.5,8.6c1,2.2,2.7,3.9,4.9,4.9c0.6-1.2,0.7-1.2,0.8-1.4
	c0.2-0.2,0.6-0.3,0.9-0.3l6,1.4c0.3,0.1,0.6,0.3,0.7,0.6c0.1,0.2,0.1,0.5,0.2,0.7c0,0.2,0.1,0.5,0.1,0.8C20,17.9,17.9,20,15.4,20z"
	/>
</svg>
