<?xml version="1.0" encoding="utf-8"?>
<!-- Generator: Adobe Illustrator 22.1.0, SVG Export Plug-In . SVG Version: 6.00 Build 0)  -->
<svg version="1.1" id="Слой_1" xmlns="http://www.w3.org/2000/svg" xmlns:xlink="http://www.w3.org/1999/xlink" x="0px" y="0px"
	 viewBox="0 0 132 132" style="enable-background:new 0 0 132 132;" xml:space="preserve">
<style type="text/css">
	.st0{fill:#fff; fill-opacity: 0.1; }
	.st1{fill:#9B9B9B; }
</style>
<g>
	<path class="st0" d="M132,66c0,36.5-29.5,66-66,66c-36.5,0-66-29.5-66-66C0,29.5,29.5,0,66,0C102.5,0,132,29.5,132,66z M29,66
		c0,20.4,16.6,37,37,37s37-16.6,37-37S86.4,29,66,29S29,45.6,29,66z"/>
</g>
<path class="st1" d="M51.1,119.1c-1.7-0.4-2.3-1.4-1.9-2.9c0.4-1.6,1.5-2.1,3.4-1.7l1.6,0.4l0.6-2.2l0.8,0.2l-1.8,6.8L51.1,119.1z
	 M52.4,115.3c-1.3-0.3-2.1,0-2.4,1.1c-0.3,1,0.2,1.7,1.4,2l1.8,0.5l0.8-3.2L52.4,115.3z"/>
<path class="st1" d="M47.4,110.4l-2.9,6.4l-0.8-0.3l2.6-5.7l-3.8-1.7l0.3-0.7L47.4,110.4z"/>
<path class="st1" d="M36.2,104l-0.3,1.8l2.9,2l1.6-1l0.8,0.5l-6.7,4.1l-0.4-0.3l1.4-7.7L36.2,104z M35,110.2l1.4-0.9l1.6-1.1
	l-2.3-1.6l-0.4,1.9L35,110.2z"/>
<path class="st1" d="M24.5,102.6l5.2-1.4l1.7-1.7l0.6,0.6l-1.7,1.7l-1.4,5.2l-0.7-0.7l1.2-4.1l-4.1,1.2L24.5,102.6z"/>
<path class="st1" d="M15.9,89.2l-0.4-0.8l7.8-0.5l0.2,0.4l-4.8,6.1l-0.4-0.8l2.9-3.6l1-1.2l-1.6,0.1L15.9,89.2z"/>
<path class="st1" d="M20.9,82.6l-6.6,2.3L14,84.1l6.6-2.3L20.9,82.6z"/>
<path class="st1" d="M19.3,77.4l-6.9,1.3l-0.5-2.5c-0.2-1.1-0.1-2,0.4-2.7c0.5-0.7,1.2-1.1,2.4-1.4c1.1-0.2,2-0.1,2.8,0.4
	c0.7,0.5,1.2,1.2,1.4,2.3L19.3,77.4z M18.4,76.7L18.1,75c-0.1-0.8-0.5-1.3-1.1-1.7c-0.6-0.4-1.3-0.5-2.2-0.3c-0.9,0.2-1.5,0.5-1.8,1
	c-0.4,0.5-0.5,1.2-0.3,2l0.3,1.6L18.4,76.7z"/>
<path class="st1" d="M18.1,68.3l-7,0l0-4.8l0.8,0l0,4l2.4,0l0-3.3l0.8,0l0,3.3l2.3,0l0-4.2l0.8,0L18.1,68.3z"/>
<path class="st1" d="M19.3,56.6c-0.2,1.1-0.7,1.9-1.5,2.4s-1.7,0.7-2.8,0.5c-1.1-0.2-1.8-0.7-2.4-1.5c-0.5-0.8-0.7-1.7-0.5-2.8
	c0.2-1.1,0.7-1.9,1.5-2.4c0.8-0.6,1.7-0.7,2.8-0.5c1,0.2,1.8,0.7,2.4,1.5C19.3,54.5,19.5,55.5,19.3,56.6z M18.5,56.4
	c0.2-0.8,0-1.5-0.4-2.2c-0.4-0.6-1-1-1.9-1.2c-0.8-0.2-1.5,0-2.2,0.4c-0.6,0.4-1,1-1.2,1.9c-0.2,0.8,0,1.5,0.4,2.2
	c0.4,0.6,1,1,1.9,1.2c0.8,0.2,1.5,0,2.2-0.4C18,57.9,18.4,57.3,18.5,56.4z"/>
<path class="st1" d="M26.2,28.9c1.2-1.3,2.3-1.4,3.5-0.3c1.2,1.1,1.1,2.4-0.1,3.8l-1.1,1.2l1.6,1.5l-0.6,0.6L24.3,31L26.2,28.9z
	 M28.9,31.9c0.9-1,1-1.9,0.2-2.6c-0.8-0.7-1.6-0.6-2.4,0.2l-1.3,1.4l2.4,2.2L28.9,31.9z"/>
<path class="st1" d="M35.5,29.8l-4.3-5.6l0.7-0.5l3.8,5l3.3-2.5l0.5,0.6L35.5,29.8z"/>
<path class="st1" d="M46.5,23l-1.5-1.2l-3.1,1.6l0.1,1.9l-0.8,0.4L40.8,18l0.4-0.2l6.1,4.9L46.5,23z M41.6,19l0.1,1.6l0.2,1.9
	l2.5-1.3l-1.5-1.3L41.6,19z"/>
<path class="st1" d="M53.3,13.4l-1.2,5.2l0.7,2.3L52,21.1l-0.7-2.3l-3.9-3.7l1-0.3l3.1,3l0.9-4.2L53.3,13.4z"/>
<path class="st1" d="M69.2,12.1l0.9,0l-3.2,7.1l-0.5,0l-3.1-7.2l0.9,0l1.8,4.3l0.6,1.5l0.7-1.5L69.2,12.1z"/>
<path class="st1" d="M72.6,19.7l1.1-7l0.9,0.1l-1.1,7L72.6,19.7z"/>
<path class="st1" d="M78,20.8l2.2-6.7l2.4,0.8c1,0.3,1.8,0.9,2.2,1.6c0.4,0.7,0.4,1.6,0.1,2.7c-0.3,1.1-0.9,1.8-1.6,2.2
	c-0.8,0.4-1.7,0.5-2.7,0.1L78,20.8z M79,20.3l1.6,0.5c0.7,0.2,1.4,0.2,2-0.1c0.6-0.3,1-0.9,1.3-1.8c0.3-0.8,0.3-1.5,0-2.1
	c-0.3-0.6-0.8-1-1.6-1.2L80.7,15L79,20.3z"/>
<path class="st1" d="M86.6,24l3.4-6.2l4.2,2.3l-0.4,0.7l-3.5-1.9L89.2,21l2.9,1.6l-0.4,0.7l-2.9-1.6l-1.1,2l3.7,2l-0.4,0.7L86.6,24z
	"/>
<path class="st1" d="M96.3,30.6c-0.8-0.7-1.3-1.5-1.4-2.5c-0.1-1,0.2-1.9,0.9-2.7c0.7-0.8,1.5-1.3,2.5-1.4c1-0.1,1.9,0.2,2.7,0.9
	c0.8,0.7,1.3,1.5,1.4,2.5c0.1,1-0.2,1.9-0.9,2.7c-0.7,0.8-1.5,1.3-2.5,1.4C98,31.6,97.1,31.3,96.3,30.6z M96.8,30
	c0.6,0.5,1.3,0.8,2.1,0.7c0.7-0.1,1.4-0.4,1.9-1.1c0.5-0.6,0.8-1.3,0.7-2.1c-0.1-0.8-0.4-1.4-1.1-1.9c-0.6-0.5-1.3-0.8-2.1-0.7
	C97.6,25,97,25.3,96.4,26c-0.5,0.6-0.8,1.3-0.7,2.1C95.8,28.8,96.1,29.5,96.8,30z"/>
<path class="st1" d="M119,56.1c0.4,1.7-0.2,2.7-1.8,3c-1.6,0.3-2.6-0.4-3-2.3l-0.4-1.6l-2.2,0.5l-0.2-0.8l6.9-1.5L119,56.1z
	 M115,56.6c0.3,1.3,1,1.9,2,1.6c1.1-0.2,1.4-0.9,1.2-2.1l-0.4-1.8l-3.2,0.7L115,56.6z"/>
<path class="st1" d="M112.9,63.2l7-0.3l0,0.8l-6.3,0.3l0.2,4.1l-0.8,0L112.9,63.2z"/>
<path class="st1" d="M112.1,76.1l1.8-0.5l0.5-3.5l-1.6-1l0.1-0.9l6.6,4.1l-0.1,0.5L112,77L112.1,76.1z M118.2,74.4l-1.4-0.9l-1.7-1
	l-0.4,2.8l1.9-0.5L118.2,74.4z"/>
<path class="st1" d="M116.1,87.2l-3.5-4l-2.3-0.8l0.3-0.8l2.3,0.8l5.2-1l-0.3,0.9l-4.2,0.8l2.9,3.2L116.1,87.2z"/>
<path class="st1" d="M107.9,100.9l-0.5,0.8l-4-6.7l0.3-0.4l7.6,1.6l-0.5,0.8l-4.5-1l-1.6-0.4l0.8,1.4L107.9,100.9z"/>
<path class="st1" d="M99.8,99.4l5.1,4.9l-0.6,0.6l-5.1-4.9L99.8,99.4z"/>
<path class="st1" d="M95.8,103.1l4.2,5.6l-2,1.5c-0.9,0.7-1.7,0.9-2.6,0.8c-0.8-0.1-1.6-0.6-2.3-1.5c-0.7-0.9-1-1.8-0.9-2.6
	c0.1-0.9,0.6-1.6,1.4-2.3L95.8,103.1z M95.6,104.3l-1.4,1c-0.6,0.5-1,1-1,1.7c-0.1,0.7,0.2,1.4,0.7,2.1c0.5,0.7,1.1,1.1,1.7,1.2
	c0.6,0.1,1.3-0.1,2-0.6l1.3-1L95.6,104.3z"/>
<path class="st1" d="M88.2,108.3l3.1,6.3l-4.3,2.1l-0.3-0.7l3.5-1.8l-1.1-2.1l-3,1.5l-0.3-0.7l3-1.5l-1-2.1l-3.7,1.8l-0.3-0.7
	L88.2,108.3z"/>
<path class="st1" d="M77.2,112.4c1-0.3,2-0.2,2.8,0.3c0.8,0.5,1.4,1.2,1.7,2.3c0.3,1,0.2,2-0.3,2.8c-0.5,0.8-1.3,1.4-2.3,1.7
	c-1,0.3-2,0.2-2.8-0.3c-0.9-0.4-1.4-1.2-1.7-2.3c-0.3-1-0.2-2,0.3-2.8C75.4,113.3,76.1,112.7,77.2,112.4z M77.4,113.2
	c-0.8,0.2-1.4,0.6-1.8,1.3s-0.5,1.4-0.2,2.2c0.2,0.8,0.7,1.4,1.3,1.8c0.7,0.4,1.4,0.5,2.2,0.2c0.8-0.2,1.4-0.6,1.8-1.3
	c0.4-0.6,0.5-1.4,0.2-2.2c-0.2-0.8-0.7-1.4-1.3-1.8C79,113,78.3,112.9,77.4,113.2z"/>
</svg>
