<svg width="312" height="100" viewBox="0 0 312 100" fill="none" xmlns="http://www.w3.org/2000/svg">
<rect width="312" height="100" rx="12" fill="url(#paint0_linear_469:1432)"/>
<path d="M97.72 67V38.64H103.44V61.68H118.28V67H97.72ZM134.693 67.56C130.239 67.56 126.586 66.2133 123.733 63.52C120.906 60.8 119.493 57.24 119.493 52.84C119.493 48.4933 120.879 44.9467 123.653 42.2C126.453 39.4533 130.133 38.08 134.693 38.08C139.173 38.08 142.839 39.44 145.693 42.16C148.546 44.88 149.973 48.44 149.973 52.84C149.973 57.16 148.559 60.6933 145.733 63.44C142.933 66.1867 139.253 67.56 134.693 67.56ZM134.693 62.24C137.439 62.24 139.679 61.3867 141.413 59.68C143.173 57.9467 144.053 55.6667 144.053 52.84C144.053 50.0667 143.199 47.8 141.493 46.04C139.786 44.28 137.519 43.4 134.693 43.4C131.973 43.4 129.733 44.2667 127.973 46C126.239 47.7333 125.373 50.0133 125.373 52.84C125.373 55.6133 126.226 57.88 127.933 59.64C129.666 61.3733 131.919 62.24 134.693 62.24ZM167.402 51.44H181.442V63.36C178.562 66.16 174.495 67.56 169.242 67.56C164.335 67.56 160.442 66.24 157.562 63.6C154.708 60.96 153.282 57.3733 153.282 52.84C153.282 48.3333 154.682 44.7467 157.482 42.08C160.282 39.4133 164.002 38.08 168.642 38.08C173.522 38.08 177.428 39.44 180.362 42.16L176.802 46.16C174.695 44.32 171.988 43.4 168.682 43.4C165.802 43.4 163.495 44.2533 161.762 45.96C160.028 47.6667 159.162 49.96 159.162 52.84C159.162 55.8267 160.082 58.16 161.922 59.84C163.762 61.52 166.268 62.36 169.442 62.36C172.242 62.36 174.468 61.7467 176.122 60.52V56.4H167.402V51.44ZM199.693 67.56C195.239 67.56 191.586 66.2133 188.733 63.52C185.906 60.8 184.493 57.24 184.493 52.84C184.493 48.4933 185.879 44.9467 188.653 42.2C191.453 39.4533 195.133 38.08 199.693 38.08C204.173 38.08 207.839 39.44 210.693 42.16C213.546 44.88 214.973 48.44 214.973 52.84C214.973 57.16 213.559 60.6933 210.733 63.44C207.933 66.1867 204.253 67.56 199.693 67.56ZM199.693 62.24C202.439 62.24 204.679 61.3867 206.413 59.68C208.173 57.9467 209.053 55.6667 209.053 52.84C209.053 50.0667 208.199 47.8 206.493 46.04C204.786 44.28 202.519 43.4 199.693 43.4C196.973 43.4 194.733 44.2667 192.973 46C191.239 47.7333 190.373 50.0133 190.373 52.84C190.373 55.6133 191.226 57.88 192.933 59.64C194.666 61.3733 196.919 62.24 199.693 62.24Z" fill="#1F1F1F"/>
<defs>
<linearGradient id="paint0_linear_469:1432" x1="5.32718" y1="6.94064" x2="230.634" y2="185.069" gradientUnits="userSpaceOnUse">
<stop stop-color="#DDDADD"/>
<stop offset="1" stop-color="#C1CAC9"/>
</linearGradient>
</defs>
</svg>
