<svg width="154" height="392" viewBox="0 0 154 392" fill="none" xmlns="http://www.w3.org/2000/svg">
<path d="M94.145 -66.9053C94.145 -66.9053 112.045 -20.3558 90.6022 3.53402C69.1598 27.4238 17.0126 65.4459 51.1496 103.244C85.2866 141.041 109.931 127.435 121.375 160.435C132.819 193.436 130.411 230.361 86.6802 237.95C42.9492 245.539 33.9714 289.47 44.7202 324.923C55.4691 360.377 94.4247 426.139 94.4247 426.139" stroke="url(#paint0_linear_637_7981)" stroke-width="0.5" stroke-miterlimit="10"/>
<path d="M93.5723 426.775C93.3808 426.659 53.9454 363.166 42.9815 327.896C33.0543 296.018 40.509 258.688 73.987 246.279C77.8091 244.875 81.9145 243.694 86.3873 242.942C129.62 235.314 133.355 198.093 119.715 166.223C109.459 142.344 94.9567 141.803 76.9869 129.253C70.522 124.731 63.2252 118.038 55.1144 107.669C45.2745 95.0569 43.6799 82.192 45.934 70.1317C49.0871 53.0265 61.2336 37.6329 73.055 23.8186C78.689 17.2408 84.4909 11.0774 89.0495 5.41789C98.4892 -6.17657 100.459 -22.2715 98.8828 -36.6397C97.0435 -54.0379 91.7447 -66.9941 91.7447 -66.9941" stroke="url(#paint1_linear_637_7981)" stroke-width="0.5" stroke-miterlimit="10"/>
<path d="M92.6124 427.501C92.2293 427.271 52.2145 366.039 41.0433 330.853C30.8172 298.951 39.5733 262.928 73.4029 251.148C77.2171 249.844 81.3147 248.762 85.7954 247.911C128.621 240.351 133.492 202.718 117.757 171.987C105.583 148.257 91.9801 146.484 77.3078 134.093C72.0393 129.666 65.9701 122.667 58.872 112.178C50.1601 99.2535 49.1111 85.8297 50.468 73.6988C52.3487 56.1924 62.1551 41.2163 72.4129 26.8776C77.2572 20.1372 82.7915 13.5515 87.2739 7.58512C96.2466 -4.44738 98.6469 -20.9097 96.8027 -35.7002C94.5592 -54.334 89.2211 -66.7917 89.2211 -66.7917" stroke="url(#paint2_linear_637_7981)" stroke-width="0.5" stroke-miterlimit="10"/>
<path d="M91.6599 428.128C91.185 427.79 50.5909 368.82 39.2046 333.818C28.6793 301.892 38.6372 267.167 73.0179 256.033C76.8242 254.828 80.9218 253.747 85.4025 252.896C127.73 245.297 133.828 207.358 115.997 177.767C101.898 154.287 89.2024 151.18 77.7282 138.941C73.6559 134.608 68.8066 127.405 62.7368 116.595C55.2526 103.366 54.6574 89.2759 55.0173 77.0665C55.6256 59.1589 63.0999 44.5007 71.7783 29.8369C75.8329 22.934 81.0917 16.0257 85.5137 9.553C94.1269 -3.00936 96.8498 -19.7472 94.7459 -35.0598C92.0063 -55.0366 86.7207 -66.8883 86.7207 -66.8883" stroke="url(#paint3_linear_637_7981)" stroke-width="0.5" stroke-miterlimit="10"/>
<path d="M90.7079 428.756C90.0415 428.302 48.9676 371.601 37.2665 336.775C26.4422 304.826 37.7015 271.407 72.5335 260.91C76.4395 259.713 80.5293 258.731 84.9024 257.972C126.823 250.441 133.858 212.075 114.23 183.646C98.0135 160.3 86.3255 155.869 78.1489 143.789C75.2729 139.55 71.6513 132.043 66.6938 121.12C60.4373 107.586 60.288 92.9294 59.7586 80.5496C59.0026 62.1333 64.2287 48.0001 71.3434 32.8119C74.7081 25.7544 79.5917 18.5156 83.9532 11.5365C92.0994 -1.46387 95.2525 -18.5691 92.8809 -34.3039C89.7371 -55.5163 84.3126 -66.8774 84.3126 -66.8774" stroke="url(#paint4_linear_637_7981)" stroke-width="0.5" stroke-miterlimit="10"/>
<path d="M89.7556 429.383C88.8976 428.814 47.3441 374.382 35.4358 339.64C24.3202 307.568 36.7813 275.447 72.0567 265.687C75.9549 264.59 80.0447 263.608 84.3181 262.841C125.741 255.271 133.804 216.585 112.279 189.31C94.0373 166.206 83.3643 160.35 78.4775 148.53C76.8057 144.285 74.4039 136.573 70.4669 125.429C65.4381 111.591 65.635 96.3599 64.308 83.9173C62.2796 65.0998 65.1657 51.3841 70.7168 35.6716C73.2918 28.4515 77.9077 20.7903 82.201 13.4047C89.9798 -0.0258902 93.4555 -17.4066 90.832 -33.7631C87.284 -56.2111 81.8202 -67.0738 81.8202 -67.0738" stroke="url(#paint5_linear_637_7981)" stroke-width="0.5" stroke-miterlimit="10"/>
<path d="M88.9032 430.018C87.8537 429.333 45.7208 377.163 33.5974 342.604C22.1828 310.509 35.8456 279.687 71.672 270.572C75.5624 269.575 79.6521 268.593 83.9256 267.826C124.85 260.216 133.833 221.302 110.52 195.09C90.1532 172.22 80.5109 164.739 78.9979 153.385C78.4305 149.128 77.3483 141.218 74.424 129.954C70.6229 115.812 71.1659 100.006 68.9496 87.3925C65.5569 68.0664 66.1948 54.8757 70.282 38.6466C72.0673 31.264 76.4077 23.2802 80.6327 15.488C88.0441 1.6272 91.7507 -16.1366 88.9591 -32.9076C84.9072 -56.599 79.496 -66.8556 79.496 -66.8556" stroke="url(#paint6_linear_637_7981)" stroke-width="0.5" stroke-miterlimit="10"/>
<path d="M87.9509 430.645C86.8096 429.853 44.0972 379.944 31.7588 345.569C20.0451 313.45 35.0172 283.834 71.2871 275.457C75.1696 274.559 79.2594 273.577 83.5328 272.81C124.05 265.269 133.863 226.019 108.761 200.87C86.261 178.333 75.6948 168.573 79.518 158.241C80.9445 154.141 80.3922 145.872 78.3886 134.379C75.8231 119.833 76.7123 103.452 73.6984 90.7759C68.9415 70.9411 67.4309 58.2833 69.8469 41.6216C70.9422 34.0844 74.9074 25.7701 79.072 17.4715C86.1161 3.18061 90.1531 -14.9584 87.1018 -32.2514C82.6456 -57.1784 77.1952 -66.9366 77.1952 -66.9366" stroke="url(#paint7_linear_637_7981)" stroke-width="0.5" stroke-miterlimit="10"/>
<path d="M86.9991 431.272C85.6662 430.365 42.4742 382.725 29.8288 348.426C17.816 316.284 33.9898 287.966 70.7111 280.226C74.6854 279.436 78.7673 278.554 82.9489 277.68C122.968 270.099 133.594 230.712 106.81 206.534C82.0858 184.223 75.1267 173.243 79.7474 162.974C81.6959 158.614 83.0456 150.394 82.0546 138.78C80.7168 123.929 81.9522 106.974 78.1408 94.2355C71.912 73.9838 68.2608 61.7592 69.1132 44.5731C69.4188 36.8733 73.2082 28.2443 77.2127 19.4316C83.8894 4.71045 88.2569 -13.8038 84.9379 -31.5191C79.9779 -57.6895 74.4881 -66.9492 74.4881 -66.9492" stroke="url(#paint8_linear_637_7981)" stroke-width="0.5" stroke-miterlimit="10"/>
<path d="M86.0466 431.899C84.5223 430.876 40.8505 385.507 27.99 351.391C15.7778 319.233 33.0616 292.106 70.326 285.111C74.3004 284.321 78.3744 283.539 82.5481 282.764C122.16 275.252 133.516 235.521 105.043 212.413C78.0781 190.528 72.656 177.863 80.2674 167.83C83.5197 163.472 85.9896 155.04 86.0191 143.205C86.0165 127.958 87.4905 110.52 82.7898 97.611C75.1968 76.8506 69.3971 65.159 68.5861 47.4406C68.2018 39.5861 71.6159 30.6266 75.5521 21.4072C81.8615 6.25595 86.5595 -12.6334 82.881 -30.8787C77.5246 -58.3843 71.9878 -67.0459 71.9878 -67.0459" stroke="url(#paint9_linear_637_7981)" stroke-width="0.5" stroke-miterlimit="10"/>
<path d="M85.1941 432.534C83.4861 431.296 39.227 388.288 26.1515 354.356C13.6481 322.074 32.1257 296.346 69.9412 289.996C73.9077 289.306 77.9817 288.523 82.1555 287.748C121.269 280.197 133.43 240.429 103.283 218.193C73.9866 196.625 70.293 182.391 80.688 172.678C85.2363 168.422 88.4354 159.646 89.8762 147.722C91.6995 132.218 92.9216 114.158 87.4234 101.186C78.3585 80.0086 70.5179 68.7581 68.0435 50.5074C66.9692 42.4983 70.1079 33.2162 73.884 23.4826C79.9257 7.90903 84.7469 -11.2716 80.9083 -30.031C75.048 -58.78 69.5716 -66.9353 69.5716 -66.9353" stroke="url(#paint10_linear_637_7981)" stroke-width="0.5" stroke-miterlimit="10"/>
<path d="M84.2419 433.161C82.442 431.816 37.6036 391.069 24.3129 357.321C11.5105 325.016 31.2974 300.494 69.4567 294.873C73.515 294.29 77.589 293.508 81.6631 292.725C120.378 285.142 133.245 245.33 101.524 223.973C69.9868 202.831 67.8225 187.012 81.2082 177.534C87.1522 173.388 91.878 164.331 93.8409 152.147C96.4013 136.199 98.4681 117.604 92.1723 104.569C81.7353 82.983 71.754 72.1658 67.6164 53.3828C65.8442 45.3187 68.6155 35.6064 72.3312 25.3665C78.0056 9.36275 83.1573 -10.1931 79.051 -29.3748C72.6868 -59.3672 67.1633 -66.9244 67.1633 -66.9244" stroke="url(#paint11_linear_637_7981)" stroke-width="0.5" stroke-miterlimit="10"/>
<path d="M83.282 433.888C81.2906 432.427 35.9725 393.95 22.4746 360.285C9.37307 327.957 30.3696 304.634 69.072 299.758C73.1225 299.275 77.1965 298.492 81.2706 297.71C119.479 290.187 133.059 250.23 99.7647 229.752C65.9874 209.036 65.3522 191.632 81.6289 182.382C88.8689 178.338 94.7228 168.969 97.6983 156.664C101.486 140.412 103.899 121.242 96.7142 108.037C84.8133 85.9339 72.7832 75.6574 66.9743 56.4418C64.5122 48.2231 67.008 38.1881 70.5557 27.5338C75.9546 11.2074 81.3449 -8.8312 76.9789 -28.5349C70.1108 -59.7708 64.6476 -66.8216 64.6476 -66.8216" stroke="url(#paint12_linear_637_7981)" stroke-width="0.5" stroke-miterlimit="10"/>
<path d="M82.3298 434.515C80.1468 432.939 34.349 396.731 20.5364 363.242C7.1436 330.79 29.4416 308.774 68.5875 304.635C72.6301 304.251 76.7041 303.469 80.7782 302.686C118.488 295.125 132.874 255.131 97.8978 235.624C61.7726 215.424 62.6666 196.436 82.0416 187.329C90.4779 183.38 97.6591 173.714 101.555 161.181C106.679 144.532 109.33 124.88 101.348 111.612C87.975 89.0919 74.0036 79.2643 66.4318 59.5087C63.1799 51.1274 65.4999 40.7776 68.8875 29.6092C73.919 12.8526 79.5402 -7.56906 75.0062 -27.6873C67.7338 -60.1587 62.2314 -66.7111 62.2314 -66.7111" stroke="url(#paint13_linear_637_7981)" stroke-width="0.5" stroke-miterlimit="10"/>
<path d="M81.4775 435.15C79.103 433.459 32.7258 399.512 18.7977 366.215C5.09803 333.839 28.5059 313.013 68.195 309.62C72.2376 309.236 76.2959 308.653 80.3778 307.771C117.682 300.277 132.773 260.239 96.1308 241.503C57.7574 221.829 60.0888 201.148 82.4624 192.177C92.2024 188.23 100.604 178.359 105.413 165.698C111.764 148.744 114.662 128.51 105.989 115.087C91.0529 92.0427 75.0485 82.5565 65.8054 62.3683C61.8715 53.7327 63.9081 43.16 67.1356 31.4773C71.8994 14.2984 77.7435 -6.40656 72.9576 -27.1465C65.1813 -60.8613 59.6397 -66.9152 59.6397 -66.9152" stroke="url(#paint14_linear_637_7981)" stroke-width="0.5" stroke-miterlimit="10"/>
<path d="M80.5253 435.778C77.9593 433.971 31.1023 402.293 16.8673 369.072C2.8686 336.673 27.5858 317.053 67.7183 314.397C71.8528 314.121 75.9111 313.538 79.8855 312.747C116.691 305.215 132.579 265.239 94.2717 247.275C53.5426 228.217 57.411 205.852 82.8829 197.025C93.919 193.18 103.448 182.997 109.278 170.115C116.956 152.865 120.093 132.147 110.539 118.455C94.3144 95.2087 76.1772 86.056 65.3704 65.3433C60.7465 56.553 62.4158 45.5502 65.575 33.4609C70.0712 15.8597 76.0464 -5.23623 71.0924 -26.3906C62.8123 -61.3489 57.331 -66.8965 57.331 -66.8965" stroke="url(#paint15_linear_637_7981)" stroke-width="0.5" stroke-miterlimit="10"/>
<path d="M79.5727 436.405C76.9148 434.49 29.4785 405.074 15.0284 372.037C0.738469 339.514 26.6574 321.193 67.3331 319.282C71.4597 319.105 75.518 318.522 79.4924 317.732C115.899 310.168 132.485 270.247 92.512 253.055C49.5347 234.522 54.8405 210.465 83.4028 201.881C95.7348 198.138 106.484 187.75 113.234 174.64C122.24 157.093 125.623 135.793 115.272 122.037C97.5754 98.3746 77.5048 89.5712 64.9194 68.5177C59.6054 59.5728 60.9992 48.2473 63.9904 35.7436C68.2189 17.72 74.425 -3.75897 69.2112 -25.4354C60.4272 -61.6371 55.0063 -66.6783 55.0063 -66.6783" stroke="url(#paint16_linear_637_7981)" stroke-width="0.5" stroke-miterlimit="10"/>
<path d="M78.6208 437.032C75.7714 435.002 27.8554 407.855 13.0905 374.994C-1.49853 342.448 25.63 325.325 66.7492 324.151C70.8679 324.074 74.9263 323.491 78.8009 322.693C114.701 315.189 132.093 275.232 90.4539 258.811C45.1209 240.895 51.9715 215.053 83.5245 206.706C97.0529 203.057 109.129 192.372 116.801 179.034C127.134 161.19 130.664 139.3 119.622 125.389C100.454 101.31 78.3425 92.9473 64.0937 71.3616C58.0898 62.262 59.2081 50.6139 62.0392 37.596C66.0001 19.1501 72.3293 -2.62008 66.9555 -24.8107C57.6675 -62.2557 52.2993 -66.691 52.2993 -66.691" stroke="url(#paint17_linear_637_7981)" stroke-width="0.5" stroke-miterlimit="10"/>
<path d="M77.6685 437.659C74.6276 435.514 26.1322 410.628 11.2598 377.859C-3.62835 345.289 24.7176 329.266 66.3721 328.936C70.4909 328.859 74.5414 328.376 78.416 327.578C113.818 320.035 132.007 280.14 88.802 264.499C41.2129 247.208 49.4931 219.773 84.1523 211.47C98.9766 207.923 112.181 196.926 120.865 183.466C132.426 165.318 136.302 142.853 124.371 128.773C103.731 104.276 79.5943 96.1555 63.6744 74.1372C56.9805 64.883 57.8232 52.9122 60.4942 39.3801C64.0877 20.5041 70.7475 -1.6413 65.106 -24.2542C55.3141 -62.9427 49.9066 -66.8795 49.9066 -66.8795" stroke="url(#paint18_linear_637_7981)" stroke-width="0.5" stroke-miterlimit="10"/>
<path d="M76.816 438.294C73.6832 436.041 24.6084 413.417 9.42122 380.824C-5.76597 348.23 23.8814 333.513 65.9873 333.821C108.093 334.129 136.888 286.944 87.0426 270.278C37.1975 253.612 46.831 224.278 84.5806 216.218C122.33 208.158 151.14 156.962 129.02 132.148C106.901 107.335 80.7308 99.5553 63.1397 77.1045C45.5485 54.6536 73.2375 16.41 63.0414 -23.514C52.8454 -63.4381 47.3986 -66.8765 47.3986 -66.8765" stroke="url(#paint19_linear_637_7981)" stroke-width="0.5" stroke-miterlimit="10"/>
<defs>
<linearGradient id="paint0_linear_637_7981" x1="190.207" y1="133.925" x2="-4.70823" y2="226.877" gradientUnits="userSpaceOnUse">
<stop stop-color="#390F7C"/>
<stop offset="0.1919" stop-color="#8111D1"/>
<stop offset="0.3324" stop-color="#EA0AEA"/>
<stop offset="0.5216" stop-color="#EDD107"/>
<stop offset="0.6243" stop-color="#21C152"/>
<stop offset="0.7649" stop-color="#06B6ED"/>
<stop offset="0.9108" stop-color="#004FCE"/>
<stop offset="1" stop-color="#001C93"/>
</linearGradient>
<linearGradient id="paint1_linear_637_7981" x1="168.708" y1="153.575" x2="2.08028" y2="211.535" gradientUnits="userSpaceOnUse">
<stop stop-color="#390F7C"/>
<stop offset="0.1919" stop-color="#8111D1"/>
<stop offset="0.3324" stop-color="#EA0AEA"/>
<stop offset="0.5216" stop-color="#EDD107"/>
<stop offset="0.6243" stop-color="#21C152"/>
<stop offset="0.7649" stop-color="#06B6ED"/>
<stop offset="0.9108" stop-color="#004FCE"/>
<stop offset="1" stop-color="#001C93"/>
</linearGradient>
<linearGradient id="paint2_linear_637_7981" x1="144.426" y1="168.135" x2="10.2875" y2="198.769" gradientUnits="userSpaceOnUse">
<stop stop-color="#390F7C"/>
<stop offset="0.1919" stop-color="#8111D1"/>
<stop offset="0.3324" stop-color="#EA0AEA"/>
<stop offset="0.5216" stop-color="#EDD107"/>
<stop offset="0.6243" stop-color="#21C152"/>
<stop offset="0.7649" stop-color="#06B6ED"/>
<stop offset="0.9108" stop-color="#004FCE"/>
<stop offset="1" stop-color="#001C93"/>
</linearGradient>
<linearGradient id="paint3_linear_637_7981" x1="122.188" y1="176.883" x2="20.5619" y2="188.548" gradientUnits="userSpaceOnUse">
<stop stop-color="#390F7C"/>
<stop offset="0.1919" stop-color="#8111D1"/>
<stop offset="0.3324" stop-color="#EA0AEA"/>
<stop offset="0.5216" stop-color="#EDD107"/>
<stop offset="0.6243" stop-color="#21C152"/>
<stop offset="0.7649" stop-color="#06B6ED"/>
<stop offset="0.9108" stop-color="#004FCE"/>
<stop offset="1" stop-color="#001C93"/>
</linearGradient>
<linearGradient id="paint4_linear_637_7981" x1="124.769" y1="180.828" x2="32.5711" y2="181.202" gradientUnits="userSpaceOnUse">
<stop stop-color="#390F7C"/>
<stop offset="0.1919" stop-color="#8111D1"/>
<stop offset="0.3324" stop-color="#EA0AEA"/>
<stop offset="0.5216" stop-color="#EDD107"/>
<stop offset="0.6243" stop-color="#21C152"/>
<stop offset="0.7649" stop-color="#06B6ED"/>
<stop offset="0.9108" stop-color="#004FCE"/>
<stop offset="1" stop-color="#001C93"/>
</linearGradient>
<linearGradient id="paint5_linear_637_7981" x1="128.181" y1="185.805" x2="45.8732" y2="177.033" gradientUnits="userSpaceOnUse">
<stop stop-color="#390F7C"/>
<stop offset="0.1919" stop-color="#8111D1"/>
<stop offset="0.3324" stop-color="#EA0AEA"/>
<stop offset="0.5216" stop-color="#EDD107"/>
<stop offset="0.6243" stop-color="#21C152"/>
<stop offset="0.7649" stop-color="#06B6ED"/>
<stop offset="0.9108" stop-color="#004FCE"/>
<stop offset="1" stop-color="#001C93"/>
</linearGradient>
<linearGradient id="paint6_linear_637_7981" x1="140.845" y1="194.072" x2="27.3174" y2="169.114" gradientUnits="userSpaceOnUse">
<stop stop-color="#390F7C"/>
<stop offset="0.1919" stop-color="#8111D1"/>
<stop offset="0.3324" stop-color="#EA0AEA"/>
<stop offset="0.5216" stop-color="#EDD107"/>
<stop offset="0.6243" stop-color="#21C152"/>
<stop offset="0.7649" stop-color="#06B6ED"/>
<stop offset="0.9108" stop-color="#004FCE"/>
<stop offset="1" stop-color="#001C93"/>
</linearGradient>
<linearGradient id="paint7_linear_637_7981" x1="163.033" y1="209.221" x2="1.73225" y2="154.577" gradientUnits="userSpaceOnUse">
<stop stop-color="#390F7C"/>
<stop offset="0.1919" stop-color="#8111D1"/>
<stop offset="0.3324" stop-color="#EA0AEA"/>
<stop offset="0.5216" stop-color="#EDD107"/>
<stop offset="0.6243" stop-color="#21C152"/>
<stop offset="0.7649" stop-color="#06B6ED"/>
<stop offset="0.9108" stop-color="#004FCE"/>
<stop offset="1" stop-color="#001C93"/>
</linearGradient>
<linearGradient id="paint8_linear_637_7981" x1="181.413" y1="229.24" x2="-20.036" y2="135.172" gradientUnits="userSpaceOnUse">
<stop stop-color="#390F7C"/>
<stop offset="0.1919" stop-color="#8111D1"/>
<stop offset="0.3324" stop-color="#EA0AEA"/>
<stop offset="0.5216" stop-color="#EDD107"/>
<stop offset="0.6243" stop-color="#21C152"/>
<stop offset="0.7649" stop-color="#06B6ED"/>
<stop offset="0.9108" stop-color="#004FCE"/>
<stop offset="1" stop-color="#001C93"/>
</linearGradient>
<linearGradient id="paint9_linear_637_7981" x1="194.991" y1="253.169" x2="-36.9982" y2="111.86" gradientUnits="userSpaceOnUse">
<stop stop-color="#390F7C"/>
<stop offset="0.1919" stop-color="#8111D1"/>
<stop offset="0.3324" stop-color="#EA0AEA"/>
<stop offset="0.5216" stop-color="#EDD107"/>
<stop offset="0.6243" stop-color="#21C152"/>
<stop offset="0.7649" stop-color="#06B6ED"/>
<stop offset="0.9108" stop-color="#004FCE"/>
<stop offset="1" stop-color="#001C93"/>
</linearGradient>
<linearGradient id="paint10_linear_637_7981" x1="203.029" y1="279.863" x2="-48.4008" y2="85.8004" gradientUnits="userSpaceOnUse">
<stop stop-color="#390F7C"/>
<stop offset="0.1919" stop-color="#8111D1"/>
<stop offset="0.3324" stop-color="#EA0AEA"/>
<stop offset="0.5216" stop-color="#EDD107"/>
<stop offset="0.6243" stop-color="#21C152"/>
<stop offset="0.7649" stop-color="#06B6ED"/>
<stop offset="0.9108" stop-color="#004FCE"/>
<stop offset="1" stop-color="#001C93"/>
</linearGradient>
<linearGradient id="paint11_linear_637_7981" x1="204.973" y1="308.125" x2="-53.8476" y2="58.3762" gradientUnits="userSpaceOnUse">
<stop stop-color="#390F7C"/>
<stop offset="0.1919" stop-color="#8111D1"/>
<stop offset="0.3324" stop-color="#EA0AEA"/>
<stop offset="0.5216" stop-color="#EDD107"/>
<stop offset="0.6243" stop-color="#21C152"/>
<stop offset="0.7649" stop-color="#06B6ED"/>
<stop offset="0.9108" stop-color="#004FCE"/>
<stop offset="1" stop-color="#001C93"/>
</linearGradient>
<linearGradient id="paint12_linear_637_7981" x1="198.956" y1="337.885" x2="-54.8146" y2="32.2846" gradientUnits="userSpaceOnUse">
<stop stop-color="#390F7C"/>
<stop offset="0.1919" stop-color="#8111D1"/>
<stop offset="0.3324" stop-color="#EA0AEA"/>
<stop offset="0.5216" stop-color="#EDD107"/>
<stop offset="0.6243" stop-color="#21C152"/>
<stop offset="0.7649" stop-color="#06B6ED"/>
<stop offset="0.9108" stop-color="#004FCE"/>
<stop offset="1" stop-color="#001C93"/>
</linearGradient>
<linearGradient id="paint13_linear_637_7981" x1="184.748" y1="367.109" x2="-51.817" y2="8.20846" gradientUnits="userSpaceOnUse">
<stop stop-color="#390F7C"/>
<stop offset="0.1919" stop-color="#8111D1"/>
<stop offset="0.3324" stop-color="#EA0AEA"/>
<stop offset="0.5216" stop-color="#EDD107"/>
<stop offset="0.6243" stop-color="#21C152"/>
<stop offset="0.7649" stop-color="#06B6ED"/>
<stop offset="0.9108" stop-color="#004FCE"/>
<stop offset="1" stop-color="#001C93"/>
</linearGradient>
<linearGradient id="paint14_linear_637_7981" x1="163.722" y1="393.193" x2="-44.3142" y2="-13.7894" gradientUnits="userSpaceOnUse">
<stop stop-color="#390F7C"/>
<stop offset="0.1919" stop-color="#8111D1"/>
<stop offset="0.3324" stop-color="#EA0AEA"/>
<stop offset="0.5216" stop-color="#EDD107"/>
<stop offset="0.6243" stop-color="#21C152"/>
<stop offset="0.7649" stop-color="#06B6ED"/>
<stop offset="0.9108" stop-color="#004FCE"/>
<stop offset="1" stop-color="#001C93"/>
</linearGradient>
<linearGradient id="paint15_linear_637_7981" x1="137.355" y1="414.366" x2="-32.2441" y2="-33.075" gradientUnits="userSpaceOnUse">
<stop stop-color="#390F7C"/>
<stop offset="0.1919" stop-color="#8111D1"/>
<stop offset="0.3324" stop-color="#EA0AEA"/>
<stop offset="0.5216" stop-color="#EDD107"/>
<stop offset="0.6243" stop-color="#21C152"/>
<stop offset="0.7649" stop-color="#06B6ED"/>
<stop offset="0.9108" stop-color="#004FCE"/>
<stop offset="1" stop-color="#001C93"/>
</linearGradient>
<linearGradient id="paint16_linear_637_7981" x1="112.52" y1="428.086" x2="-10.6583" y2="-50.1705" gradientUnits="userSpaceOnUse">
<stop stop-color="#390F7C"/>
<stop offset="0.1919" stop-color="#8111D1"/>
<stop offset="0.3324" stop-color="#EA0AEA"/>
<stop offset="0.5216" stop-color="#EDD107"/>
<stop offset="0.6243" stop-color="#21C152"/>
<stop offset="0.7649" stop-color="#06B6ED"/>
<stop offset="0.9108" stop-color="#004FCE"/>
<stop offset="1" stop-color="#001C93"/>
</linearGradient>
<linearGradient id="paint17_linear_637_7981" x1="93.9908" y1="435.037" x2="22.8898" y2="-62.8483" gradientUnits="userSpaceOnUse">
<stop stop-color="#390F7C"/>
<stop offset="0.1919" stop-color="#8111D1"/>
<stop offset="0.3324" stop-color="#EA0AEA"/>
<stop offset="0.5216" stop-color="#EDD107"/>
<stop offset="0.6243" stop-color="#21C152"/>
<stop offset="0.7649" stop-color="#06B6ED"/>
<stop offset="0.9108" stop-color="#004FCE"/>
<stop offset="1" stop-color="#001C93"/>
</linearGradient>
<linearGradient id="paint18_linear_637_7981" x1="75.2151" y1="437.963" x2="59.2333" y2="-67.3729" gradientUnits="userSpaceOnUse">
<stop stop-color="#390F7C"/>
<stop offset="0.1919" stop-color="#8111D1"/>
<stop offset="0.3324" stop-color="#EA0AEA"/>
<stop offset="0.5216" stop-color="#EDD107"/>
<stop offset="0.6243" stop-color="#21C152"/>
<stop offset="0.7649" stop-color="#06B6ED"/>
<stop offset="0.9108" stop-color="#004FCE"/>
<stop offset="1" stop-color="#001C93"/>
</linearGradient>
<linearGradient id="paint19_linear_637_7981" x1="57.0758" y1="436.987" x2="96.4821" y2="-63.2313" gradientUnits="userSpaceOnUse">
<stop stop-color="#390F7C"/>
<stop offset="0.1919" stop-color="#8111D1"/>
<stop offset="0.3324" stop-color="#EA0AEA"/>
<stop offset="0.5216" stop-color="#EDD107"/>
<stop offset="0.6243" stop-color="#21C152"/>
<stop offset="0.7649" stop-color="#06B6ED"/>
<stop offset="0.9108" stop-color="#004FCE"/>
<stop offset="1" stop-color="#001C93"/>
</linearGradient>
</defs>
</svg>
