<svg width="154" height="392" viewBox="0 0 154 392" fill="none" xmlns="http://www.w3.org/2000/svg">
<path d="M69.8424 -61.3403C69.8424 -61.3403 92.507 -16.9155 73.6777 9.08373C54.8484 35.0829 6.95882 78.3447 44.8578 112.369C82.7567 146.394 105.845 130.287 120.674 161.912C135.502 193.536 136.966 230.511 94.2667 242.627C51.5678 254.743 47.2285 299.371 61.6224 333.508C76.0163 367.644 121.629 428.977 121.629 428.977" stroke="url(#paint0_linear_637_8002)" stroke-width="0.5" stroke-miterlimit="10"/>
<path d="M73.002 -62.9231C72.8047 -62.818 82.8786 -37.0716 79.4155 -12.5731C78.3164 -4.84184 76.2073 2.5156 72.4701 8.81506C67.9618 16.235 62.08 24.691 56.5112 33.6391C46.042 50.3174 35.1084 72.2095 35.3902 90.7085C35.4908 98.4085 38.7929 106.125 46.2909 113.632C53.2761 120.653 60.417 125.969 67.4188 129.788C93.9032 144.203 110.971 142.758 121.032 168.004C133.551 199.289 133.968 234.49 92.4792 246.975C88.7091 248.173 85.1442 249.567 81.9843 251.149C50.3936 267.278 48.4103 306.343 60.7267 337.532C65.5377 349.411 73.9335 364.498 82.4213 379.282C98.4636 407.573 116.119 432.522 116.119 432.522" stroke="url(#paint1_linear_637_8002)" stroke-width="0.5" stroke-miterlimit="10"/>
<path d="M76.1593 -64.6059C75.7647 -64.3956 82.5267 -39.0631 77.9795 -13.9361C76.491 -5.79462 74.4897 1.8601 71.2575 8.34648C67.4594 16.148 62.9798 24.6676 58.9999 33.1741C51.5193 49.3744 42.4424 73.4189 39.6097 91.3988C38.4055 98.9327 40.8131 106.873 47.7165 114.596C54.3097 121.926 61.4636 127.742 69.173 131.843C96.1572 146.245 113.124 148.604 121.486 173.895C131.693 204.739 130.963 238.17 90.784 251.02C87.0139 252.219 83.6515 253.707 80.4943 255.39C49.8085 271.694 48.212 310.249 59.8287 341.457C64.2424 353.446 72.4304 368.238 79.8187 383.051C94.4796 412.079 110.31 436.074 110.31 436.074" stroke="url(#paint2_linear_637_8002)" stroke-width="0.5" stroke-miterlimit="10"/>
<path d="M79.3193 -66.1888C78.7273 -65.8732 82.18 -40.8547 76.6462 -15.2019C74.7683 -6.65006 72.7747 1.30456 70.1502 8.07521C66.9597 16.161 63.9821 24.7415 61.5965 33.0064C57.1019 48.6288 49.7843 74.9283 43.937 92.3865C41.4306 99.8543 43.0384 107.815 49.3499 115.853C55.4511 123.497 62.8179 129.807 71.1349 134.192C98.7215 148.679 115.488 154.844 122.145 179.979C130.142 210.482 128.266 242.141 89.1966 255.363C85.5265 256.559 82.1667 258.147 79.1095 259.827C49.326 276.208 48.2163 314.25 59.0332 345.479C63.1497 357.576 70.9326 372.178 77.5185 386.912C90.8008 416.776 104.9 439.617 104.9 439.617" stroke="url(#paint3_linear_637_8002)" stroke-width="0.5" stroke-miterlimit="10"/>
<path d="M82.4763 -67.8715C81.787 -67.4535 81.7279 -42.8436 75.21 -16.5649C72.9453 -7.50286 70.957 0.65169 68.9374 7.60664C66.4571 16.0741 64.879 24.6181 64.0877 32.6414C62.579 47.6858 57.0207 76.2403 48.1614 93.2768C44.3529 100.678 45.0636 108.763 50.8805 117.014C56.4896 124.971 63.9694 131.778 72.9914 136.345C101.078 150.818 117.841 160.685 122.601 185.97C128.283 215.932 125.363 245.918 87.5038 259.509C83.9363 260.802 80.6765 262.387 77.6218 264.167C48.8406 280.623 48.1152 318.054 58.2349 349.401C62.0515 361.506 69.4319 376.019 75.1156 390.676C86.9191 421.379 99.388 443.061 99.388 443.061" stroke="url(#paint4_linear_637_8002)" stroke-width="0.5" stroke-miterlimit="10"/>
<path d="M85.6365 -69.4544C84.7499 -68.9311 81.2789 -44.7325 73.777 -17.828C71.1228 -8.35564 69.2449 0.196166 67.7303 7.33803C65.8576 16.0898 65.7817 24.6947 66.5846 32.4764C67.9593 46.8455 64.163 77.7548 52.389 94.267C47.1783 101.605 47.092 109.81 52.3142 118.277C57.4313 126.547 65.1241 133.849 74.7537 138.7C103.443 153.257 120.002 166.831 123.06 192.06C126.53 221.579 122.466 249.895 85.8168 263.854C82.3492 265.145 79.192 266.828 76.1373 268.608C48.2584 285.139 48.0197 322.058 57.3398 353.426C60.8564 365.539 67.8344 379.962 72.6158 394.542C82.9433 426.184 93.6815 446.711 93.6815 446.711" stroke="url(#paint5_linear_637_8002)" stroke-width="0.5" stroke-miterlimit="10"/>
<path d="M88.7934 -71.1371C87.7094 -70.5087 80.8266 -46.7214 72.3407 -19.191C69.297 -9.30843 67.4269 -0.456724 66.52 6.96941C65.3574 16.1028 66.6784 24.5712 69.0782 32.2113C73.4388 46.0025 71.2019 79.172 56.6132 95.1573C50.0978 102.329 49.1144 110.658 53.8446 119.438C58.4697 128.02 66.2755 135.819 76.6126 140.952C105.804 155.597 122.357 172.772 123.618 198.147C124.973 227.122 119.568 253.872 84.229 268.197C80.864 269.585 77.7068 271.268 74.7546 273.145C47.878 289.751 48.0262 326.159 56.5491 357.648C59.8684 369.866 66.2414 384.105 70.2204 398.606C79.0719 431.186 88.1768 450.456 88.1768 450.456" stroke="url(#paint6_linear_637_8002)" stroke-width="0.5" stroke-miterlimit="10"/>
<path d="M91.9537 -72.7199C90.6724 -71.9863 80.3803 -48.5104 70.9077 -20.4541C67.3746 -10.1586 65.7123 -1.01226 65.3104 6.60079C64.858 16.1158 67.5786 24.5478 71.57 31.8464C78.814 44.9622 78.3364 80.3866 60.8357 95.9476C52.9181 103.056 51.1376 111.505 55.2732 120.501C59.4089 129.496 67.425 137.69 78.3698 143.107C108.064 157.839 124.71 178.612 123.972 204.04C123.21 232.37 116.566 257.651 82.4342 272.245C79.0692 273.633 76.1145 275.411 73.1624 277.288C47.1881 293.97 47.8231 329.866 55.6463 361.373C58.6657 373.598 64.6388 387.848 67.7129 402.172C74.991 435.794 82.5625 453.803 82.5625 453.803" stroke="url(#paint7_linear_637_8002)" stroke-width="0.5" stroke-miterlimit="10"/>
<path d="M95.1108 -74.4028C93.6348 -73.464 79.9282 -50.4993 69.4716 -21.8172C65.5517 -11.0115 63.9971 -1.56782 64.1002 6.23214C64.3555 16.0288 68.3781 24.5269 74.0638 31.5813C84.0938 44.1243 85.3755 81.8037 65.0602 96.8379C55.7379 103.783 53.1628 112.453 56.8012 121.561C60.4449 130.87 68.574 139.561 80.2263 145.259C110.422 160.078 127.163 184.45 124.528 210.028C121.651 237.812 113.766 261.525 80.7441 276.49C77.4817 277.976 74.527 279.753 71.6748 281.628C46.7027 298.384 47.722 333.67 54.748 365.297C57.4702 377.631 62.9382 391.693 65.21 405.939C70.9146 440.602 76.9503 457.25 76.9503 457.25" stroke="url(#paint8_linear_637_8002)" stroke-width="0.5" stroke-miterlimit="10"/>
<path d="M98.2707 -75.9856C96.5973 -74.9417 79.3789 -52.3856 68.0382 -23.0803C63.7289 -11.8643 62.1821 -2.12071 62.8903 5.86356C63.8557 16.0419 69.1779 24.5061 76.5578 31.3162C89.4738 43.2839 92.5122 83.1183 69.2874 97.8282C58.5604 104.61 55.1908 113.501 58.2346 122.824C61.3863 132.446 69.6284 141.634 81.9857 147.514C112.684 162.42 129.516 190.291 124.984 216.018C120.092 243.254 110.866 265.402 79.0515 280.636C75.8891 282.119 73.0369 283.994 70.1874 285.969C46.1176 302.801 47.6237 337.574 53.8526 369.322C56.2748 381.663 61.1431 395.741 62.7099 409.805C66.7411 445.512 71.2434 460.9 71.2434 460.9" stroke="url(#paint9_linear_637_8002)" stroke-width="0.5" stroke-miterlimit="10"/>
<path d="M101.428 -77.6684C99.5574 -76.5193 78.9271 -54.3745 66.6024 -24.4434C61.8036 -12.8145 60.4646 -2.77619 61.6804 5.49495C63.356 16.0549 70.0777 24.4827 79.0518 31.0512C94.7539 42.4462 99.5464 84.3356 73.5122 98.7184C61.383 105.437 57.2163 114.448 59.7655 123.985C62.4251 133.919 70.8802 143.602 83.8451 149.767C115.146 164.757 132.071 196.226 125.443 222.108C118.633 248.694 107.968 269.379 77.3642 284.981C74.3043 286.561 71.4522 288.436 68.7026 290.409C45.5325 307.218 47.528 341.577 53.0572 373.344C55.1795 385.693 59.548 399.784 60.3098 413.669C62.5677 450.423 65.734 464.445 65.734 464.445" stroke="url(#paint10_linear_637_8002)" stroke-width="0.5" stroke-miterlimit="10"/>
<path d="M104.588 -79.2512C102.52 -77.9969 78.3776 -56.2608 65.1688 -25.7065C59.9806 -13.6673 58.752 -3.23177 60.5728 5.22368C62.9559 16.0653 70.9825 24.6592 81.6482 30.8835C100.239 41.8031 106.785 85.7475 77.8392 99.7061C64.3053 106.261 59.3415 115.393 61.2987 125.245C63.3689 135.595 72.0343 145.673 85.7068 152.119C117.51 167.196 134.629 202.262 126.002 228.195C117.277 254.231 105.173 273.453 75.7766 289.324C72.8167 290.902 70.0671 292.874 67.3202 294.946C45.0524 311.832 47.5347 345.679 52.2641 377.466C54.0891 389.923 57.8552 403.93 58.012 417.63C58.3966 455.433 60.3268 468.087 60.3268 468.087" stroke="url(#paint11_linear_637_8002)" stroke-width="0.5" stroke-miterlimit="10"/>
<path d="M107.745 -80.9341C105.58 -79.5772 77.8257 -58.2471 63.7329 -27.0696C58.0553 -14.6175 56.9344 -3.88466 59.3602 4.75509C62.4535 15.9783 71.7796 24.5384 84.137 30.4186C105.614 40.7628 113.817 86.8648 82.0587 100.396C67.22 106.785 61.2617 116.143 62.8243 126.206C64.4025 136.869 73.1809 147.444 87.561 154.171C119.867 169.335 137.282 208.095 126.553 233.983C116.015 259.566 102.268 277.13 74.1788 293.267C71.2215 294.945 68.5719 296.914 66.0249 298.981C44.3621 316.051 47.3312 349.385 51.2635 381.294C52.7886 393.758 55.8523 407.683 55.4067 421.299C53.918 460.151 54.6148 471.537 54.6148 471.537" stroke="url(#paint12_linear_637_8002)" stroke-width="0.5" stroke-miterlimit="10"/>
<path d="M110.905 -82.5169C108.542 -81.0549 77.3761 -60.1361 62.2992 -28.3327C56.2321 -15.4703 55.219 -4.44021 58.1525 4.48642C61.956 16.0913 72.6816 24.6149 86.5332 30.2561C110.799 40.1275 120.853 88.1819 86.1856 101.389C69.9422 107.614 63.1893 117.193 64.1573 127.472C65.2435 138.447 74.2349 149.517 89.2226 156.529C122.031 171.78 139.74 214.133 126.814 240.178C114.361 265.211 99.173 281.212 72.1938 297.72C69.3364 299.395 66.7894 301.462 64.245 303.629C43.7765 320.468 47.1325 353.292 50.3676 385.318C51.5955 397.891 54.0567 411.731 52.9036 425.066C49.4416 464.969 48.9023 474.987 48.9023 474.987" stroke="url(#paint13_linear_637_8002)" stroke-width="0.5" stroke-miterlimit="10"/>
<path d="M114.062 -84.1996C111.502 -82.6324 76.8218 -62.2223 60.8635 -29.6957C54.307 -16.4205 53.5042 -4.99567 56.9427 4.11787C61.4538 16.0044 73.4842 24.6941 89.0274 29.9911C116.181 39.3871 127.99 89.4966 90.4131 102.38C72.765 108.441 65.2176 118.241 65.691 128.732C66.1878 140.123 75.3895 151.587 90.9822 158.784C124.293 174.122 142.298 220.168 127.27 246.168C113.005 270.748 96.2759 285.189 70.5014 301.866C67.7467 303.638 65.1996 305.705 62.7552 307.869C43.289 324.782 47.1344 357.193 49.5698 389.24C50.4977 401.821 52.2566 415.579 50.5011 428.83C44.9659 469.788 43.3931 478.532 43.3931 478.532" stroke="url(#paint14_linear_637_8002)" stroke-width="0.5" stroke-miterlimit="10"/>
<path d="M117.222 -85.7825C114.465 -84.1101 76.2727 -64.1087 59.4302 -30.9588C52.3869 -17.1707 51.7893 -5.55123 55.7329 3.74922C60.9541 16.0174 74.384 24.6706 91.5215 29.726C121.561 38.5467 135.025 90.7138 94.6378 103.27C75.585 109.168 67.1431 119.191 67.1219 129.895C67.1267 141.599 76.444 153.661 92.7416 161.039C126.555 176.463 144.959 226.301 127.729 252.259C111.652 276.385 93.4812 289.263 68.8142 306.211C66.162 308.081 63.7149 310.145 61.2704 312.31C42.604 329.201 47.0388 361.197 48.6744 393.265C49.3051 405.953 50.4616 419.628 48.0011 432.696C40.2901 474.611 37.7837 482.079 37.7837 482.079" stroke="url(#paint15_linear_637_8002)" stroke-width="0.5" stroke-miterlimit="10"/>
<path d="M120.279 -87.4626C117.324 -85.6851 75.6206 -66.0924 57.8941 -32.3193C50.4614 -18.1209 49.8716 -6.20151 54.4227 3.38322C60.3516 15.9331 75.1836 24.6498 93.9153 29.4636C126.844 37.8089 142.061 92.031 98.7623 104.163C78.4047 109.895 69.0684 120.141 68.5525 131.059C67.9653 143.078 77.5955 155.631 94.5008 163.294C128.816 178.805 147.519 232.436 128.085 258.251C110.198 282.025 90.4836 293.242 67.024 310.459C64.4718 312.326 62.0273 314.491 59.6854 316.752C41.9187 333.621 46.8402 365.103 47.7814 397.39C48.1121 410.085 48.5663 423.678 45.5034 436.662C35.6139 479.434 32.1792 485.826 32.1792 485.826" stroke="url(#paint16_linear_637_8002)" stroke-width="0.5" stroke-miterlimit="10"/>
<path d="M123.439 -89.0454C120.287 -87.1627 75.0713 -67.9787 56.4607 -33.5824C48.5386 -18.9711 48.1565 -6.75703 53.2127 3.01461C59.8517 15.9461 75.9859 24.7289 96.4067 29.0986C132.224 36.9685 149.193 93.1456 102.984 104.953C81.222 110.522 70.9886 120.892 69.9781 132.022C68.7989 144.357 78.6421 157.405 96.2549 165.349C131.076 181.047 150.175 238.369 128.539 264.141C108.842 287.562 87.5836 297.119 65.3288 314.505C62.8791 316.469 60.5346 318.631 58.1928 320.893C41.3257 337.738 46.7367 368.807 46.8781 401.115C46.9089 413.818 46.6607 427.329 42.9954 440.229C30.8276 483.861 26.4619 489.076 26.4619 489.076" stroke="url(#paint17_linear_637_8002)" stroke-width="0.5" stroke-miterlimit="10"/>
<path d="M126.596 -90.7283C123.247 -88.7404 74.5168 -70.065 55.0247 -34.9455C46.6132 -19.9213 46.4389 -7.41255 52.0027 2.64596C59.3493 15.8591 76.8856 24.7054 98.9006 28.8335C137.604 36.128 156.327 94.3602 107.209 105.843C84.0418 111.248 73.0139 121.839 71.5088 133.182C69.8376 145.83 79.7938 159.375 98.1142 167.601C133.437 183.387 152.938 244.599 129.095 270.129C107.588 293.197 84.8861 301.091 63.6388 318.75C61.2891 320.712 58.9472 322.974 56.7079 325.333C40.6406 342.157 46.5409 372.814 45.9826 405.139C45.7161 417.951 44.7629 431.28 40.4952 444.095C26.0464 488.487 20.855 492.723 20.855 492.723" stroke="url(#paint18_linear_637_8002)" stroke-width="0.5" stroke-miterlimit="10"/>
<path d="M129.756 -92.3111C126.209 -90.218 74.0674 -71.9539 53.5914 -36.2085C33.1153 -0.46315 59.8054 21.8493 101.397 28.6684C142.986 35.3876 163.466 95.7748 111.439 106.933C59.4091 117.992 64.0532 154.184 99.8761 169.956C135.699 185.728 155.504 250.935 129.456 276.322C103.408 301.709 76.3219 306.416 55.123 329.776C33.9242 353.136 54.8249 402.808 37.9977 448.062C21.1705 493.315 15.248 496.371 15.248 496.371" stroke="url(#paint19_linear_637_8002)" stroke-width="0.5" stroke-miterlimit="10"/>
<defs>
<linearGradient id="paint0_linear_637_8002" x1="186.326" y1="128.323" x2="2.18733" y2="241.129" gradientUnits="userSpaceOnUse">
<stop stop-color="#001C93"/>
<stop offset="0.0891892" stop-color="#004FCE"/>
<stop offset="0.2351" stop-color="#06B6ED"/>
<stop offset="0.3919" stop-color="#21C152"/>
<stop offset="0.5919" stop-color="#EDD107"/>
<stop offset="0.7162" stop-color="#EA0AEA"/>
<stop offset="0.8838" stop-color="#8111D1"/>
<stop offset="1" stop-color="#390F7C"/>
</linearGradient>
<linearGradient id="paint1_linear_637_8002" x1="192.946" y1="137.972" x2="4.91953" y2="250.192" gradientUnits="userSpaceOnUse">
<stop stop-color="#001C93"/>
<stop offset="0.0891892" stop-color="#004FCE"/>
<stop offset="0.2351" stop-color="#06B6ED"/>
<stop offset="0.3919" stop-color="#21C152"/>
<stop offset="0.5919" stop-color="#EDD107"/>
<stop offset="0.7162" stop-color="#EA0AEA"/>
<stop offset="0.8838" stop-color="#8111D1"/>
<stop offset="1" stop-color="#390F7C"/>
</linearGradient>
<linearGradient id="paint2_linear_637_8002" x1="200.024" y1="147.598" x2="6.88084" y2="260.306" gradientUnits="userSpaceOnUse">
<stop stop-color="#001C93"/>
<stop offset="0.0891892" stop-color="#004FCE"/>
<stop offset="0.2351" stop-color="#06B6ED"/>
<stop offset="0.3919" stop-color="#21C152"/>
<stop offset="0.5919" stop-color="#EDD107"/>
<stop offset="0.7162" stop-color="#EA0AEA"/>
<stop offset="0.8838" stop-color="#8111D1"/>
<stop offset="1" stop-color="#390F7C"/>
</linearGradient>
<linearGradient id="paint3_linear_637_8002" x1="207.228" y1="157.047" x2="8.0047" y2="271.107" gradientUnits="userSpaceOnUse">
<stop stop-color="#001C93"/>
<stop offset="0.0891892" stop-color="#004FCE"/>
<stop offset="0.2351" stop-color="#06B6ED"/>
<stop offset="0.3919" stop-color="#21C152"/>
<stop offset="0.5919" stop-color="#EDD107"/>
<stop offset="0.7162" stop-color="#EA0AEA"/>
<stop offset="0.8838" stop-color="#8111D1"/>
<stop offset="1" stop-color="#390F7C"/>
</linearGradient>
<linearGradient id="paint4_linear_637_8002" x1="214.388" y1="166.076" x2="8.31532" y2="282.16" gradientUnits="userSpaceOnUse">
<stop stop-color="#001C93"/>
<stop offset="0.0891892" stop-color="#004FCE"/>
<stop offset="0.2351" stop-color="#06B6ED"/>
<stop offset="0.3919" stop-color="#21C152"/>
<stop offset="0.5919" stop-color="#EDD107"/>
<stop offset="0.7162" stop-color="#EA0AEA"/>
<stop offset="0.8838" stop-color="#8111D1"/>
<stop offset="1" stop-color="#390F7C"/>
</linearGradient>
<linearGradient id="paint5_linear_637_8002" x1="221.431" y1="174.491" x2="8.03888" y2="293.129" gradientUnits="userSpaceOnUse">
<stop stop-color="#001C93"/>
<stop offset="0.0891892" stop-color="#004FCE"/>
<stop offset="0.2351" stop-color="#06B6ED"/>
<stop offset="0.3919" stop-color="#21C152"/>
<stop offset="0.5919" stop-color="#EDD107"/>
<stop offset="0.7162" stop-color="#EA0AEA"/>
<stop offset="0.8838" stop-color="#8111D1"/>
<stop offset="1" stop-color="#390F7C"/>
</linearGradient>
<linearGradient id="paint6_linear_637_8002" x1="228.236" y1="181.997" x2="7.16201" y2="303.64" gradientUnits="userSpaceOnUse">
<stop stop-color="#001C93"/>
<stop offset="0.0891892" stop-color="#004FCE"/>
<stop offset="0.2351" stop-color="#06B6ED"/>
<stop offset="0.3919" stop-color="#21C152"/>
<stop offset="0.5919" stop-color="#EDD107"/>
<stop offset="0.7162" stop-color="#EA0AEA"/>
<stop offset="0.8838" stop-color="#8111D1"/>
<stop offset="1" stop-color="#390F7C"/>
</linearGradient>
<linearGradient id="paint7_linear_637_8002" x1="234.719" y1="188.311" x2="5.60894" y2="313.423" gradientUnits="userSpaceOnUse">
<stop stop-color="#001C93"/>
<stop offset="0.0891892" stop-color="#004FCE"/>
<stop offset="0.2351" stop-color="#06B6ED"/>
<stop offset="0.3919" stop-color="#21C152"/>
<stop offset="0.5919" stop-color="#EDD107"/>
<stop offset="0.7162" stop-color="#EA0AEA"/>
<stop offset="0.8838" stop-color="#8111D1"/>
<stop offset="1" stop-color="#390F7C"/>
</linearGradient>
<linearGradient id="paint8_linear_637_8002" x1="240.68" y1="193.154" x2="3.23547" y2="322.169" gradientUnits="userSpaceOnUse">
<stop stop-color="#001C93"/>
<stop offset="0.0891892" stop-color="#004FCE"/>
<stop offset="0.2351" stop-color="#06B6ED"/>
<stop offset="0.3919" stop-color="#21C152"/>
<stop offset="0.5919" stop-color="#EDD107"/>
<stop offset="0.7162" stop-color="#EA0AEA"/>
<stop offset="0.8838" stop-color="#8111D1"/>
<stop offset="1" stop-color="#390F7C"/>
</linearGradient>
<linearGradient id="paint9_linear_637_8002" x1="246.033" y1="196.247" x2="-0.0581442" y2="329.615" gradientUnits="userSpaceOnUse">
<stop stop-color="#001C93"/>
<stop offset="0.0891892" stop-color="#004FCE"/>
<stop offset="0.2351" stop-color="#06B6ED"/>
<stop offset="0.3919" stop-color="#21C152"/>
<stop offset="0.5919" stop-color="#EDD107"/>
<stop offset="0.7162" stop-color="#EA0AEA"/>
<stop offset="0.8838" stop-color="#8111D1"/>
<stop offset="1" stop-color="#390F7C"/>
</linearGradient>
<linearGradient id="paint10_linear_637_8002" x1="250.656" y1="197.343" x2="-4.36681" y2="335.537" gradientUnits="userSpaceOnUse">
<stop stop-color="#001C93"/>
<stop offset="0.0891892" stop-color="#004FCE"/>
<stop offset="0.2351" stop-color="#06B6ED"/>
<stop offset="0.3919" stop-color="#21C152"/>
<stop offset="0.5919" stop-color="#EDD107"/>
<stop offset="0.7162" stop-color="#EA0AEA"/>
<stop offset="0.8838" stop-color="#8111D1"/>
<stop offset="1" stop-color="#390F7C"/>
</linearGradient>
<linearGradient id="paint11_linear_637_8002" x1="254.478" y1="196.202" x2="-9.70319" y2="339.787" gradientUnits="userSpaceOnUse">
<stop stop-color="#001C93"/>
<stop offset="0.0891892" stop-color="#004FCE"/>
<stop offset="0.2351" stop-color="#06B6ED"/>
<stop offset="0.3919" stop-color="#21C152"/>
<stop offset="0.5919" stop-color="#EDD107"/>
<stop offset="0.7162" stop-color="#EA0AEA"/>
<stop offset="0.8838" stop-color="#8111D1"/>
<stop offset="1" stop-color="#390F7C"/>
</linearGradient>
<linearGradient id="paint12_linear_637_8002" x1="257.324" y1="192.666" x2="-16.3266" y2="342.123" gradientUnits="userSpaceOnUse">
<stop stop-color="#001C93"/>
<stop offset="0.0891892" stop-color="#004FCE"/>
<stop offset="0.2351" stop-color="#06B6ED"/>
<stop offset="0.3919" stop-color="#21C152"/>
<stop offset="0.5919" stop-color="#EDD107"/>
<stop offset="0.7162" stop-color="#EA0AEA"/>
<stop offset="0.8838" stop-color="#8111D1"/>
<stop offset="1" stop-color="#390F7C"/>
</linearGradient>
<linearGradient id="paint13_linear_637_8002" x1="259.141" y1="186.581" x2="-24.2075" y2="342.51" gradientUnits="userSpaceOnUse">
<stop stop-color="#001C93"/>
<stop offset="0.0891892" stop-color="#004FCE"/>
<stop offset="0.2351" stop-color="#06B6ED"/>
<stop offset="0.3919" stop-color="#21C152"/>
<stop offset="0.5919" stop-color="#EDD107"/>
<stop offset="0.7162" stop-color="#EA0AEA"/>
<stop offset="0.8838" stop-color="#8111D1"/>
<stop offset="1" stop-color="#390F7C"/>
</linearGradient>
<linearGradient id="paint14_linear_637_8002" x1="259.856" y1="177.863" x2="-33.4136" y2="340.919" gradientUnits="userSpaceOnUse">
<stop stop-color="#001C93"/>
<stop offset="0.0891892" stop-color="#004FCE"/>
<stop offset="0.2351" stop-color="#06B6ED"/>
<stop offset="0.3919" stop-color="#21C152"/>
<stop offset="0.5919" stop-color="#EDD107"/>
<stop offset="0.7162" stop-color="#EA0AEA"/>
<stop offset="0.8838" stop-color="#8111D1"/>
<stop offset="1" stop-color="#390F7C"/>
</linearGradient>
<linearGradient id="paint15_linear_637_8002" x1="259.405" y1="166.486" x2="-43.9901" y2="337.394" gradientUnits="userSpaceOnUse">
<stop stop-color="#001C93"/>
<stop offset="0.0891892" stop-color="#004FCE"/>
<stop offset="0.2351" stop-color="#06B6ED"/>
<stop offset="0.3919" stop-color="#21C152"/>
<stop offset="0.5919" stop-color="#EDD107"/>
<stop offset="0.7162" stop-color="#EA0AEA"/>
<stop offset="0.8838" stop-color="#8111D1"/>
<stop offset="1" stop-color="#390F7C"/>
</linearGradient>
<linearGradient id="paint16_linear_637_8002" x1="257.78" y1="152.491" x2="-55.934" y2="332.086" gradientUnits="userSpaceOnUse">
<stop stop-color="#001C93"/>
<stop offset="0.0891892" stop-color="#004FCE"/>
<stop offset="0.2351" stop-color="#06B6ED"/>
<stop offset="0.3919" stop-color="#21C152"/>
<stop offset="0.5919" stop-color="#EDD107"/>
<stop offset="0.7162" stop-color="#EA0AEA"/>
<stop offset="0.8838" stop-color="#8111D1"/>
<stop offset="1" stop-color="#390F7C"/>
</linearGradient>
<linearGradient id="paint17_linear_637_8002" x1="254.872" y1="135.987" x2="-69.2937" y2="325.149" gradientUnits="userSpaceOnUse">
<stop stop-color="#001C93"/>
<stop offset="0.0891892" stop-color="#004FCE"/>
<stop offset="0.2351" stop-color="#06B6ED"/>
<stop offset="0.3919" stop-color="#21C152"/>
<stop offset="0.5919" stop-color="#EDD107"/>
<stop offset="0.7162" stop-color="#EA0AEA"/>
<stop offset="0.8838" stop-color="#8111D1"/>
<stop offset="1" stop-color="#390F7C"/>
</linearGradient>
<linearGradient id="paint18_linear_637_8002" x1="250.69" y1="117.126" x2="-84.0347" y2="316.886" gradientUnits="userSpaceOnUse">
<stop stop-color="#001C93"/>
<stop offset="0.0891892" stop-color="#004FCE"/>
<stop offset="0.2351" stop-color="#06B6ED"/>
<stop offset="0.3919" stop-color="#21C152"/>
<stop offset="0.5919" stop-color="#EDD107"/>
<stop offset="0.7162" stop-color="#EA0AEA"/>
<stop offset="0.8838" stop-color="#8111D1"/>
<stop offset="1" stop-color="#390F7C"/>
</linearGradient>
<linearGradient id="paint19_linear_637_8002" x1="244.377" y1="94.7158" x2="-100.978" y2="306.3" gradientUnits="userSpaceOnUse">
<stop stop-color="#001C93"/>
<stop offset="0.0891892" stop-color="#004FCE"/>
<stop offset="0.2351" stop-color="#06B6ED"/>
<stop offset="0.3919" stop-color="#21C152"/>
<stop offset="0.5919" stop-color="#EDD107"/>
<stop offset="0.7162" stop-color="#EA0AEA"/>
<stop offset="0.8838" stop-color="#8111D1"/>
<stop offset="1" stop-color="#390F7C"/>
</linearGradient>
</defs>
</svg>
