<svg width="312" height="86" viewBox="0 0 312 86" fill="none" xmlns="http://www.w3.org/2000/svg">
<path d="M326.758 41.1868C326.758 41.1868 293.67 56.9957 274.92 42.6574C256.17 28.3192 225.288 -7.71031 199.552 19.4956C173.817 46.7015 185.214 63.981 161.684 74.2751C138.155 84.5693 110.949 84.9369 102.861 53.3192C94.7726 21.7015 62.0519 17.6574 36.6842 27.5839C11.3166 37.5104 -34.6394 69.8633 -34.6394 69.8633" stroke="url(#paint0_linear_637_10842)" stroke-width="0.5" stroke-miterlimit="10"/>
<path d="M-35.1541 69.2751C-35.0805 69.128 9.18426 36.5544 34.4049 26.4809C57.199 17.3632 84.9932 20.6721 96.0226 44.4956C97.2726 47.2162 98.3756 50.1574 99.1844 53.3927C107.273 84.6428 134.773 85.231 157.346 73.3927C174.258 64.4957 173.817 53.8339 181.979 39.9368C184.92 34.9368 189.405 29.2015 196.538 22.6574C205.214 14.7162 214.552 12.8044 223.523 13.7603C236.243 15.0838 248.229 23.0985 259.038 30.9662C264.185 34.7162 269.038 38.6133 273.449 41.628C282.494 47.878 294.405 48.3927 304.847 46.4074C317.494 44.0545 326.685 39.4221 326.685 39.4221" stroke="url(#paint1_linear_637_10842)" stroke-width="0.5" stroke-miterlimit="10"/>
<path d="M-35.7424 68.6133C-35.5954 68.3192 6.97823 35.4515 32.1253 25.2309C54.9195 15.8926 81.8313 20.2309 92.4196 44.3485C93.596 47.0691 94.6254 50.0103 95.5078 53.2456C103.523 84.2016 131.39 85.5986 153.008 72.2898C169.699 61.9956 170.214 51.9221 178.449 40.4515C181.39 36.3338 186.17 31.4809 193.449 25.672C202.42 18.5397 212.199 16.9956 221.17 17.2897C234.111 17.6573 245.655 23.9809 256.758 30.6721C261.979 33.8338 267.126 37.5103 271.758 40.4515C281.096 46.3338 293.302 47.1427 304.038 44.9368C317.567 42.2162 326.391 37.5838 326.391 37.5838" stroke="url(#paint2_linear_637_10842)" stroke-width="0.5" stroke-miterlimit="10"/>
<path d="M-36.2571 67.9515C-36.0365 67.5839 4.84593 34.422 29.846 24.0544C52.6401 14.4955 78.6696 19.7897 88.8167 44.3485C89.9196 47.0691 90.949 50.0103 91.8314 53.2456C99.8461 83.8339 128.008 86.1133 148.67 71.3339C165.067 59.6427 166.611 50.1574 174.92 41.0397C177.861 37.8044 182.861 33.8338 190.434 28.7603C199.699 22.5103 209.993 21.2603 218.964 20.8191C232.126 20.2308 243.302 24.8632 254.552 30.3779C259.846 32.9514 265.214 36.4073 270.214 39.275C279.92 44.8632 292.346 45.8926 303.449 43.4662C317.935 40.3044 326.317 35.7456 326.317 35.7456" stroke="url(#paint3_linear_637_10842)" stroke-width="0.5" stroke-miterlimit="10"/>
<path d="M-36.7717 67.2898C-36.4776 66.7751 2.71363 33.3926 27.5666 22.8044C50.3608 13.025 75.5079 19.3485 85.2138 44.275C86.3167 47.0691 87.2726 50.0103 88.0814 53.1721C96.0226 83.4663 124.552 86.4074 144.258 70.378C160.434 57.1427 163.008 48.3191 171.39 41.628C174.332 39.275 179.626 36.1868 187.346 31.9221C196.905 26.5544 207.64 25.5985 216.685 24.4956C230.14 22.8779 240.802 25.8926 252.346 30.2309C257.714 32.2897 263.302 35.4515 268.67 38.2456C278.67 43.4662 291.391 44.7897 302.788 42.1427C318.155 38.6132 326.17 33.9809 326.17 33.9809" stroke="url(#paint4_linear_637_10842)" stroke-width="0.5" stroke-miterlimit="10"/>
<path d="M-37.2866 66.628C-36.919 65.9663 0.58109 32.3633 25.3605 21.628C48.2282 11.6279 72.493 18.9074 81.6842 44.2015C82.7136 46.9956 83.6695 49.9368 84.4783 53.0251C92.4195 82.9516 121.243 86.6281 139.993 69.2751C155.875 54.5692 159.552 46.4074 167.934 42.1427C170.949 40.6721 176.464 38.4662 184.405 34.9368C194.258 30.4515 205.434 29.7162 214.479 28.025C228.155 25.4515 238.376 26.775 250.214 29.9368C255.655 31.4074 261.537 34.3486 267.199 37.0692C277.493 41.9956 290.435 43.5398 302.273 40.6721C318.523 36.775 326.17 32.1427 326.17 32.1427" stroke="url(#paint5_linear_637_10842)" stroke-width="0.5" stroke-miterlimit="10"/>
<path d="M-37.8013 66.0398C-37.3601 65.231 -1.55121 31.3338 23.0812 20.4515C45.9489 10.2309 69.3313 18.4662 78.0813 44.2015C79.0372 46.9956 79.993 49.9368 80.8019 53.0251C88.7431 82.5839 117.787 86.9222 135.655 68.3192C151.243 52.0692 156.17 44.5692 164.405 42.8044C167.493 42.1427 173.228 40.8927 181.317 38.0986C191.464 34.4956 203.081 33.9809 212.199 31.628C226.17 28.025 235.876 27.7309 248.008 29.7897C253.523 30.6721 259.626 33.3927 265.582 36.0397C276.17 40.6721 289.405 42.3633 301.538 39.3486C318.67 35.0103 325.876 30.4515 325.876 30.4515" stroke="url(#paint6_linear_637_10842)" stroke-width="0.5" stroke-miterlimit="10"/>
<path d="M-38.3159 65.378C-37.8012 64.4957 -3.68351 30.3044 20.8018 19.275C43.6695 8.8338 66.2431 18.0985 74.4784 44.2015C75.3607 46.9956 76.3166 49.9368 77.1255 53.0251C84.9931 82.2898 114.331 87.2163 131.317 67.3633C146.537 49.5692 153.081 41.2603 160.876 43.4662C163.964 44.275 169.993 43.3927 178.302 41.2603C188.817 38.5397 200.876 38.2456 209.993 35.3044C224.258 30.6721 233.449 28.8338 245.802 29.6427C251.39 30.0103 257.714 32.4368 264.038 35.0103C274.92 39.3486 288.449 41.2603 300.949 38.025C318.964 33.3191 325.802 28.7603 325.802 28.7603" stroke="url(#paint7_linear_637_10842)" stroke-width="0.5" stroke-miterlimit="10"/>
<path d="M-38.8306 64.7162C-38.2423 63.6868 -5.8158 29.275 18.596 18.025C41.4637 7.36318 63.1549 17.5838 70.949 44.0544C71.7579 46.9221 72.6402 49.8633 73.5226 52.878C81.3902 81.7751 110.876 87.2898 127.052 66.2603C141.979 46.8485 149.626 41.1132 157.42 43.9074C160.729 45.0838 166.832 45.5985 175.287 44.2015C186.096 42.3632 198.596 42.2897 207.714 38.7603C222.199 33.025 230.949 29.6426 243.596 29.275C249.258 29.0544 255.802 31.3338 262.493 33.7603C273.67 37.8044 287.494 39.9368 300.288 36.4809C319.185 31.3338 325.655 26.775 325.655 26.775" stroke="url(#paint8_linear_637_10842)" stroke-width="0.5" stroke-miterlimit="10"/>
<path d="M-39.3452 64.0545C-38.6834 62.878 -7.94811 28.2456 16.3166 16.8485C39.1843 6.0397 60.0667 17.1427 67.3461 44.0545C68.155 46.9221 68.9638 49.8633 69.7726 52.878C77.5667 81.481 107.346 87.5104 122.64 65.3045C137.126 44.2751 146.096 39.5692 153.89 44.5692C157.273 46.7015 163.596 48.0251 172.273 47.3633C183.449 46.4809 196.317 46.5545 205.508 42.3633C220.288 35.5986 228.523 30.6721 241.464 29.0544C247.199 28.3191 253.964 30.3044 260.949 32.6574C272.42 36.4074 286.538 38.7603 299.699 35.0103C319.552 29.4956 325.582 24.9368 325.582 24.9368" stroke="url(#paint9_linear_637_10842)" stroke-width="0.5" stroke-miterlimit="10"/>
<path d="M-39.8599 63.4662C-39.051 62.1427 -10.0804 27.2161 14.0373 15.672C36.9785 4.64258 56.905 16.7014 63.7432 44.0544C64.4785 46.9221 65.2874 49.8632 66.0962 52.878C73.8903 81.1133 103.743 87.731 118.302 64.3486C132.42 41.6279 142.64 38.0985 150.361 45.1574C153.743 48.2456 160.361 50.0838 169.185 50.4515C180.655 50.8927 193.964 50.7456 203.155 45.9662C218.155 38.0985 225.949 31.7014 239.185 28.8338C244.994 27.5838 251.979 29.3485 259.332 31.5544C271.097 35.0838 285.435 37.5103 298.964 33.6132C319.7 27.6573 325.361 23.172 325.361 23.172" stroke="url(#paint10_linear_637_10842)" stroke-width="0.5" stroke-miterlimit="10"/>
<path d="M-40.3748 62.8045C-39.4924 61.4074 -12.2129 26.1868 11.7577 14.4956C34.6989 3.24557 53.8166 16.3338 60.1401 43.9809C60.8019 46.9221 61.6107 49.8633 62.4195 52.8045C70.2137 80.7457 100.14 87.8781 113.964 63.3927C127.64 39.0545 139.111 36.5545 146.831 45.8192C150.214 49.9368 157.126 52.878 166.17 53.6133C178.008 54.5692 191.758 55.0104 200.949 49.6427C216.17 40.7456 223.523 32.8044 237.052 28.6868C242.861 26.9221 250.14 28.3927 257.861 30.525C269.92 33.7603 284.552 36.4074 298.376 32.2897C319.994 25.8927 325.214 21.4074 325.214 21.4074" stroke="url(#paint11_linear_637_10842)" stroke-width="0.5" stroke-miterlimit="10"/>
<path d="M-40.9629 62.1427C-40.007 60.5986 -14.4187 25.1573 9.47837 13.3191C32.4196 1.84847 50.7284 15.8926 56.5373 43.9809C57.1255 46.9221 57.9343 49.8633 58.7432 52.8044C66.4638 80.378 96.5373 88.0251 109.626 62.4368C122.861 36.4809 135.582 35.0103 143.302 46.4074C146.684 51.4809 153.89 55.2309 163.082 56.7015C175.214 58.5397 189.405 59.2015 198.67 53.1721C214.185 43.1721 221.023 33.7603 234.773 28.3926C240.655 26.1132 248.155 27.3632 256.17 29.3485C268.449 32.3632 283.449 35.1574 297.641 30.8191C320.141 23.9809 324.994 19.5691 324.994 19.5691" stroke="url(#paint12_linear_637_10842)" stroke-width="0.5" stroke-miterlimit="10"/>
<path d="M-41.4778 61.4809C-40.4484 59.7898 -16.5513 24.1279 7.19877 12.0691C30.2135 0.377898 47.64 15.4515 52.9341 43.9074C53.4489 46.8486 54.2577 49.7897 55.0665 52.7309C62.7871 79.9369 92.9342 88.1722 105.214 61.4074C117.934 33.7603 131.905 33.3191 139.699 46.9956C143.081 52.9515 150.581 57.6574 159.993 59.7898C172.493 62.5839 187.052 63.3927 196.317 56.7751C212.052 45.6721 218.449 34.8632 232.493 28.1721C238.449 25.3044 246.17 26.4074 254.552 28.2456C267.126 30.9662 282.42 33.9074 296.905 29.4221C320.288 22.2162 324.773 17.8044 324.773 17.8044" stroke="url(#paint13_linear_637_10842)" stroke-width="0.5" stroke-miterlimit="10"/>
<path d="M-41.9924 60.8927C-40.8895 59.0545 -18.6836 23.0985 4.91941 10.9662C27.8606 -0.945611 44.4783 15.0103 49.2577 43.9074C49.7724 46.8486 50.4342 49.7898 51.3165 52.731C58.9636 79.6428 89.1843 88.3928 100.802 60.4516C113.008 31.1868 128.302 31.7015 136.17 47.5839C139.626 54.4957 147.346 60.0839 156.905 62.878C169.699 66.5545 184.699 67.5104 194.037 60.378C210.067 48.0986 216.096 35.8192 230.361 27.878C236.464 24.4956 244.332 25.378 253.082 27.0691C265.949 29.5691 281.464 32.6574 296.39 27.9515C320.655 20.3044 324.773 15.8927 324.773 15.8927" stroke="url(#paint14_linear_637_10842)" stroke-width="0.5" stroke-miterlimit="10"/>
<path d="M-42.5071 60.2309C-41.3306 58.2456 -20.8159 22.0691 2.71358 9.71615C25.6548 -2.41622 41.4636 14.5691 45.7284 43.8339C46.1695 46.8486 46.8313 49.7897 47.6401 52.6574C55.2872 79.2016 85.5078 88.5398 96.4637 59.4221C108.081 28.4662 124.699 30.0103 132.64 48.1721C136.096 56.0398 144.111 62.4368 153.89 65.9662C166.979 70.5986 182.346 71.7015 191.832 63.9074C207.935 50.6721 213.596 36.8485 228.155 27.7309C234.332 23.8338 242.493 24.4221 251.538 26.0397C264.699 28.3191 280.508 31.4809 295.729 26.6279C320.876 18.5397 324.626 14.2014 324.626 14.2014" stroke="url(#paint15_linear_637_10842)" stroke-width="0.5" stroke-miterlimit="10"/>
<path d="M-43.0217 59.5692C-41.7717 57.5103 -22.9482 21.0397 0.434222 8.53968C23.449 -3.81329 38.3755 14.1279 42.1255 43.8339C42.4931 46.8486 43.1549 49.7897 43.9637 52.6574C51.6108 78.9074 81.8314 88.7604 92.1255 58.4662C103.229 25.8926 121.17 28.3926 129.111 48.8339C132.567 57.6574 140.802 64.9368 150.802 69.128C164.184 74.7163 179.993 75.9663 189.479 67.5839C205.802 53.2456 211.096 38.025 225.802 27.5838C232.052 23.1721 240.435 23.5397 249.773 25.0103C263.229 27.0691 279.332 30.3779 294.92 25.3044C320.949 16.775 324.332 12.5103 324.332 12.5103" stroke="url(#paint16_linear_637_10842)" stroke-width="0.5" stroke-miterlimit="10"/>
<path d="M-43.5366 58.9074C-42.2131 56.7015 -25.0807 20.0103 -1.84537 7.28968C21.1694 -5.28387 35.287 13.6132 38.5223 43.6868C38.8165 46.7015 39.4782 49.6427 40.287 52.4368C47.8606 78.3192 78.1548 88.7604 87.7871 57.2898C98.3019 23.025 117.64 26.5544 125.581 49.2015C129.037 58.9074 137.567 67.1427 147.787 71.9957C161.464 78.5398 177.714 79.8633 187.273 70.9663C203.817 55.5251 208.67 38.8338 223.67 27.1427C229.993 22.2162 238.596 22.3632 248.302 23.6868C262.052 25.525 278.376 28.9074 294.332 23.6868C321.243 14.7162 324.185 10.525 324.185 10.525" stroke="url(#paint17_linear_637_10842)" stroke-width="0.5" stroke-miterlimit="10"/>
<path d="M-44.0513 58.2456C-42.6542 55.8927 -27.213 18.9073 -4.0512 6.11317C18.9635 -6.68097 32.3459 13.172 34.993 43.6868C35.2871 46.7015 35.8753 49.6427 36.6842 52.4368C44.2577 77.9515 74.5519 88.981 83.5225 56.4074C93.449 20.525 114.037 25.0103 122.125 49.9368C125.581 60.5986 134.405 69.6427 144.773 75.2309C158.743 82.6574 175.434 84.2015 185.067 74.6427C201.832 58.0986 206.39 39.9368 221.611 26.9956C228.008 21.5544 236.832 21.4808 246.905 22.6573C260.949 24.2014 277.567 27.8044 293.817 22.3632C321.611 12.9514 324.185 8.76023 324.185 8.76023" stroke="url(#paint18_linear_637_10842)" stroke-width="0.5" stroke-miterlimit="10"/>
<path d="M-44.5659 57.6574C-43.0953 55.2309 -29.3453 17.9515 -6.33056 4.93674C16.6842 -8.07799 29.1842 12.8044 31.3901 43.6868C33.596 74.5692 69.8461 92.9516 79.1843 55.4515C88.5226 17.9515 110.581 23.3191 118.67 50.525C126.758 77.731 165.949 95.8928 182.861 78.2457C199.773 60.5986 203.964 40.9662 219.405 26.775C234.846 12.5838 264.479 30.6721 293.155 20.8926C321.832 11.1132 324.038 6.92203 324.038 6.92203" stroke="url(#paint19_linear_637_10842)" stroke-width="0.5" stroke-miterlimit="10"/>
<defs>
<linearGradient id="paint0_linear_637_10842" x1="185.092" y1="123.2" x2="105.7" y2="-14.3102" gradientUnits="userSpaceOnUse">
<stop stop-color="#390F7C"/>
<stop offset="0.1919" stop-color="#8111D1"/>
<stop offset="0.3324" stop-color="#EA0AEA"/>
<stop offset="0.5216" stop-color="#EDD107"/>
<stop offset="0.6243" stop-color="#21C152"/>
<stop offset="0.7649" stop-color="#06B6ED"/>
<stop offset="0.9108" stop-color="#004FCE"/>
<stop offset="1" stop-color="#001C93"/>
</linearGradient>
<linearGradient id="paint1_linear_637_10842" x1="169.446" y1="108.575" x2="117.338" y2="-10.22" gradientUnits="userSpaceOnUse">
<stop stop-color="#390F7C"/>
<stop offset="0.1919" stop-color="#8111D1"/>
<stop offset="0.3324" stop-color="#EA0AEA"/>
<stop offset="0.5216" stop-color="#EDD107"/>
<stop offset="0.6243" stop-color="#21C152"/>
<stop offset="0.7649" stop-color="#06B6ED"/>
<stop offset="0.9108" stop-color="#004FCE"/>
<stop offset="1" stop-color="#001C93"/>
</linearGradient>
<linearGradient id="paint2_linear_637_10842" x1="157.371" y1="91.6166" x2="127.17" y2="-4.94132" gradientUnits="userSpaceOnUse">
<stop stop-color="#390F7C"/>
<stop offset="0.1919" stop-color="#8111D1"/>
<stop offset="0.3324" stop-color="#EA0AEA"/>
<stop offset="0.5216" stop-color="#EDD107"/>
<stop offset="0.6243" stop-color="#21C152"/>
<stop offset="0.7649" stop-color="#06B6ED"/>
<stop offset="0.9108" stop-color="#004FCE"/>
<stop offset="1" stop-color="#001C93"/>
</linearGradient>
<linearGradient id="paint3_linear_637_10842" x1="149.675" y1="75.8212" x2="135.255" y2="2.00007" gradientUnits="userSpaceOnUse">
<stop stop-color="#390F7C"/>
<stop offset="0.1919" stop-color="#8111D1"/>
<stop offset="0.3324" stop-color="#EA0AEA"/>
<stop offset="0.5216" stop-color="#EDD107"/>
<stop offset="0.6243" stop-color="#21C152"/>
<stop offset="0.7649" stop-color="#06B6ED"/>
<stop offset="0.9108" stop-color="#004FCE"/>
<stop offset="1" stop-color="#001C93"/>
</linearGradient>
<linearGradient id="paint4_linear_637_10842" x1="146.932" y1="77.9407" x2="141.334" y2="10.3788" gradientUnits="userSpaceOnUse">
<stop stop-color="#390F7C"/>
<stop offset="0.1919" stop-color="#8111D1"/>
<stop offset="0.3324" stop-color="#EA0AEA"/>
<stop offset="0.5216" stop-color="#EDD107"/>
<stop offset="0.6243" stop-color="#21C152"/>
<stop offset="0.7649" stop-color="#06B6ED"/>
<stop offset="0.9108" stop-color="#004FCE"/>
<stop offset="1" stop-color="#001C93"/>
</linearGradient>
<linearGradient id="paint5_linear_637_10842" x1="143.481" y1="80.7292" x2="145.158" y2="19.889" gradientUnits="userSpaceOnUse">
<stop stop-color="#390F7C"/>
<stop offset="0.1919" stop-color="#8111D1"/>
<stop offset="0.3324" stop-color="#EA0AEA"/>
<stop offset="0.5216" stop-color="#EDD107"/>
<stop offset="0.6243" stop-color="#21C152"/>
<stop offset="0.7649" stop-color="#06B6ED"/>
<stop offset="0.9108" stop-color="#004FCE"/>
<stop offset="1" stop-color="#001C93"/>
</linearGradient>
<linearGradient id="paint6_linear_637_10842" x1="138.152" y1="90.4892" x2="149.891" y2="5.82961" gradientUnits="userSpaceOnUse">
<stop stop-color="#390F7C"/>
<stop offset="0.1919" stop-color="#8111D1"/>
<stop offset="0.3324" stop-color="#EA0AEA"/>
<stop offset="0.5216" stop-color="#EDD107"/>
<stop offset="0.6243" stop-color="#21C152"/>
<stop offset="0.7649" stop-color="#06B6ED"/>
<stop offset="0.9108" stop-color="#004FCE"/>
<stop offset="1" stop-color="#001C93"/>
</linearGradient>
<linearGradient id="paint7_linear_637_10842" x1="128.329" y1="107.629" x2="159.07" y2="-13.7643" gradientUnits="userSpaceOnUse">
<stop stop-color="#390F7C"/>
<stop offset="0.1919" stop-color="#8111D1"/>
<stop offset="0.3324" stop-color="#EA0AEA"/>
<stop offset="0.5216" stop-color="#EDD107"/>
<stop offset="0.6243" stop-color="#21C152"/>
<stop offset="0.7649" stop-color="#06B6ED"/>
<stop offset="0.9108" stop-color="#004FCE"/>
<stop offset="1" stop-color="#001C93"/>
</linearGradient>
<linearGradient id="paint8_linear_637_10842" x1="114.716" y1="122.257" x2="172.037" y2="-30.8417" gradientUnits="userSpaceOnUse">
<stop stop-color="#390F7C"/>
<stop offset="0.1919" stop-color="#8111D1"/>
<stop offset="0.3324" stop-color="#EA0AEA"/>
<stop offset="0.5216" stop-color="#EDD107"/>
<stop offset="0.6243" stop-color="#21C152"/>
<stop offset="0.7649" stop-color="#06B6ED"/>
<stop offset="0.9108" stop-color="#004FCE"/>
<stop offset="1" stop-color="#001C93"/>
</linearGradient>
<linearGradient id="paint9_linear_637_10842" x1="97.9593" y1="133.592" x2="188.146" y2="-44.6214" gradientUnits="userSpaceOnUse">
<stop stop-color="#390F7C"/>
<stop offset="0.1919" stop-color="#8111D1"/>
<stop offset="0.3324" stop-color="#EA0AEA"/>
<stop offset="0.5216" stop-color="#EDD107"/>
<stop offset="0.6243" stop-color="#21C152"/>
<stop offset="0.7649" stop-color="#06B6ED"/>
<stop offset="0.9108" stop-color="#004FCE"/>
<stop offset="1" stop-color="#001C93"/>
</linearGradient>
<linearGradient id="paint10_linear_637_10842" x1="78.8564" y1="141.026" x2="206.59" y2="-54.4847" gradientUnits="userSpaceOnUse">
<stop stop-color="#390F7C"/>
<stop offset="0.1919" stop-color="#8111D1"/>
<stop offset="0.3324" stop-color="#EA0AEA"/>
<stop offset="0.5216" stop-color="#EDD107"/>
<stop offset="0.6243" stop-color="#21C152"/>
<stop offset="0.7649" stop-color="#06B6ED"/>
<stop offset="0.9108" stop-color="#004FCE"/>
<stop offset="1" stop-color="#001C93"/>
</linearGradient>
<linearGradient id="paint11_linear_637_10842" x1="58.2518" y1="144.083" x2="226.378" y2="-60.0609" gradientUnits="userSpaceOnUse">
<stop stop-color="#390F7C"/>
<stop offset="0.1919" stop-color="#8111D1"/>
<stop offset="0.3324" stop-color="#EA0AEA"/>
<stop offset="0.5216" stop-color="#EDD107"/>
<stop offset="0.6243" stop-color="#21C152"/>
<stop offset="0.7649" stop-color="#06B6ED"/>
<stop offset="0.9108" stop-color="#004FCE"/>
<stop offset="1" stop-color="#001C93"/>
</linearGradient>
<linearGradient id="paint12_linear_637_10842" x1="36.0894" y1="141.39" x2="245.448" y2="-62.2766" gradientUnits="userSpaceOnUse">
<stop stop-color="#390F7C"/>
<stop offset="0.1919" stop-color="#8111D1"/>
<stop offset="0.3324" stop-color="#EA0AEA"/>
<stop offset="0.5216" stop-color="#EDD107"/>
<stop offset="0.6243" stop-color="#21C152"/>
<stop offset="0.7649" stop-color="#06B6ED"/>
<stop offset="0.9108" stop-color="#004FCE"/>
<stop offset="1" stop-color="#001C93"/>
</linearGradient>
<linearGradient id="paint13_linear_637_10842" x1="13.8468" y1="132.664" x2="263.269" y2="-61.4696" gradientUnits="userSpaceOnUse">
<stop stop-color="#390F7C"/>
<stop offset="0.1919" stop-color="#8111D1"/>
<stop offset="0.3324" stop-color="#EA0AEA"/>
<stop offset="0.5216" stop-color="#EDD107"/>
<stop offset="0.6243" stop-color="#21C152"/>
<stop offset="0.7649" stop-color="#06B6ED"/>
<stop offset="0.9108" stop-color="#004FCE"/>
<stop offset="1" stop-color="#001C93"/>
</linearGradient>
<linearGradient id="paint14_linear_637_10842" x1="-6.48744" y1="118.757" x2="279.827" y2="-57.2403" gradientUnits="userSpaceOnUse">
<stop stop-color="#390F7C"/>
<stop offset="0.1919" stop-color="#8111D1"/>
<stop offset="0.3324" stop-color="#EA0AEA"/>
<stop offset="0.5216" stop-color="#EDD107"/>
<stop offset="0.6243" stop-color="#21C152"/>
<stop offset="0.7649" stop-color="#06B6ED"/>
<stop offset="0.9108" stop-color="#004FCE"/>
<stop offset="1" stop-color="#001C93"/>
</linearGradient>
<linearGradient id="paint15_linear_637_10842" x1="-23.53" y1="100.652" x2="294.661" y2="-49.5062" gradientUnits="userSpaceOnUse">
<stop stop-color="#390F7C"/>
<stop offset="0.1919" stop-color="#8111D1"/>
<stop offset="0.3324" stop-color="#EA0AEA"/>
<stop offset="0.5216" stop-color="#EDD107"/>
<stop offset="0.6243" stop-color="#21C152"/>
<stop offset="0.7649" stop-color="#06B6ED"/>
<stop offset="0.9108" stop-color="#004FCE"/>
<stop offset="1" stop-color="#001C93"/>
</linearGradient>
<linearGradient id="paint16_linear_637_10842" x1="-35.0215" y1="83.24" x2="308.439" y2="-34.6702" gradientUnits="userSpaceOnUse">
<stop stop-color="#390F7C"/>
<stop offset="0.1919" stop-color="#8111D1"/>
<stop offset="0.3324" stop-color="#EA0AEA"/>
<stop offset="0.5216" stop-color="#EDD107"/>
<stop offset="0.6243" stop-color="#21C152"/>
<stop offset="0.7649" stop-color="#06B6ED"/>
<stop offset="0.9108" stop-color="#004FCE"/>
<stop offset="1" stop-color="#001C93"/>
</linearGradient>
<linearGradient id="paint17_linear_637_10842" x1="-41.1865" y1="70.0588" x2="319.67" y2="-10.8109" gradientUnits="userSpaceOnUse">
<stop stop-color="#390F7C"/>
<stop offset="0.1919" stop-color="#8111D1"/>
<stop offset="0.3324" stop-color="#EA0AEA"/>
<stop offset="0.5216" stop-color="#EDD107"/>
<stop offset="0.6243" stop-color="#21C152"/>
<stop offset="0.7649" stop-color="#06B6ED"/>
<stop offset="0.9108" stop-color="#004FCE"/>
<stop offset="1" stop-color="#001C93"/>
</linearGradient>
<linearGradient id="paint18_linear_637_10842" x1="-44.4159" y1="56.4648" x2="325.085" y2="15.5685" gradientUnits="userSpaceOnUse">
<stop stop-color="#390F7C"/>
<stop offset="0.1919" stop-color="#8111D1"/>
<stop offset="0.3324" stop-color="#EA0AEA"/>
<stop offset="0.5216" stop-color="#EDD107"/>
<stop offset="0.6243" stop-color="#21C152"/>
<stop offset="0.7649" stop-color="#06B6ED"/>
<stop offset="0.9108" stop-color="#004FCE"/>
<stop offset="1" stop-color="#001C93"/>
</linearGradient>
<linearGradient id="paint19_linear_637_10842" x1="-44.7481" y1="43.112" x2="324.2" y2="43.112" gradientUnits="userSpaceOnUse">
<stop stop-color="#390F7C"/>
<stop offset="0.1919" stop-color="#8111D1"/>
<stop offset="0.3324" stop-color="#EA0AEA"/>
<stop offset="0.5216" stop-color="#EDD107"/>
<stop offset="0.6243" stop-color="#21C152"/>
<stop offset="0.7649" stop-color="#06B6ED"/>
<stop offset="0.9108" stop-color="#004FCE"/>
<stop offset="1" stop-color="#001C93"/>
</linearGradient>
</defs>
</svg>
