<svg width="696" height="149" viewBox="0 0 696 149" fill="none" xmlns="http://www.w3.org/2000/svg">
<path d="M707 59.0787C707 59.0787 640.029 91.0761 602.078 62.0552C564.128 33.0344 501.621 -39.8898 449.533 15.1754C397.444 70.2406 420.512 105.214 372.888 126.05C325.264 146.885 270.199 147.63 253.828 83.6348C237.457 19.6401 171.23 11.4548 119.886 31.5461C68.541 51.6375 -24.4746 117.12 -24.4746 117.12" stroke="url(#paint0_linear_637_9949)" stroke-width="0.5" stroke-miterlimit="10"/>
<path d="M-25.5161 115.93C-25.3673 115.632 64.2253 49.7028 115.272 29.3138C161.408 10.8595 217.664 17.5566 239.988 65.7759C242.518 71.2824 244.75 77.2354 246.387 83.7837C262.758 147.034 318.418 148.225 364.107 124.264C398.337 106.256 397.444 84.6766 413.964 56.5487C419.917 46.4286 428.995 34.8203 443.431 21.5749C460.993 5.5018 479.893 1.63235 498.05 3.56708C523.797 6.24592 548.055 22.4678 569.932 38.3921C580.35 45.9822 590.173 53.8699 599.102 59.9717C617.408 72.6218 641.517 73.6636 662.65 69.6453C688.248 64.8829 706.851 55.507 706.851 55.507" stroke="url(#paint1_linear_637_9949)" stroke-width="0.5" stroke-miterlimit="10"/>
<path d="M-26.707 114.59C-26.4094 113.995 59.7602 47.4704 110.658 26.7837C156.794 7.88299 211.264 16.6637 232.695 65.4782C235.076 70.9847 237.16 76.9377 238.945 83.486C255.167 146.141 311.572 148.969 355.327 122.032C389.11 101.196 390.152 80.8072 406.82 57.5905C412.773 49.2563 422.447 39.4339 437.18 27.6767C455.337 13.2407 475.131 10.1154 493.287 10.7107C519.48 11.4548 542.846 24.2537 565.318 37.7968C575.885 44.1963 586.303 51.6375 595.679 57.5905C614.58 69.4965 639.284 71.1336 661.013 66.6688C688.397 61.1623 706.256 51.7863 706.256 51.7863" stroke="url(#paint2_linear_637_9949)" stroke-width="0.5" stroke-miterlimit="10"/>
<path d="M-27.7485 113.251C-27.3021 112.507 55.4446 45.3868 106.045 24.4025C152.181 5.05529 204.865 15.7707 225.403 65.4782C227.635 70.9847 229.719 76.9377 231.504 83.486C247.726 145.397 304.726 150.011 346.546 120.097C379.734 96.4338 382.859 77.2354 399.677 58.7811C405.63 52.2328 415.75 44.1962 431.079 33.9273C449.831 21.2772 470.666 18.7472 488.823 17.8542C515.462 16.6636 538.084 26.0396 560.854 37.2015C571.569 42.4103 582.434 49.4051 592.554 55.2093C612.199 66.52 637.35 68.6035 659.823 63.6923C689.141 57.2928 706.107 48.0657 706.107 48.0657" stroke="url(#paint3_linear_637_9949)" stroke-width="0.5" stroke-miterlimit="10"/>
<path d="M-28.7905 111.912C-28.1952 110.87 51.1285 43.3033 101.431 21.8725C147.567 2.0788 198.465 14.8777 218.11 65.3294C220.342 70.9847 222.277 76.9377 223.914 83.3372C239.987 144.653 297.731 150.606 337.616 118.162C370.358 91.3738 375.567 73.5148 392.533 59.9717C398.486 55.2093 409.201 48.9587 424.828 40.3268C444.175 29.4626 465.904 27.5279 484.209 25.2955C511.444 22.0213 533.024 28.1232 556.389 36.9038C567.253 41.0709 578.564 47.4704 589.428 53.1258C609.668 63.6923 635.415 66.3712 658.483 61.0135C689.587 53.8699 705.809 44.4939 705.809 44.4939" stroke="url(#paint4_linear_637_9949)" stroke-width="0.5" stroke-miterlimit="10"/>
<path d="M-29.832 110.572C-29.0879 109.233 46.8128 41.2198 96.9668 19.4913C143.251 -0.748871 192.364 13.9848 210.967 65.1806C213.05 70.8359 214.985 76.7889 216.622 83.0396C232.695 143.611 291.034 151.053 328.985 115.93C361.131 86.1649 368.572 69.6453 385.538 61.0135C391.64 58.037 402.802 53.5722 418.875 46.4286C438.818 37.3503 461.439 35.8621 479.744 32.4391C507.426 27.2302 528.113 29.9091 552.073 36.3085C563.086 39.285 574.992 45.238 586.452 50.7445C607.287 60.7158 633.481 63.8411 657.441 58.037C690.332 50.1492 705.81 40.7733 705.81 40.7733" stroke="url(#paint5_linear_637_9949)" stroke-width="0.5" stroke-miterlimit="10"/>
<path d="M-30.874 109.382C-29.9811 107.744 42.4967 39.1362 92.353 17.1101C138.638 -3.57655 185.964 13.0918 203.674 65.1806C205.609 70.8359 207.543 76.7889 209.181 83.0396C225.254 142.867 284.039 151.648 320.204 113.995C351.755 81.1048 361.726 65.9247 378.394 62.3529C384.645 61.0135 396.253 58.4834 412.624 52.8281C433.162 45.5357 456.676 44.4939 475.131 39.7315C503.407 32.4391 523.052 31.8438 547.608 36.0109C558.77 37.7968 571.123 43.3033 583.178 48.661C604.608 58.037 631.397 61.4599 655.953 55.3581C690.629 46.5775 705.214 37.3503 705.214 37.3503" stroke="url(#paint6_linear_637_9949)" stroke-width="0.5" stroke-miterlimit="10"/>
<path d="M-31.916 108.042C-30.8742 106.256 38.1805 37.0526 87.7392 14.7289C134.024 -6.40425 179.713 12.3477 196.381 65.1805C198.167 70.8359 200.102 76.7889 201.739 83.0395C217.663 142.272 277.045 152.243 311.423 112.06C342.23 76.0447 355.475 59.2275 371.251 63.6923C377.501 65.3294 389.705 63.5435 406.522 59.2275C427.804 53.721 452.211 53.1257 470.666 47.1727C499.538 37.7968 518.141 34.0761 543.143 35.7132C554.454 36.4573 567.253 41.3686 580.052 46.5774C602.078 55.3581 629.462 59.2275 654.762 52.6792C691.224 43.1544 705.065 33.9273 705.065 33.9273" stroke="url(#paint7_linear_637_9949)" stroke-width="0.5" stroke-miterlimit="10"/>
<path d="M-32.9575 106.703C-31.7669 104.619 33.8649 34.9691 83.2747 12.1989C129.559 -9.3807 173.463 11.306 189.238 64.8829C190.875 70.6871 192.661 76.6401 194.447 82.7419C210.371 141.23 270.05 152.392 302.791 109.828C333.003 70.5383 348.481 58.9299 364.256 64.5853C370.953 66.9665 383.306 68.0083 400.421 65.1806C422.298 61.46 447.598 61.3111 466.052 54.1675C495.371 42.5592 513.081 35.7132 538.679 34.9691C550.138 34.5226 563.384 39.1362 576.927 44.0474C599.548 52.2328 627.527 56.5487 653.423 49.554C691.671 39.1362 704.768 29.9091 704.768 29.9091" stroke="url(#paint8_linear_637_9949)" stroke-width="0.5" stroke-miterlimit="10"/>
<path d="M-33.9995 105.363C-32.6601 102.982 29.5487 32.8856 78.6609 9.81771C124.945 -12.0595 167.212 10.413 181.945 64.8829C183.583 70.6871 185.22 76.6401 186.857 82.7419C202.632 140.635 262.906 152.838 293.862 107.893C323.18 65.3294 341.337 55.8046 357.112 65.9247C363.958 70.2406 376.757 72.9195 394.319 71.58C416.94 69.7941 442.984 69.943 461.587 61.46C491.501 47.7681 508.17 37.7968 534.363 34.5226C545.971 33.0344 559.663 37.0527 573.801 41.8151C597.018 49.4051 625.592 54.1675 652.232 46.5775C692.415 35.4156 704.619 26.1885 704.619 26.1885" stroke="url(#paint9_linear_637_9949)" stroke-width="0.5" stroke-miterlimit="10"/>
<path d="M-35.041 104.173C-33.4039 101.494 25.2331 30.802 74.0477 7.43651C120.481 -14.8872 160.813 9.52006 174.653 64.8829C176.142 70.6871 177.779 76.6401 179.416 82.7419C195.191 139.891 255.614 153.285 285.081 105.959C313.656 59.9717 334.342 52.8281 349.969 67.1153C356.815 73.366 370.209 77.0866 388.068 77.8307C411.285 78.7237 438.222 78.426 456.825 68.7524C487.186 52.8281 502.961 39.8803 529.75 34.0762C541.507 31.5462 555.645 35.1179 570.528 39.5827C594.34 46.7263 623.36 51.6375 650.744 43.7498C692.713 31.695 704.172 22.6167 704.172 22.6167" stroke="url(#paint10_linear_637_9949)" stroke-width="0.5" stroke-miterlimit="10"/>
<path d="M-36.083 102.833C-34.2971 100.006 20.9169 28.7185 69.4339 5.05531C115.867 -17.7149 154.562 8.77593 167.361 64.7341C168.7 70.6871 170.337 76.6401 171.974 82.5931C187.75 139.147 248.321 153.583 276.3 104.024C303.982 54.7628 327.199 49.7028 342.825 68.4547C349.671 76.7889 363.661 82.7419 381.966 84.2302C405.927 86.1649 433.757 87.0578 452.36 76.1936C483.167 58.1858 498.05 42.1127 525.433 33.7785C537.191 30.2067 551.924 33.1832 567.551 37.4991C591.958 44.0474 621.574 49.4051 649.553 41.0709C693.308 28.1232 703.874 19.0449 703.874 19.0449" stroke="url(#paint11_linear_637_9949)" stroke-width="0.5" stroke-miterlimit="10"/>
<path d="M-37.2734 101.494C-35.3387 98.3686 16.4524 26.6349 64.8204 2.67413C111.254 -20.5426 148.311 7.883 160.068 64.7341C161.259 70.6871 162.896 76.6401 164.533 82.5931C180.16 138.402 241.029 153.88 267.52 102.089C294.308 49.554 320.055 46.5775 335.682 69.6453C342.528 79.9143 357.113 87.5043 375.716 90.4808C400.272 94.2015 428.995 95.5409 447.747 83.3372C479.149 63.097 492.99 44.0475 520.82 33.1832C532.726 28.5697 547.906 31.0997 564.128 35.118C588.982 41.2198 619.342 46.8751 648.065 38.0945C693.606 24.2537 703.428 15.3243 703.428 15.3243" stroke="url(#paint12_linear_637_9949)" stroke-width="0.5" stroke-miterlimit="10"/>
<path d="M-38.3154 100.154C-36.2319 96.7315 12.1362 24.5514 60.2067 0.144106C106.789 -23.5191 142.06 6.99005 152.776 64.5853C153.818 70.5383 155.455 76.4913 157.092 82.4443C172.718 137.509 233.736 154.178 258.59 100.006C284.337 44.0475 312.614 43.1545 328.389 70.8359C335.235 82.8907 350.415 92.4155 369.465 96.7315C394.765 102.387 424.232 104.024 442.984 90.6296C474.833 68.1571 487.781 46.2798 516.206 32.7368C528.261 26.9326 543.888 29.165 560.854 32.8856C586.303 38.3921 617.258 44.3451 646.577 35.2668C693.903 20.6819 702.981 11.7524 702.981 11.7524" stroke="url(#paint13_linear_637_9949)" stroke-width="0.5" stroke-miterlimit="10"/>
<path d="M-39.3569 98.9638C-37.1246 95.2432 7.82056 22.4678 55.5934 -2.08832C102.027 -26.198 135.661 6.09705 145.335 64.5852C146.377 70.5382 147.716 76.4912 149.502 82.4442C164.98 136.914 226.147 154.624 249.661 98.0708C274.366 38.8385 305.322 39.8803 321.246 72.0265C328.241 86.016 343.867 97.3267 363.214 102.982C389.11 110.423 419.47 112.358 438.371 97.922C470.815 73.0683 483.018 48.2145 511.891 32.1414C524.243 25.2955 540.167 27.0814 557.877 30.5043C583.922 35.5644 615.324 41.815 645.535 32.2902C694.647 16.8124 702.982 7.88295 702.982 7.88295" stroke="url(#paint14_linear_637_9949)" stroke-width="0.5" stroke-miterlimit="10"/>
<path d="M-40.3989 97.6244C-38.0177 93.6061 3.50442 20.3843 51.1284 -4.61831C97.5618 -29.1744 129.559 5.20414 138.191 64.4365C139.084 70.5383 140.423 76.4913 142.06 82.2954C157.538 136.021 218.705 154.922 240.88 95.9873C264.394 33.332 298.029 36.4574 314.102 73.2171C321.097 89.1414 337.319 102.089 357.112 109.233C383.603 118.609 414.708 120.841 433.906 105.066C466.499 78.2772 477.958 50.2981 507.426 31.8438C519.927 23.9561 536.446 25.1467 554.752 28.4208C581.392 33.0344 613.389 39.4339 644.196 29.6114C695.094 13.2407 702.684 4.46001 702.684 4.46001" stroke="url(#paint15_linear_637_9949)" stroke-width="0.5" stroke-miterlimit="10"/>
<path d="M-41.4404 96.285C-38.9104 92.1179 -0.811231 18.3007 46.5151 -6.99951C93.0973 -32.0021 123.309 4.31118 130.899 64.4364C131.643 70.5383 132.982 76.4913 134.619 82.2954C150.097 135.426 211.264 155.368 232.1 94.0526C254.572 28.1232 290.886 33.1832 306.959 74.5565C313.953 92.4155 330.622 107.149 350.862 115.632C377.948 126.943 409.946 129.473 429.144 112.507C462.183 83.486 472.898 52.6793 502.663 31.5461C515.314 22.6166 532.28 23.3608 551.18 26.3373C578.415 30.5044 611.008 37.2015 642.559 26.9326C695.243 9.66888 702.089 1.03703 702.089 1.03703" stroke="url(#paint16_linear_637_9949)" stroke-width="0.5" stroke-miterlimit="10"/>
<path d="M-42.4824 94.9456C-39.8036 90.4808 -5.12737 16.2172 41.9013 -9.52952C88.4835 -34.9786 117.058 3.26941 123.606 64.1388C124.201 70.2406 125.541 76.1936 127.178 81.849C142.507 134.235 203.823 155.368 223.319 91.6714C244.601 22.319 283.742 29.4626 299.815 75.3007C306.81 94.9456 324.073 111.614 344.76 121.436C372.441 134.682 405.332 137.361 424.679 119.353C458.165 88.0996 467.987 54.3164 498.347 30.6532C511.146 20.6819 528.559 20.9796 548.204 23.6584C576.034 27.3791 609.073 34.225 641.368 23.6584C695.838 5.50179 701.791 -2.98123 701.791 -2.98123" stroke="url(#paint17_linear_637_9949)" stroke-width="0.5" stroke-miterlimit="10"/>
<path d="M-43.5244 93.6061C-40.6967 88.8437 -9.44351 13.9848 37.4363 -11.9107C84.0185 -37.8063 111.105 2.37645 116.462 64.1388C117.058 70.2406 118.248 76.1936 119.885 81.849C135.214 133.491 196.53 155.815 214.687 89.8855C234.778 17.2589 276.449 26.3373 292.82 76.7889C299.815 98.3685 317.674 116.674 338.658 127.985C366.935 143.016 400.718 146.141 420.214 126.794C454.146 93.3085 463.373 56.5487 494.18 30.3555C507.128 19.3425 524.987 19.1937 545.376 21.5749C573.801 24.7002 607.436 31.9926 640.326 20.9796C696.582 1.92998 701.791 -6.55304 701.791 -6.55304" stroke="url(#paint18_linear_637_9949)" stroke-width="0.5" stroke-miterlimit="10"/>
<path d="M-44.5659 92.4155C-41.5894 87.5043 -13.7592 12.0501 32.823 -14.2919C79.4052 -40.6339 104.705 1.63232 109.17 64.1388C113.635 126.645 187.006 163.851 205.906 87.9508C224.807 12.0501 269.455 22.9143 285.825 77.9795C302.196 133.045 381.52 169.804 415.749 134.086C449.979 98.3685 458.462 58.6323 489.715 29.9091C520.969 1.18586 580.945 37.7968 638.987 18.0031C697.029 -1.79064 701.493 -10.2737 701.493 -10.2737" stroke="url(#paint19_linear_637_9949)" stroke-width="0.5" stroke-miterlimit="10"/>
<defs>
<linearGradient id="paint0_linear_637_9949" x1="420.265" y1="225.075" x2="259.575" y2="-53.2481" gradientUnits="userSpaceOnUse">
<stop stop-color="#390F7C"/>
<stop offset="0.1919" stop-color="#8111D1"/>
<stop offset="0.3324" stop-color="#EA0AEA"/>
<stop offset="0.5216" stop-color="#EDD107"/>
<stop offset="0.6243" stop-color="#21C152"/>
<stop offset="0.7649" stop-color="#06B6ED"/>
<stop offset="0.9108" stop-color="#004FCE"/>
<stop offset="1" stop-color="#001C93"/>
</linearGradient>
<linearGradient id="paint1_linear_637_9949" x1="388.598" y1="195.474" x2="283.13" y2="-44.9695" gradientUnits="userSpaceOnUse">
<stop stop-color="#390F7C"/>
<stop offset="0.1919" stop-color="#8111D1"/>
<stop offset="0.3324" stop-color="#EA0AEA"/>
<stop offset="0.5216" stop-color="#EDD107"/>
<stop offset="0.6243" stop-color="#21C152"/>
<stop offset="0.7649" stop-color="#06B6ED"/>
<stop offset="0.9108" stop-color="#004FCE"/>
<stop offset="1" stop-color="#001C93"/>
</linearGradient>
<linearGradient id="paint2_linear_637_9949" x1="364.158" y1="161.15" x2="303.031" y2="-34.2852" gradientUnits="userSpaceOnUse">
<stop stop-color="#390F7C"/>
<stop offset="0.1919" stop-color="#8111D1"/>
<stop offset="0.3324" stop-color="#EA0AEA"/>
<stop offset="0.5216" stop-color="#EDD107"/>
<stop offset="0.6243" stop-color="#21C152"/>
<stop offset="0.7649" stop-color="#06B6ED"/>
<stop offset="0.9108" stop-color="#004FCE"/>
<stop offset="1" stop-color="#001C93"/>
</linearGradient>
<linearGradient id="paint3_linear_637_9949" x1="348.581" y1="129.179" x2="319.395" y2="-20.2357" gradientUnits="userSpaceOnUse">
<stop stop-color="#390F7C"/>
<stop offset="0.1919" stop-color="#8111D1"/>
<stop offset="0.3324" stop-color="#EA0AEA"/>
<stop offset="0.5216" stop-color="#EDD107"/>
<stop offset="0.6243" stop-color="#21C152"/>
<stop offset="0.7649" stop-color="#06B6ED"/>
<stop offset="0.9108" stop-color="#004FCE"/>
<stop offset="1" stop-color="#001C93"/>
</linearGradient>
<linearGradient id="paint4_linear_637_9949" x1="343.029" y1="133.469" x2="331.698" y2="-3.27711" gradientUnits="userSpaceOnUse">
<stop stop-color="#390F7C"/>
<stop offset="0.1919" stop-color="#8111D1"/>
<stop offset="0.3324" stop-color="#EA0AEA"/>
<stop offset="0.5216" stop-color="#EDD107"/>
<stop offset="0.6243" stop-color="#21C152"/>
<stop offset="0.7649" stop-color="#06B6ED"/>
<stop offset="0.9108" stop-color="#004FCE"/>
<stop offset="1" stop-color="#001C93"/>
</linearGradient>
<linearGradient id="paint5_linear_637_9949" x1="336.043" y1="139.113" x2="339.438" y2="15.9716" gradientUnits="userSpaceOnUse">
<stop stop-color="#390F7C"/>
<stop offset="0.1919" stop-color="#8111D1"/>
<stop offset="0.3324" stop-color="#EA0AEA"/>
<stop offset="0.5216" stop-color="#EDD107"/>
<stop offset="0.6243" stop-color="#21C152"/>
<stop offset="0.7649" stop-color="#06B6ED"/>
<stop offset="0.9108" stop-color="#004FCE"/>
<stop offset="1" stop-color="#001C93"/>
</linearGradient>
<linearGradient id="paint6_linear_637_9949" x1="325.258" y1="158.868" x2="349.019" y2="-12.4848" gradientUnits="userSpaceOnUse">
<stop stop-color="#390F7C"/>
<stop offset="0.1919" stop-color="#8111D1"/>
<stop offset="0.3324" stop-color="#EA0AEA"/>
<stop offset="0.5216" stop-color="#EDD107"/>
<stop offset="0.6243" stop-color="#21C152"/>
<stop offset="0.7649" stop-color="#06B6ED"/>
<stop offset="0.9108" stop-color="#004FCE"/>
<stop offset="1" stop-color="#001C93"/>
</linearGradient>
<linearGradient id="paint7_linear_637_9949" x1="305.375" y1="193.559" x2="367.595" y2="-52.1431" gradientUnits="userSpaceOnUse">
<stop stop-color="#390F7C"/>
<stop offset="0.1919" stop-color="#8111D1"/>
<stop offset="0.3324" stop-color="#EA0AEA"/>
<stop offset="0.5216" stop-color="#EDD107"/>
<stop offset="0.6243" stop-color="#21C152"/>
<stop offset="0.7649" stop-color="#06B6ED"/>
<stop offset="0.9108" stop-color="#004FCE"/>
<stop offset="1" stop-color="#001C93"/>
</linearGradient>
<linearGradient id="paint8_linear_637_9949" x1="277.822" y1="223.167" x2="393.842" y2="-86.708" gradientUnits="userSpaceOnUse">
<stop stop-color="#390F7C"/>
<stop offset="0.1919" stop-color="#8111D1"/>
<stop offset="0.3324" stop-color="#EA0AEA"/>
<stop offset="0.5216" stop-color="#EDD107"/>
<stop offset="0.6243" stop-color="#21C152"/>
<stop offset="0.7649" stop-color="#06B6ED"/>
<stop offset="0.9108" stop-color="#004FCE"/>
<stop offset="1" stop-color="#001C93"/>
</linearGradient>
<linearGradient id="paint9_linear_637_9949" x1="243.907" y1="246.109" x2="426.446" y2="-114.598" gradientUnits="userSpaceOnUse">
<stop stop-color="#390F7C"/>
<stop offset="0.1919" stop-color="#8111D1"/>
<stop offset="0.3324" stop-color="#EA0AEA"/>
<stop offset="0.5216" stop-color="#EDD107"/>
<stop offset="0.6243" stop-color="#21C152"/>
<stop offset="0.7649" stop-color="#06B6ED"/>
<stop offset="0.9108" stop-color="#004FCE"/>
<stop offset="1" stop-color="#001C93"/>
</linearGradient>
<linearGradient id="paint10_linear_637_9949" x1="205.242" y1="261.155" x2="463.777" y2="-134.562" gradientUnits="userSpaceOnUse">
<stop stop-color="#390F7C"/>
<stop offset="0.1919" stop-color="#8111D1"/>
<stop offset="0.3324" stop-color="#EA0AEA"/>
<stop offset="0.5216" stop-color="#EDD107"/>
<stop offset="0.6243" stop-color="#21C152"/>
<stop offset="0.7649" stop-color="#06B6ED"/>
<stop offset="0.9108" stop-color="#004FCE"/>
<stop offset="1" stop-color="#001C93"/>
</linearGradient>
<linearGradient id="paint11_linear_637_9949" x1="163.539" y1="267.343" x2="503.828" y2="-145.848" gradientUnits="userSpaceOnUse">
<stop stop-color="#390F7C"/>
<stop offset="0.1919" stop-color="#8111D1"/>
<stop offset="0.3324" stop-color="#EA0AEA"/>
<stop offset="0.5216" stop-color="#EDD107"/>
<stop offset="0.6243" stop-color="#21C152"/>
<stop offset="0.7649" stop-color="#06B6ED"/>
<stop offset="0.9108" stop-color="#004FCE"/>
<stop offset="1" stop-color="#001C93"/>
</linearGradient>
<linearGradient id="paint12_linear_637_9949" x1="118.682" y1="261.892" x2="542.426" y2="-150.333" gradientUnits="userSpaceOnUse">
<stop stop-color="#390F7C"/>
<stop offset="0.1919" stop-color="#8111D1"/>
<stop offset="0.3324" stop-color="#EA0AEA"/>
<stop offset="0.5216" stop-color="#EDD107"/>
<stop offset="0.6243" stop-color="#21C152"/>
<stop offset="0.7649" stop-color="#06B6ED"/>
<stop offset="0.9108" stop-color="#004FCE"/>
<stop offset="1" stop-color="#001C93"/>
</linearGradient>
<linearGradient id="paint13_linear_637_9949" x1="73.6624" y1="244.229" x2="578.497" y2="-148.699" gradientUnits="userSpaceOnUse">
<stop stop-color="#390F7C"/>
<stop offset="0.1919" stop-color="#8111D1"/>
<stop offset="0.3324" stop-color="#EA0AEA"/>
<stop offset="0.5216" stop-color="#EDD107"/>
<stop offset="0.6243" stop-color="#21C152"/>
<stop offset="0.7649" stop-color="#06B6ED"/>
<stop offset="0.9108" stop-color="#004FCE"/>
<stop offset="1" stop-color="#001C93"/>
</linearGradient>
<linearGradient id="paint14_linear_637_9949" x1="32.5057" y1="216.082" x2="612.011" y2="-140.139" gradientUnits="userSpaceOnUse">
<stop stop-color="#390F7C"/>
<stop offset="0.1919" stop-color="#8111D1"/>
<stop offset="0.3324" stop-color="#EA0AEA"/>
<stop offset="0.5216" stop-color="#EDD107"/>
<stop offset="0.6243" stop-color="#21C152"/>
<stop offset="0.7649" stop-color="#06B6ED"/>
<stop offset="0.9108" stop-color="#004FCE"/>
<stop offset="1" stop-color="#001C93"/>
</linearGradient>
<linearGradient id="paint15_linear_637_9949" x1="-1.989" y1="179.437" x2="642.035" y2="-124.485" gradientUnits="userSpaceOnUse">
<stop stop-color="#390F7C"/>
<stop offset="0.1919" stop-color="#8111D1"/>
<stop offset="0.3324" stop-color="#EA0AEA"/>
<stop offset="0.5216" stop-color="#EDD107"/>
<stop offset="0.6243" stop-color="#21C152"/>
<stop offset="0.7649" stop-color="#06B6ED"/>
<stop offset="0.9108" stop-color="#004FCE"/>
<stop offset="1" stop-color="#001C93"/>
</linearGradient>
<linearGradient id="paint16_linear_637_9949" x1="-25.2478" y1="144.195" x2="669.922" y2="-94.457" gradientUnits="userSpaceOnUse">
<stop stop-color="#390F7C"/>
<stop offset="0.1919" stop-color="#8111D1"/>
<stop offset="0.3324" stop-color="#EA0AEA"/>
<stop offset="0.5216" stop-color="#EDD107"/>
<stop offset="0.6243" stop-color="#21C152"/>
<stop offset="0.7649" stop-color="#06B6ED"/>
<stop offset="0.9108" stop-color="#004FCE"/>
<stop offset="1" stop-color="#001C93"/>
</linearGradient>
<linearGradient id="paint17_linear_637_9949" x1="-37.7257" y1="117.516" x2="692.652" y2="-46.1654" gradientUnits="userSpaceOnUse">
<stop stop-color="#390F7C"/>
<stop offset="0.1919" stop-color="#8111D1"/>
<stop offset="0.3324" stop-color="#EA0AEA"/>
<stop offset="0.5216" stop-color="#EDD107"/>
<stop offset="0.6243" stop-color="#21C152"/>
<stop offset="0.7649" stop-color="#06B6ED"/>
<stop offset="0.9108" stop-color="#004FCE"/>
<stop offset="1" stop-color="#001C93"/>
</linearGradient>
<linearGradient id="paint18_linear_637_9949" x1="-44.2624" y1="90.0017" x2="703.613" y2="7.22696" gradientUnits="userSpaceOnUse">
<stop stop-color="#390F7C"/>
<stop offset="0.1919" stop-color="#8111D1"/>
<stop offset="0.3324" stop-color="#EA0AEA"/>
<stop offset="0.5216" stop-color="#EDD107"/>
<stop offset="0.6243" stop-color="#21C152"/>
<stop offset="0.7649" stop-color="#06B6ED"/>
<stop offset="0.9108" stop-color="#004FCE"/>
<stop offset="1" stop-color="#001C93"/>
</linearGradient>
<linearGradient id="paint19_linear_637_9949" x1="-44.9346" y1="62.9753" x2="701.822" y2="62.9753" gradientUnits="userSpaceOnUse">
<stop stop-color="#390F7C"/>
<stop offset="0.1919" stop-color="#8111D1"/>
<stop offset="0.3324" stop-color="#EA0AEA"/>
<stop offset="0.5216" stop-color="#EDD107"/>
<stop offset="0.6243" stop-color="#21C152"/>
<stop offset="0.7649" stop-color="#06B6ED"/>
<stop offset="0.9108" stop-color="#004FCE"/>
<stop offset="1" stop-color="#001C93"/>
</linearGradient>
</defs>
</svg>
