<svg width="109" height="322" viewBox="0 0 109 322" fill="none" xmlns="http://www.w3.org/2000/svg">
<path d="M56.0746 -2.90888C56.0746 -2.90888 71.6792 37.6724 52.986 58.4992C34.2927 79.3261 -11.1685 112.473 18.5917 145.425C48.352 178.376 69.8369 166.514 79.8133 195.284C89.7898 224.053 87.6911 256.244 49.5669 262.86C11.4427 269.476 3.61593 307.774 12.9866 338.683C22.3574 369.591 56.3184 426.922 56.3184 426.922" stroke="url(#paint0_linear_643_5958)" stroke-width="0.5" stroke-miterlimit="10"/>
<path d="M55.5753 427.475C55.4083 427.374 21.029 372.022 11.4708 341.274C2.81644 313.483 9.31537 280.939 38.501 270.121C41.8331 268.897 45.4122 267.867 49.3115 267.212C87.0012 260.562 90.257 228.113 78.3665 200.329C69.4252 179.512 56.7822 179.04 41.1163 168.099C35.4803 164.158 29.119 158.322 22.0482 149.282C13.4698 138.288 12.0797 127.072 14.0448 116.558C16.7936 101.646 27.3828 88.2261 37.6885 76.183C42.6002 70.4485 47.6582 65.0753 51.6323 60.1415C59.8618 50.0336 61.5793 36.0022 60.2049 23.4762C58.6014 8.30863 53.982 -2.9864 53.982 -2.9864" stroke="url(#paint1_linear_643_5958)" stroke-width="0.5" stroke-miterlimit="10"/>
<path d="M54.7382 428.109C54.4042 427.908 19.5198 374.527 9.78094 343.852C0.865868 316.04 8.49937 284.635 37.9916 274.366C41.3168 273.229 44.889 272.286 48.7952 271.544C86.1304 264.954 90.3765 232.145 76.6588 205.354C66.0456 184.667 54.1869 183.121 41.3959 172.319C36.8028 168.459 31.5118 162.358 25.3238 153.213C17.7288 141.946 16.8143 130.244 17.9972 119.668C19.6368 104.406 28.1859 91.3503 37.1285 78.85C41.3517 72.9738 46.1765 67.2325 50.0842 62.031C57.9064 51.5413 59.999 37.1896 58.3913 24.2954C56.4354 8.05073 51.7817 -2.80976 51.7817 -2.80976" stroke="url(#paint2_linear_643_5958)" stroke-width="0.5" stroke-miterlimit="10"/>
<path d="M53.9079 428.655C53.4939 428.36 18.1044 376.951 8.17799 346.436C-0.997805 318.604 7.68336 288.331 37.656 278.624C40.9743 277.574 44.5465 276.631 48.4527 275.889C85.3533 269.264 90.6698 236.19 75.1249 210.393C62.833 189.923 51.7655 187.215 41.7624 176.545C38.2122 172.768 33.9847 166.488 28.6931 157.064C22.1685 145.531 21.6495 133.248 21.9633 122.604C22.4936 106.992 29.0096 94.2131 36.5753 81.4294C40.1101 75.4115 44.6946 69.3889 48.5497 63.7461C56.0586 52.7944 58.4324 38.2025 56.5982 24.8533C54.2098 7.43769 49.602 -2.89449 49.602 -2.89449" stroke="url(#paint3_linear_643_5958)" stroke-width="0.5" stroke-miterlimit="10"/>
<path d="M53.0782 429.202C52.4972 428.807 16.6895 379.375 6.48867 349.014C-2.94786 321.162 6.86788 292.027 37.234 282.876C40.6392 281.833 44.2046 280.977 48.017 280.315C84.5632 273.75 90.696 240.303 73.5846 215.518C59.4472 195.166 49.2576 191.303 42.1294 180.772C39.6221 177.076 36.4649 170.531 32.143 161.009C26.6887 149.211 26.5585 136.433 26.097 125.64C25.4379 109.585 29.9939 97.2641 36.1965 84.0233C39.1298 77.8706 43.3872 71.5598 47.1896 65.4756C54.2913 54.142 57.0401 39.2299 54.9726 25.5125C52.2318 7.01975 47.5028 -2.88471 47.5028 -2.88471" stroke="url(#paint4_linear_643_5958)" stroke-width="0.5" stroke-miterlimit="10"/>
<path d="M52.2477 429.749C51.4998 429.253 15.2739 381.8 4.89237 351.512C-4.79804 323.552 6.06536 295.55 36.8181 287.041C40.2165 286.085 43.7819 285.229 47.5074 284.56C83.619 277.961 90.6483 244.234 71.8835 220.457C55.9805 200.315 46.6759 195.209 42.4156 184.905C40.9581 181.204 38.8643 174.481 35.4321 164.766C31.0481 152.702 31.2197 139.424 30.0629 128.576C28.2945 112.172 30.8105 100.214 35.6499 86.5164C37.8948 80.222 41.9189 73.5431 45.6617 67.1044C52.4432 55.3958 55.4733 40.2435 53.1861 25.984C50.093 6.41417 45.3297 -3.05575 45.3297 -3.05575" stroke="url(#paint5_linear_643_5958)" stroke-width="0.5" stroke-miterlimit="10"/>
<path d="M51.5047 430.302C50.5898 429.706 13.8588 384.224 3.28977 354.097C-6.66137 326.116 5.24971 299.246 36.4828 291.3C39.8743 290.43 43.4397 289.574 47.1652 288.906C82.8423 282.272 90.6743 248.346 70.35 225.495C52.5944 205.557 44.1884 199.036 42.8694 189.138C42.3747 185.426 41.4313 178.531 38.8819 168.71C35.5681 156.381 36.0415 142.602 34.1094 131.606C31.1517 114.758 31.7078 103.258 35.2709 89.1098C36.8273 82.6738 40.6113 75.7136 44.2946 68.9204C50.7558 56.8368 53.9871 41.3505 51.5535 26.7298C48.0211 6.0759 43.3036 -2.86572 43.3036 -2.86572" stroke="url(#paint6_linear_643_5958)" stroke-width="0.5" stroke-miterlimit="10"/>
<path d="M50.6743 430.849C49.6793 430.159 12.4432 386.649 1.68668 356.681C-8.52519 328.68 4.5273 302.862 36.147 295.558C39.5317 294.776 43.0971 293.92 46.8226 293.251C82.1452 286.677 90.6999 252.459 68.8159 230.534C49.201 210.887 39.9896 202.378 43.3226 193.371C44.5662 189.796 44.0847 182.588 42.338 172.568C40.1014 159.887 40.8766 145.606 38.2492 134.556C34.1021 117.264 32.7852 106.229 34.8914 91.7037C35.8463 85.1328 39.3031 77.8845 42.9338 70.6499C49.0747 58.1912 52.5941 42.3779 49.934 27.302C46.0492 5.57102 41.2976 -2.93604 41.2976 -2.93604" stroke="url(#paint7_linear_643_5958)" stroke-width="0.5" stroke-miterlimit="10"/>
<path d="M49.8446 431.396C48.6826 430.605 11.0283 389.073 0.00423346 359.172C-10.4684 331.15 3.63179 306.464 35.645 299.716C39.1097 299.027 42.6683 298.258 46.3137 297.496C81.2017 290.887 90.4654 256.55 67.1156 235.472C45.5613 216.022 39.4944 206.449 43.5227 197.497C45.2213 193.695 46.398 186.53 45.5341 176.405C44.3678 163.458 45.4448 148.677 42.1221 137.571C36.6919 119.916 33.5088 109.259 34.2519 94.2764C34.5183 87.5638 37.8219 80.0411 41.3129 72.3583C47.1336 59.5246 50.9412 43.3841 48.0477 27.9401C43.7236 5.12509 38.9377 -2.94744 38.9377 -2.94744" stroke="url(#paint8_linear_643_5958)" stroke-width="0.5" stroke-miterlimit="10"/>
<path d="M49.0146 431.942C47.6857 431.051 9.61319 391.498 -1.59841 361.756C-12.2448 333.721 2.82293 310.073 35.3096 303.974C38.7744 303.285 42.3261 302.603 45.9647 301.928C80.4982 295.379 90.3977 260.742 65.5751 240.597C42.0677 221.518 37.3408 210.477 43.9764 201.73C46.8117 197.931 48.9649 190.58 48.9906 180.263C48.9884 166.97 50.2734 151.768 46.1754 140.514C39.5559 122.415 34.4998 112.223 33.7928 96.776C33.4577 89.9286 36.4341 82.1178 39.8657 74.0804C45.3661 60.8717 49.4618 44.4042 46.2549 28.4982C41.5853 4.51917 36.7583 -3.0319 36.7583 -3.0319" stroke="url(#paint9_linear_643_5958)" stroke-width="0.5" stroke-miterlimit="10"/>
<path d="M48.2713 432.497C46.7822 431.417 8.19774 393.923 -3.20138 364.342C-14.1017 336.199 2.0069 313.769 34.974 308.234C38.4319 307.632 41.9836 306.949 45.6222 306.274C79.7212 299.691 90.3227 265.022 64.0411 245.636C38.5006 226.834 35.2807 214.425 44.3429 205.957C48.308 202.247 51.0969 194.596 52.3531 184.201C53.9426 170.684 55.008 154.94 50.2147 143.631C42.3121 125.169 35.4767 115.361 33.3196 99.4503C32.383 92.468 35.1193 84.376 38.4112 75.8904C43.6783 62.3135 47.8814 45.5921 44.535 29.2379C39.426 4.17484 34.6518 -2.93482 34.6518 -2.93482" stroke="url(#paint10_linear_643_5958)" stroke-width="0.5" stroke-miterlimit="10"/>
<path d="M47.4412 433.043C45.872 431.87 6.78246 396.347 -4.80417 366.926C-15.9652 338.762 1.2848 317.385 34.5516 312.485C38.0896 311.976 41.6413 311.294 45.193 310.612C78.9443 304.001 90.1611 269.293 62.5074 250.674C35.0138 232.243 33.1269 218.452 44.7964 210.19C49.9783 206.575 54.0983 198.68 55.8095 188.058C58.0416 174.155 59.8434 157.944 54.3548 146.58C45.256 127.762 36.5544 118.331 32.9472 101.956C31.4023 94.9262 33.8183 86.4591 37.0576 77.5322C42.0044 63.5802 46.4956 46.5317 42.9159 29.8093C37.3676 3.66228 32.5522 -2.92594 32.5522 -2.92594" stroke="url(#paint11_linear_643_5958)" stroke-width="0.5" stroke-miterlimit="10"/>
<path d="M46.604 433.677C44.8679 432.403 5.36015 398.859 -6.40715 369.511C-17.8289 341.327 0.475602 320.994 34.2159 316.744C37.7471 316.322 41.2988 315.64 44.8505 314.958C78.1604 308.4 89.9992 273.566 60.9734 255.714C31.5267 237.653 30.973 222.481 45.1629 214.417C51.4746 210.891 56.5779 202.723 59.1719 191.996C62.4744 177.828 64.5779 161.116 58.314 149.604C47.9389 130.335 37.4513 121.376 32.3872 104.624C30.2407 97.4587 32.4165 88.7104 35.5094 79.4221C40.216 65.1889 44.9153 47.7195 41.109 30.542C35.1215 3.31101 30.3588 -2.8358 30.3588 -2.8358" stroke="url(#paint12_linear_643_5958)" stroke-width="0.5" stroke-miterlimit="10"/>
<path d="M45.7739 434.224C43.8708 432.85 3.94481 401.284 -8.0969 372.089C-19.7725 343.798 -0.333454 324.604 33.7935 320.996C37.3178 320.661 40.8695 319.979 44.4212 319.297C77.2966 312.705 89.8375 277.839 59.3459 260.833C27.8523 243.223 28.6317 226.669 45.5226 218.73C52.8772 215.287 59.1378 206.86 62.5345 195.934C67.001 181.42 69.3126 164.287 62.3534 152.72C50.6953 133.088 38.5152 124.52 31.9142 107.298C29.0793 99.9909 31.1018 90.9681 34.055 81.2316C38.4415 66.6233 43.3419 48.82 39.3892 31.2812C33.0493 2.97302 28.2524 -2.73925 28.2524 -2.73925" stroke="url(#paint13_linear_643_5958)" stroke-width="0.5" stroke-miterlimit="10"/>
<path d="M45.031 434.777C42.9609 433.302 2.52986 403.708 -9.61246 374.68C-21.5557 346.455 -1.14899 328.299 33.4515 325.341C36.9758 325.006 40.5138 324.498 44.0723 323.729C76.5932 317.196 89.7494 282.291 57.8056 265.958C24.3521 248.806 26.3846 230.777 45.8896 222.956C54.3809 219.515 61.7049 210.91 65.8975 199.872C71.4343 185.092 73.9608 167.451 66.4001 155.75C53.3788 135.66 39.4263 127.39 31.3683 109.79C27.9387 102.262 29.7142 93.0447 32.5279 82.8599C36.681 67.8836 41.7758 49.8332 37.6034 31.7524C30.8242 2.36023 25.993 -2.9175 25.993 -2.9175" stroke="url(#paint14_linear_643_5958)" stroke-width="0.5" stroke-miterlimit="10"/>
<path d="M44.2011 435.324C41.9641 433.749 1.11477 406.132 -11.2951 377.171C-23.4991 348.926 -1.95096 331.822 33.0361 329.506C36.6405 329.265 40.1785 328.757 43.6433 328.068C75.7297 321.501 89.5811 286.65 56.1851 270.99C20.6779 254.376 24.0504 234.878 46.2564 227.183C55.8775 223.831 64.1849 214.953 69.2672 203.723C75.9612 188.684 78.6957 170.623 70.3665 158.686C56.2222 138.42 40.4104 130.441 30.9893 112.384C26.9582 104.721 28.4134 95.1284 31.1676 84.5892C35.0873 69.2446 40.2964 50.8535 35.9776 32.4113C28.7591 1.93517 23.9806 -2.90115 23.9806 -2.90115" stroke="url(#paint15_linear_643_5958)" stroke-width="0.5" stroke-miterlimit="10"/>
<path d="M43.3703 435.871C41.0532 434.202 -0.301185 408.557 -12.8986 379.756C-25.3564 351.403 -2.76064 335.431 32.7 333.765C36.2975 333.611 39.8355 333.102 43.3003 332.413C75.039 325.819 89.4988 291.017 54.6506 276.029C17.1836 259.872 21.809 238.899 46.7093 231.416C57.4602 228.153 66.8311 219.097 72.7161 207.668C80.5673 192.37 83.5167 173.801 74.4923 161.809C59.0648 141.18 41.5675 133.506 30.5957 115.152C25.9631 107.353 27.1781 97.48 29.7858 86.5794C33.4722 70.8666 38.8826 52.1416 34.3373 33.2443C26.6795 1.68417 21.9536 -2.71077 21.9536 -2.71077" stroke="url(#paint16_linear_643_5958)" stroke-width="0.5" stroke-miterlimit="10"/>
<path d="M42.5405 436.417C40.0564 434.648 -1.71615 410.981 -14.588 382.333C-27.3065 353.96 -3.65625 339.033 32.191 338.009C35.7817 337.942 39.3197 337.434 42.6975 336.738C73.9949 330.196 89.1568 295.362 52.8564 281.046C13.3357 265.428 19.308 242.899 46.8155 235.622C58.6094 232.441 69.1374 223.126 75.8251 211.498C84.8336 195.942 87.911 176.858 78.285 164.731C61.5745 143.739 42.2979 136.449 29.876 117.631C24.6419 109.698 25.6167 99.5429 28.0849 88.194C31.5379 72.1131 37.0557 53.1342 32.3708 33.7887C24.2737 1.14453 19.5937 -2.72211 19.5937 -2.72211" stroke="url(#paint17_linear_643_5958)" stroke-width="0.5" stroke-miterlimit="10"/>
<path d="M41.7106 436.964C39.0596 435.094 -3.21809 413.399 -16.1837 384.831C-29.163 356.437 -4.45132 342.468 31.8626 342.181C35.4533 342.114 38.9844 341.692 42.3623 340.996C73.2251 334.421 89.0823 299.641 51.4167 286.005C9.92914 270.931 17.1477 247.014 47.3631 239.775C60.2868 236.683 71.7982 227.096 79.3687 215.362C89.4474 199.541 92.8267 179.956 82.4254 167.681C64.4317 146.325 43.3896 139.245 29.5107 120.05C23.6751 111.982 24.4098 101.546 26.7383 89.7493C29.8711 73.2933 35.677 53.9873 30.7588 34.2736C22.2224 0.545491 17.5081 -2.88661 17.5081 -2.88661" stroke="url(#paint18_linear_643_5958)" stroke-width="0.5" stroke-miterlimit="10"/>
<path d="M40.9672 437.518C38.2361 435.554 -4.54668 415.83 -17.7867 387.416C-31.0267 359.001 -5.18049 346.171 31.5269 346.439C68.2343 346.708 93.337 305.573 49.8827 291.044C6.42836 276.514 14.8267 250.941 47.7364 243.915C80.646 236.888 105.762 192.256 86.4783 170.624C67.1947 148.991 44.3801 142.209 29.0444 122.637C13.7086 103.065 37.8475 69.7244 28.9587 34.9191C20.0699 0.113795 15.3215 -2.88374 15.3215 -2.88374" stroke="url(#paint19_linear_643_5958)" stroke-width="0.5" stroke-miterlimit="10"/>
<defs>
<linearGradient id="paint0_linear_643_5958" x1="139.821" y1="172.173" x2="-30.1045" y2="253.207" gradientUnits="userSpaceOnUse">
<stop stop-color="#390F7C"/>
<stop offset="0.1919" stop-color="#8111D1"/>
<stop offset="0.3324" stop-color="#EA0AEA"/>
<stop offset="0.5216" stop-color="#EDD107"/>
<stop offset="0.6243" stop-color="#21C152"/>
<stop offset="0.7649" stop-color="#06B6ED"/>
<stop offset="0.9108" stop-color="#004FCE"/>
<stop offset="1" stop-color="#001C93"/>
</linearGradient>
<linearGradient id="paint1_linear_643_5958" x1="121.077" y1="189.303" x2="-24.1864" y2="239.832" gradientUnits="userSpaceOnUse">
<stop stop-color="#390F7C"/>
<stop offset="0.1919" stop-color="#8111D1"/>
<stop offset="0.3324" stop-color="#EA0AEA"/>
<stop offset="0.5216" stop-color="#EDD107"/>
<stop offset="0.6243" stop-color="#21C152"/>
<stop offset="0.7649" stop-color="#06B6ED"/>
<stop offset="0.9108" stop-color="#004FCE"/>
<stop offset="1" stop-color="#001C93"/>
</linearGradient>
<linearGradient id="paint2_linear_643_5958" x1="99.9088" y1="201.997" x2="-17.0317" y2="228.702" gradientUnits="userSpaceOnUse">
<stop stop-color="#390F7C"/>
<stop offset="0.1919" stop-color="#8111D1"/>
<stop offset="0.3324" stop-color="#EA0AEA"/>
<stop offset="0.5216" stop-color="#EDD107"/>
<stop offset="0.6243" stop-color="#21C152"/>
<stop offset="0.7649" stop-color="#06B6ED"/>
<stop offset="0.9108" stop-color="#004FCE"/>
<stop offset="1" stop-color="#001C93"/>
</linearGradient>
<linearGradient id="paint3_linear_643_5958" x1="80.5223" y1="209.622" x2="-8.07447" y2="219.792" gradientUnits="userSpaceOnUse">
<stop stop-color="#390F7C"/>
<stop offset="0.1919" stop-color="#8111D1"/>
<stop offset="0.3324" stop-color="#EA0AEA"/>
<stop offset="0.5216" stop-color="#EDD107"/>
<stop offset="0.6243" stop-color="#21C152"/>
<stop offset="0.7649" stop-color="#06B6ED"/>
<stop offset="0.9108" stop-color="#004FCE"/>
<stop offset="1" stop-color="#001C93"/>
</linearGradient>
<linearGradient id="paint4_linear_643_5958" x1="82.7724" y1="213.062" x2="2.39522" y2="213.388" gradientUnits="userSpaceOnUse">
<stop stop-color="#390F7C"/>
<stop offset="0.1919" stop-color="#8111D1"/>
<stop offset="0.3324" stop-color="#EA0AEA"/>
<stop offset="0.5216" stop-color="#EDD107"/>
<stop offset="0.6243" stop-color="#21C152"/>
<stop offset="0.7649" stop-color="#06B6ED"/>
<stop offset="0.9108" stop-color="#004FCE"/>
<stop offset="1" stop-color="#001C93"/>
</linearGradient>
<linearGradient id="paint5_linear_643_5958" x1="85.7467" y1="217.401" x2="13.9916" y2="209.754" gradientUnits="userSpaceOnUse">
<stop stop-color="#390F7C"/>
<stop offset="0.1919" stop-color="#8111D1"/>
<stop offset="0.3324" stop-color="#EA0AEA"/>
<stop offset="0.5216" stop-color="#EDD107"/>
<stop offset="0.6243" stop-color="#21C152"/>
<stop offset="0.7649" stop-color="#06B6ED"/>
<stop offset="0.9108" stop-color="#004FCE"/>
<stop offset="1" stop-color="#001C93"/>
</linearGradient>
<linearGradient id="paint6_linear_643_5958" x1="96.7867" y1="224.608" x2="-2.18509" y2="202.849" gradientUnits="userSpaceOnUse">
<stop stop-color="#390F7C"/>
<stop offset="0.1919" stop-color="#8111D1"/>
<stop offset="0.3324" stop-color="#EA0AEA"/>
<stop offset="0.5216" stop-color="#EDD107"/>
<stop offset="0.6243" stop-color="#21C152"/>
<stop offset="0.7649" stop-color="#06B6ED"/>
<stop offset="0.9108" stop-color="#004FCE"/>
<stop offset="1" stop-color="#001C93"/>
</linearGradient>
<linearGradient id="paint7_linear_643_5958" x1="116.13" y1="237.815" x2="-24.4901" y2="190.177" gradientUnits="userSpaceOnUse">
<stop stop-color="#390F7C"/>
<stop offset="0.1919" stop-color="#8111D1"/>
<stop offset="0.3324" stop-color="#EA0AEA"/>
<stop offset="0.5216" stop-color="#EDD107"/>
<stop offset="0.6243" stop-color="#21C152"/>
<stop offset="0.7649" stop-color="#06B6ED"/>
<stop offset="0.9108" stop-color="#004FCE"/>
<stop offset="1" stop-color="#001C93"/>
</linearGradient>
<linearGradient id="paint8_linear_643_5958" x1="132.153" y1="255.267" x2="-43.4672" y2="173.259" gradientUnits="userSpaceOnUse">
<stop stop-color="#390F7C"/>
<stop offset="0.1919" stop-color="#8111D1"/>
<stop offset="0.3324" stop-color="#EA0AEA"/>
<stop offset="0.5216" stop-color="#EDD107"/>
<stop offset="0.6243" stop-color="#21C152"/>
<stop offset="0.7649" stop-color="#06B6ED"/>
<stop offset="0.9108" stop-color="#004FCE"/>
<stop offset="1" stop-color="#001C93"/>
</linearGradient>
<linearGradient id="paint9_linear_643_5958" x1="143.991" y1="276.128" x2="-58.2543" y2="152.936" gradientUnits="userSpaceOnUse">
<stop stop-color="#390F7C"/>
<stop offset="0.1919" stop-color="#8111D1"/>
<stop offset="0.3324" stop-color="#EA0AEA"/>
<stop offset="0.5216" stop-color="#EDD107"/>
<stop offset="0.6243" stop-color="#21C152"/>
<stop offset="0.7649" stop-color="#06B6ED"/>
<stop offset="0.9108" stop-color="#004FCE"/>
<stop offset="1" stop-color="#001C93"/>
</linearGradient>
<linearGradient id="paint10_linear_643_5958" x1="150.998" y1="299.4" x2="-68.1952" y2="130.218" gradientUnits="userSpaceOnUse">
<stop stop-color="#390F7C"/>
<stop offset="0.1919" stop-color="#8111D1"/>
<stop offset="0.3324" stop-color="#EA0AEA"/>
<stop offset="0.5216" stop-color="#EDD107"/>
<stop offset="0.6243" stop-color="#21C152"/>
<stop offset="0.7649" stop-color="#06B6ED"/>
<stop offset="0.9108" stop-color="#004FCE"/>
<stop offset="1" stop-color="#001C93"/>
</linearGradient>
<linearGradient id="paint11_linear_643_5958" x1="152.693" y1="324.038" x2="-72.9436" y2="106.31" gradientUnits="userSpaceOnUse">
<stop stop-color="#390F7C"/>
<stop offset="0.1919" stop-color="#8111D1"/>
<stop offset="0.3324" stop-color="#EA0AEA"/>
<stop offset="0.5216" stop-color="#EDD107"/>
<stop offset="0.6243" stop-color="#21C152"/>
<stop offset="0.7649" stop-color="#06B6ED"/>
<stop offset="0.9108" stop-color="#004FCE"/>
<stop offset="1" stop-color="#001C93"/>
</linearGradient>
<linearGradient id="paint12_linear_643_5958" x1="147.447" y1="349.983" x2="-73.7869" y2="83.5637" gradientUnits="userSpaceOnUse">
<stop stop-color="#390F7C"/>
<stop offset="0.1919" stop-color="#8111D1"/>
<stop offset="0.3324" stop-color="#EA0AEA"/>
<stop offset="0.5216" stop-color="#EDD107"/>
<stop offset="0.6243" stop-color="#21C152"/>
<stop offset="0.7649" stop-color="#06B6ED"/>
<stop offset="0.9108" stop-color="#004FCE"/>
<stop offset="1" stop-color="#001C93"/>
</linearGradient>
<linearGradient id="paint13_linear_643_5958" x1="135.061" y1="375.46" x2="-71.1737" y2="62.5747" gradientUnits="userSpaceOnUse">
<stop stop-color="#390F7C"/>
<stop offset="0.1919" stop-color="#8111D1"/>
<stop offset="0.3324" stop-color="#EA0AEA"/>
<stop offset="0.5216" stop-color="#EDD107"/>
<stop offset="0.6243" stop-color="#21C152"/>
<stop offset="0.7649" stop-color="#06B6ED"/>
<stop offset="0.9108" stop-color="#004FCE"/>
<stop offset="1" stop-color="#001C93"/>
</linearGradient>
<linearGradient id="paint14_linear_643_5958" x1="116.73" y1="398.199" x2="-64.6327" y2="43.397" gradientUnits="userSpaceOnUse">
<stop stop-color="#390F7C"/>
<stop offset="0.1919" stop-color="#8111D1"/>
<stop offset="0.3324" stop-color="#EA0AEA"/>
<stop offset="0.5216" stop-color="#EDD107"/>
<stop offset="0.6243" stop-color="#21C152"/>
<stop offset="0.7649" stop-color="#06B6ED"/>
<stop offset="0.9108" stop-color="#004FCE"/>
<stop offset="1" stop-color="#001C93"/>
</linearGradient>
<linearGradient id="paint15_linear_643_5958" x1="93.7442" y1="416.657" x2="-54.1099" y2="26.584" gradientUnits="userSpaceOnUse">
<stop stop-color="#390F7C"/>
<stop offset="0.1919" stop-color="#8111D1"/>
<stop offset="0.3324" stop-color="#EA0AEA"/>
<stop offset="0.5216" stop-color="#EDD107"/>
<stop offset="0.6243" stop-color="#21C152"/>
<stop offset="0.7649" stop-color="#06B6ED"/>
<stop offset="0.9108" stop-color="#004FCE"/>
<stop offset="1" stop-color="#001C93"/>
</linearGradient>
<linearGradient id="paint16_linear_643_5958" x1="72.0934" y1="428.619" x2="-35.292" y2="11.6805" gradientUnits="userSpaceOnUse">
<stop stop-color="#390F7C"/>
<stop offset="0.1919" stop-color="#8111D1"/>
<stop offset="0.3324" stop-color="#EA0AEA"/>
<stop offset="0.5216" stop-color="#EDD107"/>
<stop offset="0.6243" stop-color="#21C152"/>
<stop offset="0.7649" stop-color="#06B6ED"/>
<stop offset="0.9108" stop-color="#004FCE"/>
<stop offset="1" stop-color="#001C93"/>
</linearGradient>
<linearGradient id="paint17_linear_643_5958" x1="55.9399" y1="434.678" x2="-6.04506" y2="0.62791" gradientUnits="userSpaceOnUse">
<stop stop-color="#390F7C"/>
<stop offset="0.1919" stop-color="#8111D1"/>
<stop offset="0.3324" stop-color="#EA0AEA"/>
<stop offset="0.5216" stop-color="#EDD107"/>
<stop offset="0.6243" stop-color="#21C152"/>
<stop offset="0.7649" stop-color="#06B6ED"/>
<stop offset="0.9108" stop-color="#004FCE"/>
<stop offset="1" stop-color="#001C93"/>
</linearGradient>
<linearGradient id="paint18_linear_643_5958" x1="39.5718" y1="437.229" x2="25.6391" y2="-3.3167" gradientUnits="userSpaceOnUse">
<stop stop-color="#390F7C"/>
<stop offset="0.1919" stop-color="#8111D1"/>
<stop offset="0.3324" stop-color="#EA0AEA"/>
<stop offset="0.5216" stop-color="#EDD107"/>
<stop offset="0.6243" stop-color="#21C152"/>
<stop offset="0.7649" stop-color="#06B6ED"/>
<stop offset="0.9108" stop-color="#004FCE"/>
<stop offset="1" stop-color="#001C93"/>
</linearGradient>
<linearGradient id="paint19_linear_643_5958" x1="23.758" y1="436.379" x2="58.1119" y2="0.29402" gradientUnits="userSpaceOnUse">
<stop stop-color="#390F7C"/>
<stop offset="0.1919" stop-color="#8111D1"/>
<stop offset="0.3324" stop-color="#EA0AEA"/>
<stop offset="0.5216" stop-color="#EDD107"/>
<stop offset="0.6243" stop-color="#21C152"/>
<stop offset="0.7649" stop-color="#06B6ED"/>
<stop offset="0.9108" stop-color="#004FCE"/>
<stop offset="1" stop-color="#001C93"/>
</linearGradient>
</defs>
</svg>
