<svg width="149" height="606" viewBox="0 0 149 606" fill="none" xmlns="http://www.w3.org/2000/svg">
<path d="M73.4496 -1.99653C73.4496 -1.99653 100.028 54.7163 75.3015 86.5571C50.5744 118.398 -11.3535 170.684 34.7841 214.983C80.9217 259.283 110.578 240.038 127.86 280.355C145.142 320.672 145.424 367.142 91.3209 380.553C37.218 393.965 29.8945 449.797 46.5252 493.249C63.1558 536.701 117.827 615.601 117.827 615.601" stroke="url(#paint0_linear_713_5901)" stroke-width="0.5" stroke-miterlimit="10"/>
<path d="M116.815 616.472C116.565 616.345 61.4959 540.33 44.6122 497.128C29.3302 458.082 35.3351 410.654 76.1639 392.12C80.8263 390.02 85.8636 388.173 91.3995 386.833C144.875 373.417 146.229 326.457 126.298 287.753C111.318 258.756 93.1028 259.374 69.4718 245.257C60.9697 240.17 51.2314 232.437 40.1455 220.172C26.6931 205.252 23.5468 189.279 25.2936 173.971C27.7159 152.262 41.5569 131.894 55.1316 113.534C61.6018 104.791 68.3194 96.5519 73.5244 89.0554C84.3139 73.6884 85.3446 53.3508 82.0868 35.493C78.2291 13.863 70.4345 -1.89365 70.4345 -1.89365" stroke="url(#paint1_linear_713_5901)" stroke-width="0.5" stroke-miterlimit="10"/>
<path d="M115.678 617.469C115.177 617.214 59.584 544.084 42.4483 501.005C26.7895 461.956 34.5414 416.049 75.8668 398.272C80.5283 396.297 85.5647 394.577 91.1015 393.111C144.073 379.816 146.814 332.239 124.359 295.149C106.99 266.511 89.7918 265.503 70.3059 251.292C63.3108 246.216 55.0833 237.992 45.255 225.485C33.1878 210.074 30.675 193.352 31.2915 178.035C32.0841 155.937 43.0311 136.301 54.6003 117.423C60.0667 108.547 66.4113 99.8035 71.4935 91.9293C81.6589 76.0553 83.1956 55.2191 79.5648 36.8561C75.0905 13.7145 67.2912 -1.41424 67.2912 -1.41424" stroke="url(#paint2_linear_713_5901)" stroke-width="0.5" stroke-miterlimit="10"/>
<path d="M114.541 618.339C113.916 617.958 57.7988 547.712 40.41 504.883C24.3745 465.831 33.7476 421.442 75.821 404.425C80.4815 402.576 85.5179 400.855 91.0547 399.389C143.399 386.09 147.65 338.021 122.671 302.545C102.912 274.391 86.732 271.633 71.2657 257.327C65.7775 252.262 59.0598 243.672 50.4911 230.673C39.9346 214.77 37.9307 197.173 37.2914 181.846C36.4542 159.36 44.5081 140.33 54.0699 121.186C58.5326 112.177 64.5033 103.054 69.4646 94.5508C79.1323 78.0452 81.0486 56.835 77.0457 37.8413C71.8301 13.0615 64.1507 -1.31279 64.1507 -1.31279" stroke="url(#paint3_linear_713_5901)" stroke-width="0.5" stroke-miterlimit="10"/>
<path d="M113.404 619.21C112.529 618.701 56.0139 551.342 38.2465 508.76C21.8342 469.706 32.9543 426.837 75.6499 410.578C80.4361 408.73 85.4715 407.135 90.8818 405.793C142.722 392.616 148.109 343.928 120.983 310.068C98.584 282.272 83.547 277.764 72.2258 263.363C68.2446 258.31 63.0376 249.228 55.8521 235.988C46.8063 219.594 45.3104 201.247 43.5418 185.786C40.9503 162.785 46.2348 144.614 53.791 124.952C57.3756 115.811 62.8468 106.307 67.6872 97.1754C76.7307 80.1628 79.1531 58.454 74.7772 38.9552C68.9449 12.6638 61.1353 -1.08352 61.1353 -1.08352" stroke="url(#paint4_linear_713_5901)" stroke-width="0.5" stroke-miterlimit="10"/>
<path d="M112.267 620.081C111.142 619.444 54.2281 554.97 36.2085 512.513C19.4205 473.33 32.1619 431.98 75.4789 416.605C80.2641 414.882 85.2995 413.287 90.5842 411.945C141.797 398.763 148.443 349.582 119.044 317.338C94.1301 290.025 80.2374 283.642 73.0604 269.271C70.5871 264.104 66.8898 254.657 60.963 241.049C53.4279 224.164 52.3144 205.067 49.5411 189.599C45.3198 166.208 47.7104 148.769 53.261 128.59C55.8419 119.316 60.94 109.307 65.6586 99.6719C74.2036 82.1532 77.0055 60.0705 72.2585 39.8154C65.8095 12.0123 57.9952 -1.10712 57.9952 -1.10712" stroke="url(#paint5_linear_713_5901)" stroke-width="0.5" stroke-miterlimit="10"/>
<path d="M111.256 620.952C109.88 620.189 52.4429 558.599 34.1703 516.391C17.0056 477.205 31.3683 437.375 75.4331 422.758C80.2174 421.161 85.2528 419.566 90.5375 418.224C141.122 405.037 148.901 355.488 117.357 324.735C89.8015 297.905 77.0549 289.395 74.1458 275.308C73.0548 270.025 70.9929 260.214 66.3238 246.364C60.2995 228.988 59.5682 209.14 55.6657 193.538C49.69 169.631 49.3112 153.051 52.9819 132.356C54.5591 122.949 59.2833 112.56 63.88 102.422C71.9264 84.3968 74.9832 61.8136 69.9888 41.0543C62.7975 11.7387 55.1032 -0.626359 55.1032 -0.626359" stroke="url(#paint6_linear_713_5901)" stroke-width="0.5" stroke-miterlimit="10"/>
<path d="M110.12 621.824C108.619 620.933 50.658 562.228 32.1324 520.269C14.5909 481.081 30.7014 442.645 75.3876 428.912C80.171 427.441 85.2064 425.846 90.4911 424.503C140.573 411.439 149.36 361.394 115.669 332.132C85.4722 305.911 71.3648 294.628 75.2314 281.345C76.6521 276.08 75.2219 265.772 71.6858 251.554C67.1731 233.561 66.8243 212.962 61.917 197.352C54.187 172.931 51.1644 157.209 52.703 136.122C53.402 126.583 57.6267 115.813 62.1025 105.046C69.6504 86.5154 73.0877 63.4327 67.7212 42.0427C59.9132 11.2153 52.2142 -0.521731 52.2142 -0.521731" stroke="url(#paint7_linear_713_5901)" stroke-width="0.5" stroke-miterlimit="10"/>
<path d="M108.983 622.694C107.232 621.676 48.8729 565.856 29.9696 524.02C12.0513 484.829 29.7832 447.912 75.0918 434.937C79.9997 433.593 85.0342 432.123 90.1943 430.654C139.648 417.585 149.442 367.297 113.731 339.401C80.7679 313.661 71.0698 300.528 75.9411 287.252C77.9926 281.616 78.9493 271.199 76.6709 256.739C73.6689 238.255 73.7024 216.906 67.7905 201.289C58.1796 176.476 52.5142 161.489 52.0472 139.884C51.7425 130.212 55.7189 119.064 59.9482 107.667C66.9974 88.6299 70.8152 65.0477 65.0757 43.1525C56.5256 10.8126 48.8219 -0.296578 48.8219 -0.296578" stroke="url(#paint8_linear_713_5901)" stroke-width="0.5" stroke-miterlimit="10"/>
<path d="M107.846 623.564C105.845 622.419 47.0871 569.485 27.9308 527.898C9.76135 488.704 28.9899 453.181 75.0454 441.091C79.9533 439.746 84.9869 438.402 90.146 437.059C139.096 424.111 149.773 373.327 112.042 346.924C76.3102 321.917 68.3872 306.536 77.0259 293.288C80.7108 287.538 83.0518 276.755 82.032 261.928C80.6672 242.828 80.9566 220.853 73.9154 205.102C62.55 179.774 54.2409 165.646 51.6428 143.523C50.46 133.718 53.9368 122.19 58.0443 110.29C64.595 90.7467 68.7932 66.665 62.5561 44.1382C53.3902 10.161 45.6809 -0.194675 45.6809 -0.194675" stroke="url(#paint9_linear_713_5901)" stroke-width="0.5" stroke-miterlimit="10"/>
<path d="M106.834 624.437C104.584 623.038 45.3018 573.115 25.8925 531.777C7.34724 492.455 28.1962 458.576 74.9995 447.245C79.9066 446.026 84.9401 444.682 90.0993 443.339C138.422 430.387 150.104 379.485 110.354 354.322C71.7294 329.921 65.8316 312.421 77.9857 299.324C83.3031 293.587 86.5269 282.308 87.2671 267.243C88.1666 247.658 88.0848 224.926 80.039 209.167C66.7927 183.448 55.9663 170.055 51.2371 147.414C49.1761 137.477 52.279 125.57 56.14 113.04C62.3177 92.9914 66.6443 68.5339 60.1607 45.3773C50.2525 9.88756 42.6641 0.160709 42.6641 0.160709" stroke="url(#paint10_linear_713_5901)" stroke-width="0.5" stroke-miterlimit="10"/>
<path d="M105.698 625.306C103.323 623.781 43.5166 576.742 23.8542 535.654C4.93223 496.329 27.529 463.845 74.8281 453.397C79.8598 452.304 84.8934 450.96 89.9269 449.616C137.747 436.66 150.309 385.639 108.667 361.718C67.2733 338.05 63.1495 318.428 79.071 305.359C86.1466 299.635 91.2579 287.868 92.6288 272.431C94.412 252.224 95.3405 228.746 86.29 212.98C71.2884 186.872 57.8192 174.212 50.9588 151.053C48.0188 141.11 50.6231 128.696 54.3632 115.537C60.0423 94.9826 64.7494 70.0256 57.8928 46.3639C47.2424 9.36155 39.6483 0.388178 39.6483 0.388178" stroke="url(#paint11_linear_713_5901)" stroke-width="0.5" stroke-miterlimit="10"/>
<path d="M104.561 626.303C101.935 624.651 41.7309 580.498 21.8164 539.533C2.51772 500.205 26.7368 469.114 74.7828 459.551C79.8136 458.584 84.8471 457.24 89.8807 455.896C137.072 443.061 150.515 391.795 106.979 369.116C62.8176 346.181 60.4679 324.437 80.0313 311.396C88.7395 305.684 95.2358 293.424 97.8644 277.745C101.158 257.048 102.469 232.819 92.2895 216.919C75.4079 190.294 59.4205 178.495 50.428 154.943C46.6099 144.868 48.8402 132.074 52.3329 118.411C57.638 97.4775 62.6011 71.8944 55.3724 47.602C43.9797 9.08702 36.5065 0.742522 36.5065 0.742522" stroke="url(#paint12_linear_713_5901)" stroke-width="0.5" stroke-miterlimit="10"/>
<path d="M103.423 627.174C100.548 625.394 39.9452 584.127 19.6521 543.41C-0.0224479 503.954 25.9435 474.384 74.6109 465.704C79.6407 464.862 84.6743 463.518 89.7078 462.174C136.271 449.334 150.72 397.951 105.165 376.638C58.108 354.561 57.5323 330.695 80.9896 317.557C91.2048 311.856 99.3374 299.107 103.099 283.059C108.03 261.746 109.597 236.891 98.4126 220.984C79.65 193.968 61.271 182.905 50.0218 158.834C45.1999 148.625 47.1819 135.453 50.4281 121.16C55.2347 99.7204 60.4526 73.6369 52.9765 48.8403C40.9671 8.81366 33.4893 1.09705 33.4893 1.09705" stroke="url(#paint13_linear_713_5901)" stroke-width="0.5" stroke-miterlimit="10"/>
<path d="M102.412 628.045C99.287 626.138 38.1603 587.755 17.7397 547.289C-2.31248 507.956 25.1502 479.777 74.5645 471.982C79.5943 471.141 84.626 470.048 89.6605 468.578C135.721 455.86 151.049 404.358 103.476 384.16C53.6503 362.941 54.724 336.827 81.9497 323.592C93.7984 317.777 103.441 304.663 108.335 288.373C114.776 266.568 116.6 240.962 104.537 224.922C83.7693 197.389 62.874 186.935 49.4927 162.471C43.7937 152.005 45.4008 138.579 48.4005 123.656C52.834 101.711 58.3059 75.253 50.4587 49.7001C37.707 8.16087 30.2246 1.07216 30.2246 1.07216" stroke="url(#paint14_linear_713_5901)" stroke-width="0.5" stroke-miterlimit="10"/>
<path d="M101.276 628.916C97.9001 626.881 36.3751 591.384 15.5769 551.04C-4.85203 511.705 24.3585 484.921 74.3942 478.009C79.5486 477.294 84.5803 476.202 89.4883 474.857C134.92 462.134 151.254 410.639 101.663 391.557C48.9412 371.321 51.79 342.959 82.9096 329.627C96.3908 323.825 107.418 310.218 113.571 293.561C121.649 271.266 123.728 245.034 110.537 228.735C88.1377 201.064 64.6004 191.218 49.2136 166.237C42.6364 155.639 43.745 141.707 46.6229 126.281C50.6834 103.831 56.2846 76.8707 48.19 50.8136C34.6961 7.76183 27.3345 1.30198 27.3345 1.30198" stroke="url(#paint15_linear_713_5901)" stroke-width="0.5" stroke-miterlimit="10"/>
<path d="M100.139 629.787C96.6381 627.626 34.5893 595.013 13.5381 554.919C-7.26667 515.455 23.5652 490.19 74.3478 484.163C79.5013 483.574 84.533 482.481 89.441 481.136C134.371 468.41 151.583 416.921 99.9749 398.954C44.4836 379.577 48.9817 348.967 83.9944 335.664C99.1082 329.874 111.646 315.902 118.931 298.876C128.645 276.091 130.982 249.107 116.786 232.8C92.5054 204.739 66.5774 195.503 48.932 170.254C41.4767 159.523 42.2113 145.212 44.8417 129.282C48.5293 106.327 54.3854 78.8663 45.9187 52.1785C31.6825 7.61409 24.4418 1.78307 24.4418 1.78307" stroke="url(#paint16_linear_713_5901)" stroke-width="0.5" stroke-miterlimit="10"/>
<path d="M99.0021 630.657C95.2515 628.369 32.8044 598.641 11.3745 558.796C-9.80697 519.329 22.6471 495.457 74.0511 490.315C79.2037 489.851 84.2354 488.758 89.0178 487.412C133.319 474.807 151.537 423.2 97.9107 406.348C39.5236 387.954 45.7976 354.971 84.5778 341.696C101.198 335.918 115.372 321.455 123.791 304.061C135.141 280.786 137.609 253.049 122.535 236.611C96.3735 208.158 67.9283 199.657 48.1517 173.89C39.8183 163.027 40.1789 148.336 42.5629 131.776C45.8775 108.316 51.862 80.4799 43.1487 53.1623C28.1703 7.08533 21.0496 2.00872 21.0496 2.00872" stroke="url(#paint17_linear_713_5901)" stroke-width="0.5" stroke-miterlimit="10"/>
<path d="M97.8649 631.527C93.864 629.112 30.8931 602.269 9.33672 562.548C-12.2215 523.078 21.8558 500.475 74.0058 496.342C79.1583 495.878 84.1891 494.911 88.9715 493.565C132.645 480.955 151.867 429.356 96.349 413.62C35.1916 396.21 43.1141 361.104 85.7891 347.608C104.042 341.841 119.601 326.886 129.277 309.251C142.139 285.485 144.989 256.997 128.786 240.424C100.743 211.581 69.7825 203.564 47.8739 177.404C38.6623 166.409 38.649 151.339 40.7865 134.149C43.6025 110.182 49.9675 81.8469 40.8813 54.0242C25.1606 6.4346 18.0352 1.98588 18.0352 1.98588" stroke="url(#paint18_linear_713_5901)" stroke-width="0.5" stroke-miterlimit="10"/>
<path d="M96.8538 632.399C92.7284 629.857 29.2336 605.899 7.29858 566.426C-14.6364 526.953 21.1878 505.87 73.9601 502.496C126.732 499.122 158.589 437.444 94.6614 421.018C30.7337 404.592 40.1819 366.986 86.75 353.518C133.318 340.05 164.835 273.346 134.911 244.238C104.987 215.13 71.51 207.722 47.4693 181.169C23.4286 154.616 54.6988 104.237 38.3614 55.1359C22.0241 6.03472 14.894 2.21393 14.894 2.21393" stroke="url(#paint19_linear_713_5901)" stroke-width="0.5" stroke-miterlimit="10"/>
<defs>
<linearGradient id="paint0_linear_713_5901" x1="211.717" y1="241" x2="-24.1475" y2="374.843" gradientUnits="userSpaceOnUse">
<stop stop-color="#390F7C"/>
<stop offset="0.1919" stop-color="#8111D1"/>
<stop offset="0.3324" stop-color="#EA0AEA"/>
<stop offset="0.5216" stop-color="#EDD107"/>
<stop offset="0.6243" stop-color="#21C152"/>
<stop offset="0.7649" stop-color="#06B6ED"/>
<stop offset="0.9108" stop-color="#004FCE"/>
<stop offset="1" stop-color="#001C93"/>
</linearGradient>
<linearGradient id="paint1_linear_713_5901" x1="186.54" y1="267.535" x2="-17.014" y2="355.019" gradientUnits="userSpaceOnUse">
<stop stop-color="#390F7C"/>
<stop offset="0.1919" stop-color="#8111D1"/>
<stop offset="0.3324" stop-color="#EA0AEA"/>
<stop offset="0.5216" stop-color="#EDD107"/>
<stop offset="0.6243" stop-color="#21C152"/>
<stop offset="0.7649" stop-color="#06B6ED"/>
<stop offset="0.9108" stop-color="#004FCE"/>
<stop offset="1" stop-color="#001C93"/>
</linearGradient>
<linearGradient id="paint2_linear_713_5901" x1="157.423" y1="287.942" x2="-7.87327" y2="338.294" gradientUnits="userSpaceOnUse">
<stop stop-color="#390F7C"/>
<stop offset="0.1919" stop-color="#8111D1"/>
<stop offset="0.3324" stop-color="#EA0AEA"/>
<stop offset="0.5216" stop-color="#EDD107"/>
<stop offset="0.6243" stop-color="#21C152"/>
<stop offset="0.7649" stop-color="#06B6ED"/>
<stop offset="0.9108" stop-color="#004FCE"/>
<stop offset="1" stop-color="#001C93"/>
</linearGradient>
<linearGradient id="paint3_linear_713_5901" x1="130.348" y1="300.885" x2="4.08492" y2="324.573" gradientUnits="userSpaceOnUse">
<stop stop-color="#390F7C"/>
<stop offset="0.1919" stop-color="#8111D1"/>
<stop offset="0.3324" stop-color="#EA0AEA"/>
<stop offset="0.5216" stop-color="#EDD107"/>
<stop offset="0.6243" stop-color="#21C152"/>
<stop offset="0.7649" stop-color="#06B6ED"/>
<stop offset="0.9108" stop-color="#004FCE"/>
<stop offset="1" stop-color="#001C93"/>
</linearGradient>
<linearGradient id="paint4_linear_713_5901" x1="133.933" y1="305.597" x2="18.4727" y2="314.299" gradientUnits="userSpaceOnUse">
<stop stop-color="#390F7C"/>
<stop offset="0.1919" stop-color="#8111D1"/>
<stop offset="0.3324" stop-color="#EA0AEA"/>
<stop offset="0.5216" stop-color="#EDD107"/>
<stop offset="0.6243" stop-color="#21C152"/>
<stop offset="0.7649" stop-color="#06B6ED"/>
<stop offset="0.9108" stop-color="#004FCE"/>
<stop offset="1" stop-color="#001C93"/>
</linearGradient>
<linearGradient id="paint5_linear_713_5901" x1="138.651" y1="311.527" x2="34.7632" y2="307.889" gradientUnits="userSpaceOnUse">
<stop stop-color="#390F7C"/>
<stop offset="0.1919" stop-color="#8111D1"/>
<stop offset="0.3324" stop-color="#EA0AEA"/>
<stop offset="0.5216" stop-color="#EDD107"/>
<stop offset="0.6243" stop-color="#21C152"/>
<stop offset="0.7649" stop-color="#06B6ED"/>
<stop offset="0.9108" stop-color="#004FCE"/>
<stop offset="1" stop-color="#001C93"/>
</linearGradient>
<linearGradient id="paint6_linear_713_5901" x1="155.253" y1="320.752" x2="10.8116" y2="299.625" gradientUnits="userSpaceOnUse">
<stop stop-color="#390F7C"/>
<stop offset="0.1919" stop-color="#8111D1"/>
<stop offset="0.3324" stop-color="#EA0AEA"/>
<stop offset="0.5216" stop-color="#EDD107"/>
<stop offset="0.6243" stop-color="#21C152"/>
<stop offset="0.7649" stop-color="#06B6ED"/>
<stop offset="0.9108" stop-color="#004FCE"/>
<stop offset="1" stop-color="#001C93"/>
</linearGradient>
<linearGradient id="paint7_linear_713_5901" x1="184.401" y1="337.748" x2="-22.5357" y2="283.701" gradientUnits="userSpaceOnUse">
<stop stop-color="#390F7C"/>
<stop offset="0.1919" stop-color="#8111D1"/>
<stop offset="0.3324" stop-color="#EA0AEA"/>
<stop offset="0.5216" stop-color="#EDD107"/>
<stop offset="0.6243" stop-color="#21C152"/>
<stop offset="0.7649" stop-color="#06B6ED"/>
<stop offset="0.9108" stop-color="#004FCE"/>
<stop offset="1" stop-color="#001C93"/>
</linearGradient>
<linearGradient id="paint8_linear_713_5901" x1="209.212" y1="361.184" x2="-51.5372" y2="261.335" gradientUnits="userSpaceOnUse">
<stop stop-color="#390F7C"/>
<stop offset="0.1919" stop-color="#8111D1"/>
<stop offset="0.3324" stop-color="#EA0AEA"/>
<stop offset="0.5216" stop-color="#EDD107"/>
<stop offset="0.6243" stop-color="#21C152"/>
<stop offset="0.7649" stop-color="#06B6ED"/>
<stop offset="0.9108" stop-color="#004FCE"/>
<stop offset="1" stop-color="#001C93"/>
</linearGradient>
<linearGradient id="paint9_linear_713_5901" x1="228.357" y1="389.946" x2="-74.8671" y2="233.648" gradientUnits="userSpaceOnUse">
<stop stop-color="#390F7C"/>
<stop offset="0.1919" stop-color="#8111D1"/>
<stop offset="0.3324" stop-color="#EA0AEA"/>
<stop offset="0.5216" stop-color="#EDD107"/>
<stop offset="0.6243" stop-color="#21C152"/>
<stop offset="0.7649" stop-color="#06B6ED"/>
<stop offset="0.9108" stop-color="#004FCE"/>
<stop offset="1" stop-color="#001C93"/>
</linearGradient>
<linearGradient id="paint10_linear_713_5901" x1="240.81" y1="422.668" x2="-91.4778" y2="202.023" gradientUnits="userSpaceOnUse">
<stop stop-color="#390F7C"/>
<stop offset="0.1919" stop-color="#8111D1"/>
<stop offset="0.3324" stop-color="#EA0AEA"/>
<stop offset="0.5216" stop-color="#EDD107"/>
<stop offset="0.6243" stop-color="#21C152"/>
<stop offset="0.7649" stop-color="#06B6ED"/>
<stop offset="0.9108" stop-color="#004FCE"/>
<stop offset="1" stop-color="#001C93"/>
</linearGradient>
<linearGradient id="paint11_linear_713_5901" x1="245.769" y1="457.896" x2="-100.75" y2="168.154" gradientUnits="userSpaceOnUse">
<stop stop-color="#390F7C"/>
<stop offset="0.1919" stop-color="#8111D1"/>
<stop offset="0.3324" stop-color="#EA0AEA"/>
<stop offset="0.5216" stop-color="#EDD107"/>
<stop offset="0.6243" stop-color="#21C152"/>
<stop offset="0.7649" stop-color="#06B6ED"/>
<stop offset="0.9108" stop-color="#004FCE"/>
<stop offset="1" stop-color="#001C93"/>
</linearGradient>
<linearGradient id="paint12_linear_713_5901" x1="240.889" y1="495.714" x2="-104.291" y2="135.557" gradientUnits="userSpaceOnUse">
<stop stop-color="#390F7C"/>
<stop offset="0.1919" stop-color="#8111D1"/>
<stop offset="0.3324" stop-color="#EA0AEA"/>
<stop offset="0.5216" stop-color="#EDD107"/>
<stop offset="0.6243" stop-color="#21C152"/>
<stop offset="0.7649" stop-color="#06B6ED"/>
<stop offset="0.9108" stop-color="#004FCE"/>
<stop offset="1" stop-color="#001C93"/>
</linearGradient>
<linearGradient id="paint13_linear_713_5901" x1="225.701" y1="533.591" x2="-102.686" y2="105.131" gradientUnits="userSpaceOnUse">
<stop stop-color="#390F7C"/>
<stop offset="0.1919" stop-color="#8111D1"/>
<stop offset="0.3324" stop-color="#EA0AEA"/>
<stop offset="0.5216" stop-color="#EDD107"/>
<stop offset="0.6243" stop-color="#21C152"/>
<stop offset="0.7649" stop-color="#06B6ED"/>
<stop offset="0.9108" stop-color="#004FCE"/>
<stop offset="1" stop-color="#001C93"/>
</linearGradient>
<linearGradient id="paint14_linear_713_5901" x1="201.691" y1="568.142" x2="-95.2515" y2="76.904" gradientUnits="userSpaceOnUse">
<stop stop-color="#390F7C"/>
<stop offset="0.1919" stop-color="#8111D1"/>
<stop offset="0.3324" stop-color="#EA0AEA"/>
<stop offset="0.5216" stop-color="#EDD107"/>
<stop offset="0.6243" stop-color="#21C152"/>
<stop offset="0.7649" stop-color="#06B6ED"/>
<stop offset="0.9108" stop-color="#004FCE"/>
<stop offset="1" stop-color="#001C93"/>
</linearGradient>
<linearGradient id="paint15_linear_713_5901" x1="170.552" y1="597.019" x2="-81.8535" y2="51.6678" gradientUnits="userSpaceOnUse">
<stop stop-color="#390F7C"/>
<stop offset="0.1919" stop-color="#8111D1"/>
<stop offset="0.3324" stop-color="#EA0AEA"/>
<stop offset="0.5216" stop-color="#EDD107"/>
<stop offset="0.6243" stop-color="#21C152"/>
<stop offset="0.7649" stop-color="#06B6ED"/>
<stop offset="0.9108" stop-color="#004FCE"/>
<stop offset="1" stop-color="#001C93"/>
</linearGradient>
<linearGradient id="paint16_linear_713_5901" x1="140.668" y1="616.424" x2="-56.3403" y2="28.3255" gradientUnits="userSpaceOnUse">
<stop stop-color="#390F7C"/>
<stop offset="0.1919" stop-color="#8111D1"/>
<stop offset="0.3324" stop-color="#EA0AEA"/>
<stop offset="0.5216" stop-color="#EDD107"/>
<stop offset="0.6243" stop-color="#21C152"/>
<stop offset="0.7649" stop-color="#06B6ED"/>
<stop offset="0.9108" stop-color="#004FCE"/>
<stop offset="1" stop-color="#001C93"/>
</linearGradient>
<linearGradient id="paint17_linear_713_5901" x1="118.078" y1="626.785" x2="-15.4476" y2="9.44848" gradientUnits="userSpaceOnUse">
<stop stop-color="#390F7C"/>
<stop offset="0.1919" stop-color="#8111D1"/>
<stop offset="0.3324" stop-color="#EA0AEA"/>
<stop offset="0.5216" stop-color="#EDD107"/>
<stop offset="0.6243" stop-color="#21C152"/>
<stop offset="0.7649" stop-color="#06B6ED"/>
<stop offset="0.9108" stop-color="#004FCE"/>
<stop offset="1" stop-color="#001C93"/>
</linearGradient>
<linearGradient id="paint18_linear_713_5901" x1="94.8188" y1="632.128" x2="29.6745" y2="0.535057" gradientUnits="userSpaceOnUse">
<stop stop-color="#390F7C"/>
<stop offset="0.1919" stop-color="#8111D1"/>
<stop offset="0.3324" stop-color="#EA0AEA"/>
<stop offset="0.5216" stop-color="#EDD107"/>
<stop offset="0.6243" stop-color="#21C152"/>
<stop offset="0.7649" stop-color="#06B6ED"/>
<stop offset="0.9108" stop-color="#004FCE"/>
<stop offset="1" stop-color="#001C93"/>
</linearGradient>
<linearGradient id="paint19_linear_713_5901" x1="72.0093" y1="632.525" x2="76.705" y2="2.39715" gradientUnits="userSpaceOnUse">
<stop stop-color="#390F7C"/>
<stop offset="0.1919" stop-color="#8111D1"/>
<stop offset="0.3324" stop-color="#EA0AEA"/>
<stop offset="0.5216" stop-color="#EDD107"/>
<stop offset="0.6243" stop-color="#21C152"/>
<stop offset="0.7649" stop-color="#06B6ED"/>
<stop offset="0.9108" stop-color="#004FCE"/>
<stop offset="1" stop-color="#001C93"/>
</linearGradient>
</defs>
</svg>
