<?xml version="1.0" encoding="utf-8"?>
<!-- Generator: Adobe Illustrator 22.1.0, SVG Export Plug-In . SVG Version: 6.00 Build 0)  -->
<svg version="1.1" id="Слой_1" xmlns="http://www.w3.org/2000/svg" xmlns:xlink="http://www.w3.org/1999/xlink" x="0px" y="0px"
	 viewBox="0 0 13 20" style="enable-background:new 0 0 13 20;" xml:space="preserve">
<style type="text/css">
	.st0{fill:#231F20;}
</style>
<path class="st0" d="M5,18h2v-6.2c0-0.6,0.4-1,1-1h2.2l0.4-1.6H8c-0.6,0-1-0.4-1-1V5.5c0-1,0.9-1.9,2-1.9h2V2H9C6.8,2,5,3.6,5,5.5
	v2.7c0,0.6-0.4,1-1,1H2v1.6h2c0.6,0,1,0.4,1,1V18z M8,20H4c-0.6,0-1-0.4-1-1v-6.2H1c-0.6,0-1-0.4-1-1V8.2c0-0.6,0.4-1,1-1h2V5.5
	C3,2.5,5.7,0,9,0h3c0.6,0,1,0.4,1,1v3.6c0,0.6-0.4,1-1,1H9v1.6h3c0.3,0,0.6,0.1,0.8,0.4C13,7.8,13,8.2,13,8.5l-1,3.6
	c-0.1,0.4-0.5,0.7-1,0.7H9V19C9,19.6,8.6,20,8,20z"/>
</svg>
